%TF.GenerationSoftware,KiCad,Pcbnew,10.0.4*%
%TF.CreationDate,2026-07-08T14:28:45+02:00*%
%TF.ProjectId,hack pad pcb,6861636b-2070-4616-9420-7063622e6b69,rev?*%
%TF.SameCoordinates,Original*%
%TF.FileFunction,Copper,L2,Bot*%
%TF.FilePolarity,Positive*%
%FSLAX46Y46*%
G04 Gerber Fmt 4.6, Leading zero omitted, Abs format (unit mm)*
G04 Created by KiCad (PCBNEW 10.0.4) date 2026-07-08 14:28:45*
%MOMM*%
%LPD*%
G01*
G04 APERTURE LIST*
G04 Aperture macros list*
%AMRoundRect*
0 Rectangle with rounded corners*
0 $1 Rounding radius*
0 $2 $3 $4 $5 $6 $7 $8 $9 X,Y pos of 4 corners*
0 Add a 4 corners polygon primitive as box body*
4,1,4,$2,$3,$4,$5,$6,$7,$8,$9,$2,$3,0*
0 Add four circle primitives for the rounded corners*
1,1,$1+$1,$2,$3*
1,1,$1+$1,$4,$5*
1,1,$1+$1,$6,$7*
1,1,$1+$1,$8,$9*
0 Add four rect primitives between the rounded corners*
20,1,$1+$1,$2,$3,$4,$5,0*
20,1,$1+$1,$4,$5,$6,$7,0*
20,1,$1+$1,$6,$7,$8,$9,0*
20,1,$1+$1,$8,$9,$2,$3,0*%
G04 Aperture macros list end*
%TA.AperFunction,ComponentPad*%
%ADD10C,2.200000*%
%TD*%
%TA.AperFunction,ComponentPad*%
%ADD11RoundRect,0.250000X-0.550000X-0.550000X0.550000X-0.550000X0.550000X0.550000X-0.550000X0.550000X0*%
%TD*%
%TA.AperFunction,ComponentPad*%
%ADD12C,1.600000*%
%TD*%
%TA.AperFunction,ComponentPad*%
%ADD13RoundRect,0.170000X0.680000X-0.680000X0.680000X0.680000X-0.680000X0.680000X-0.680000X-0.680000X0*%
%TD*%
%TA.AperFunction,ComponentPad*%
%ADD14C,1.700000*%
%TD*%
%TA.AperFunction,ComponentPad*%
%ADD15R,3.500000X1.700000*%
%TD*%
%TA.AperFunction,ComponentPad*%
%ADD16O,3.600000X1.700000*%
%TD*%
%TA.AperFunction,ComponentPad*%
%ADD17O,3.700000X1.700000*%
%TD*%
%TA.AperFunction,Conductor*%
%ADD18C,0.200000*%
%TD*%
G04 APERTURE END LIST*
D10*
%TO.P,SW7,1,1_1*%
%TO.N,Net-(D7-A)*%
X138040000Y-113420000D03*
%TO.P,SW7,2,2_2*%
%TO.N,Net-(U1-PA11_A3_D3)*%
X131690000Y-115960000D03*
%TD*%
%TO.P,SW1,1,1_1*%
%TO.N,Net-(D6-A)*%
X138200000Y-75330000D03*
%TO.P,SW1,2,2_2*%
%TO.N,Net-(U1-PA4_A1_D1)*%
X131850000Y-77870000D03*
%TD*%
D11*
%TO.P,D2,1,K_1*%
%TO.N,Net-(D2-K)*%
X108690000Y-93993750D03*
D12*
%TO.P,D2,2,A_2*%
%TO.N,Net-(D2-A)*%
X116310000Y-93993750D03*
%TD*%
D10*
%TO.P,SW6,1,1_1*%
%TO.N,Net-(D1-A)*%
X176300000Y-94420000D03*
%TO.P,SW6,2,2_2*%
%TO.N,Net-(U1-PA10_A2_D2)*%
X169950000Y-96960000D03*
%TD*%
D11*
%TO.P,D8,1,K_1*%
%TO.N,Net-(D2-K)*%
X108690000Y-103006250D03*
D12*
%TO.P,D8,2,A_2*%
%TO.N,Net-(D8-A)*%
X116310000Y-103006250D03*
%TD*%
D10*
%TO.P,SW4,1,1_1*%
%TO.N,Net-(D3-A)*%
X157280000Y-94330000D03*
%TO.P,SW4,2,2_2*%
%TO.N,Net-(U1-PA10_A2_D2)*%
X150930000Y-96870000D03*
%TD*%
%TO.P,SW8,1,1_1*%
%TO.N,Net-(D8-A)*%
X176040000Y-113420000D03*
%TO.P,SW8,2,2_2*%
%TO.N,Net-(U1-PA11_A3_D3)*%
X169690000Y-115960000D03*
%TD*%
D11*
%TO.P,D9,1,K_1*%
%TO.N,Net-(D3-K)*%
X108690000Y-88506250D03*
D12*
%TO.P,D9,2,A_2*%
%TO.N,Net-(D9-A)*%
X116310000Y-88506250D03*
%TD*%
D11*
%TO.P,D7,1,K_1*%
%TO.N,Net-(D1-K)*%
X108690000Y-117506250D03*
D12*
%TO.P,D7,2,A_2*%
%TO.N,Net-(D7-A)*%
X116310000Y-117506250D03*
%TD*%
D11*
%TO.P,D3,1,K_1*%
%TO.N,Net-(D3-K)*%
X108690000Y-79493750D03*
D12*
%TO.P,D3,2,A_2*%
%TO.N,Net-(D3-A)*%
X116310000Y-79493750D03*
%TD*%
D13*
%TO.P,U2,1,GND_1*%
%TO.N,GND*%
X144000000Y-64310000D03*
D14*
%TO.P,U2,2,VCC_2*%
%TO.N,+3V3*%
X144000000Y-61770000D03*
%TO.P,U2,3,SCL_3*%
%TO.N,Net-(U1-PA9_A5_D5_SCL)*%
X144000000Y-59230000D03*
%TO.P,U2,4,SDA_4*%
%TO.N,Net-(U1-PA8_A4_D4_SDA)*%
X144000000Y-56690000D03*
%TD*%
D10*
%TO.P,SW9,1,1_1*%
%TO.N,Net-(D9-A)*%
X157040000Y-113420000D03*
%TO.P,SW9,2,2_2*%
%TO.N,Net-(U1-PA11_A3_D3)*%
X150690000Y-115960000D03*
%TD*%
D11*
%TO.P,D1,1,K_1*%
%TO.N,Net-(D1-K)*%
X108690000Y-108493750D03*
D12*
%TO.P,D1,2,A_2*%
%TO.N,Net-(D1-A)*%
X116310000Y-108493750D03*
%TD*%
D11*
%TO.P,D5,1,K_1*%
%TO.N,Net-(D2-K)*%
X108690000Y-98500000D03*
D12*
%TO.P,D5,2,A_2*%
%TO.N,Net-(D5-A)*%
X116310000Y-98500000D03*
%TD*%
D10*
%TO.P,SW5,1,1_1*%
%TO.N,Net-(D2-A)*%
X137960000Y-94420000D03*
%TO.P,SW5,2,2_2*%
%TO.N,Net-(U1-PA10_A2_D2)*%
X131610000Y-96960000D03*
%TD*%
D11*
%TO.P,D4,1,K_1*%
%TO.N,Net-(D3-K)*%
X108690000Y-84000000D03*
D12*
%TO.P,D4,2,A_2*%
%TO.N,Net-(D4-A)*%
X116310000Y-84000000D03*
%TD*%
D11*
%TO.P,D6,1,K_1*%
%TO.N,Net-(D1-K)*%
X108690000Y-113000000D03*
D12*
%TO.P,D6,2,A_2*%
%TO.N,Net-(D6-A)*%
X116310000Y-113000000D03*
%TD*%
D10*
%TO.P,SW3,1,1_1*%
%TO.N,Net-(D4-A)*%
X176200000Y-75330000D03*
%TO.P,SW3,2,2_2*%
%TO.N,Net-(U1-PA4_A1_D1)*%
X169850000Y-77870000D03*
%TD*%
%TO.P,SW2,1,1_1*%
%TO.N,Net-(D5-A)*%
X157200000Y-75330000D03*
%TO.P,SW2,2,2_2*%
%TO.N,Net-(U1-PA4_A1_D1)*%
X150850000Y-77870000D03*
%TD*%
D15*
%TO.P,U1,1,PA02_A0_D0_1*%
%TO.N,unconnected-(U1-PA02_A0_D0-Pad1)*%
X122500000Y-54300000D03*
D16*
%TO.P,U1,2,PA4_A1_D1_2*%
%TO.N,Net-(U1-PA4_A1_D1)*%
X122500000Y-56840000D03*
%TO.P,U1,3,PA10_A2_D2_3*%
%TO.N,Net-(U1-PA10_A2_D2)*%
X122500000Y-59380000D03*
%TO.P,U1,4,PA11_A3_D3_4*%
%TO.N,Net-(U1-PA11_A3_D3)*%
X122500000Y-61920000D03*
%TO.P,U1,5,PA8_A4_D4_SDA_5*%
%TO.N,Net-(U1-PA8_A4_D4_SDA)*%
X122500000Y-64460000D03*
%TO.P,U1,6,PA9_A5_D5_SCL_6*%
%TO.N,Net-(U1-PA9_A5_D5_SCL)*%
X122500000Y-67000000D03*
%TO.P,U1,7,PB08_A6_D6_TX_7*%
%TO.N,Net-(D10-DIN)*%
X122500000Y-69540000D03*
%TO.P,U1,8,PB09_A7_D7_RX_8*%
%TO.N,unconnected-(U1-PB09_A7_D7_RX-Pad8)*%
X105250000Y-69540000D03*
%TO.P,U1,9,PA7_A8_D8_SCK_9*%
%TO.N,Net-(D3-K)*%
X105250000Y-67000000D03*
%TO.P,U1,10,PA5_A9_D9_MISO_10*%
%TO.N,Net-(D2-K)*%
X105250000Y-64460000D03*
D17*
%TO.P,U1,11,PA6_A10_D10_MOSI_11*%
%TO.N,Net-(D1-K)*%
X105250000Y-61920000D03*
%TO.P,U1,12,3V3_12*%
%TO.N,+3V3*%
X105250000Y-59380000D03*
%TO.P,U1,13,GND_13*%
%TO.N,GND*%
X105250000Y-56840000D03*
%TO.P,U1,14,5V_14*%
%TO.N,Net-(D10-VDD)*%
X105250000Y-54300000D03*
%TD*%
%TO.N,Net-(U1-PA11_A3_D3)*%
D18*
X122536346Y-61920000D02*
X121500000Y-61920000D01*
X131690000Y-115960000D02*
X124600000Y-108870000D01*
X124600000Y-108870000D02*
X124600000Y-63983654D01*
X124600000Y-63983654D02*
X122536346Y-61920000D01*
X131690000Y-115960000D02*
X169690000Y-115960000D01*
%TO.N,Net-(U1-PA4_A1_D1)*%
X131850000Y-66153654D02*
X122536346Y-56840000D01*
X131850000Y-77870000D02*
X131850000Y-66153654D01*
X122536346Y-56840000D02*
X121500000Y-56840000D01*
X131850000Y-77870000D02*
X169850000Y-77870000D01*
%TO.N,Net-(D2-K)*%
X112500000Y-90183750D02*
X112500000Y-70710000D01*
X108690000Y-103006250D02*
X108690000Y-93993750D01*
X112500000Y-70710000D02*
X106250000Y-64460000D01*
X108690000Y-93993750D02*
X112500000Y-90183750D01*
%TO.N,Net-(D2-A)*%
X170529899Y-95560000D02*
X169370101Y-95560000D01*
X116310000Y-93993750D02*
X117410000Y-95093750D01*
X169370101Y-95560000D02*
X168640000Y-96290101D01*
X150459899Y-94420000D02*
X137960000Y-94420000D01*
X171350000Y-115074415D02*
X171350000Y-96380101D01*
X168640000Y-96290101D02*
X152330000Y-96290101D01*
X171350000Y-96380101D02*
X170529899Y-95560000D01*
X117410000Y-107187056D02*
X131472944Y-121250000D01*
X171490000Y-117186598D02*
X171490000Y-115214415D01*
X152330000Y-96290101D02*
X150459899Y-94420000D01*
X131472944Y-121250000D02*
X167426598Y-121250000D01*
X171490000Y-115214415D02*
X171350000Y-115074415D01*
X167426598Y-121250000D02*
X171490000Y-117186598D01*
X117410000Y-95093750D02*
X117410000Y-107187056D01*
%TO.N,Net-(D1-A)*%
X176250000Y-119639087D02*
X176250000Y-117360912D01*
X173839088Y-122050000D02*
X176250000Y-119639087D01*
X129866250Y-122050000D02*
X173839088Y-122050000D01*
X116310000Y-108493750D02*
X129866250Y-122050000D01*
X180040000Y-98160000D02*
X176300000Y-94420000D01*
X180040000Y-113570912D02*
X180040000Y-98160000D01*
X176250000Y-117360912D02*
X180040000Y-113570912D01*
%TO.N,Net-(U1-PA10_A2_D2)*%
X122536346Y-59380000D02*
X121500000Y-59380000D01*
X131610000Y-96960000D02*
X169950000Y-96960000D01*
X129380000Y-94730000D02*
X129380000Y-66223654D01*
X129380000Y-66223654D02*
X122536346Y-59380000D01*
X131610000Y-96960000D02*
X129380000Y-94730000D01*
%TO.N,Net-(D3-A)*%
X171310000Y-79436598D02*
X171310000Y-80300000D01*
X144600000Y-70500000D02*
X168500000Y-70500000D01*
X139600000Y-75500000D02*
X144600000Y-70500000D01*
X171310000Y-80300000D02*
X157280000Y-94330000D01*
X121073654Y-55690000D02*
X123926346Y-55690000D01*
X123926346Y-55690000D02*
X139600000Y-71363654D01*
X116310000Y-79493750D02*
X116310000Y-60453654D01*
X168500000Y-70500000D02*
X174373299Y-76373299D01*
X139600000Y-71363654D02*
X139600000Y-75500000D01*
X116310000Y-60453654D02*
X121073654Y-55690000D01*
X174373299Y-76373299D02*
X171310000Y-79436598D01*
%TO.N,Net-(D3-K)*%
X108690000Y-88506250D02*
X108690000Y-79493750D01*
X108690000Y-69440000D02*
X106250000Y-67000000D01*
X108690000Y-79493750D02*
X108690000Y-69440000D01*
%TO.N,Net-(D9-A)*%
X170269899Y-117360000D02*
X171090000Y-116539899D01*
X163979899Y-120850000D02*
X168290000Y-116539899D01*
X171090000Y-116539899D02*
X171090000Y-115380101D01*
X171090000Y-115380101D02*
X169129899Y-113420000D01*
X168290000Y-116539899D02*
X169110101Y-117360000D01*
X169110101Y-117360000D02*
X170269899Y-117360000D01*
X116310000Y-88506250D02*
X124200000Y-96396250D01*
X134526598Y-120850000D02*
X163979899Y-120850000D01*
X169129899Y-113420000D02*
X157040000Y-113420000D01*
X124200000Y-110523402D02*
X134526598Y-120850000D01*
X124200000Y-96396250D02*
X124200000Y-110523402D01*
%TO.N,Net-(D1-K)*%
X112900000Y-104283750D02*
X112900000Y-68570000D01*
X108690000Y-117506250D02*
X108690000Y-108493750D01*
X108690000Y-108493750D02*
X112900000Y-104283750D01*
X112900000Y-68570000D02*
X106250000Y-61920000D01*
%TO.N,Net-(U1-PA8_A4_D4_SDA)*%
X120400000Y-81465635D02*
X120400000Y-65560000D01*
X155580101Y-56690000D02*
X175620101Y-76730000D01*
X177600000Y-75909899D02*
X177600000Y-74750101D01*
X175620101Y-76730000D02*
X176779899Y-76730000D01*
X144000000Y-56690000D02*
X155580101Y-56690000D01*
X114810000Y-84055635D02*
X115854365Y-85100000D01*
X155599899Y-52750000D02*
X120284314Y-52750000D01*
X115854365Y-85100000D02*
X116765635Y-85100000D01*
X177600000Y-74750101D02*
X155599899Y-52750000D01*
X120400000Y-65560000D02*
X121500000Y-64460000D01*
X116765635Y-85100000D02*
X120400000Y-81465635D01*
X176779899Y-76730000D02*
X177600000Y-75909899D01*
X120284314Y-52750000D02*
X114810000Y-58224314D01*
X114810000Y-58224314D02*
X114810000Y-84055635D01*
%TO.N,Net-(D5-A)*%
X168474314Y-95890101D02*
X156860202Y-95890101D01*
X156860202Y-95890101D02*
X155880000Y-94909899D01*
X169270101Y-79270000D02*
X170429899Y-79270000D01*
X175850000Y-117526598D02*
X174473402Y-116150000D01*
X171250000Y-78449899D02*
X171250000Y-77290101D01*
X115210000Y-105552741D02*
X131307259Y-121650000D01*
X176110000Y-100473402D02*
X176110000Y-98526598D01*
X173673402Y-121650000D02*
X175850000Y-119473402D01*
X169289899Y-75330000D02*
X157200000Y-75330000D01*
X115210000Y-99600000D02*
X115210000Y-105552741D01*
X176110000Y-98526598D02*
X172743402Y-95160000D01*
X172743402Y-95160000D02*
X169204415Y-95160000D01*
X174473402Y-116150000D02*
X174473402Y-102110000D01*
X131307259Y-121650000D02*
X173673402Y-121650000D01*
X155880000Y-91412944D02*
X168292994Y-78999950D01*
X169204415Y-95160000D02*
X168474314Y-95890101D01*
X175850000Y-119473402D02*
X175850000Y-117526598D01*
X169000051Y-78999950D02*
X169270101Y-79270000D01*
X171250000Y-77290101D02*
X169289899Y-75330000D01*
X170429899Y-79270000D02*
X171250000Y-78449899D01*
X168292994Y-78999950D02*
X169000051Y-78999950D01*
X116310000Y-98500000D02*
X115210000Y-99600000D01*
X174473402Y-102110000D02*
X176110000Y-100473402D01*
X155880000Y-94909899D02*
X155880000Y-91412944D01*
%TO.N,Net-(D4-A)*%
X115210000Y-82900000D02*
X115210000Y-58390000D01*
X115210000Y-58390000D02*
X120450000Y-53150000D01*
X154020000Y-53150000D02*
X176200000Y-75330000D01*
X120450000Y-53150000D02*
X154020000Y-53150000D01*
X116310000Y-84000000D02*
X115210000Y-82900000D01*
%TD*%
M02*
