%TF.GenerationSoftware,KiCad,Pcbnew,10.0.4*%
%TF.CreationDate,2026-07-08T14:28:45+02:00*%
%TF.ProjectId,hack pad pcb,6861636b-2070-4616-9420-7063622e6b69,rev?*%
%TF.SameCoordinates,Original*%
%TF.FileFunction,Profile,NP*%
%FSLAX46Y46*%
G04 Gerber Fmt 4.6, Leading zero omitted, Abs format (unit mm)*
G04 Created by KiCad (PCBNEW 10.0.4) date 2026-07-08 14:28:45*
%MOMM*%
%LPD*%
G01*
G04 APERTURE LIST*
%TA.AperFunction,Profile*%
%ADD10C,0.050000*%
%TD*%
%TA.AperFunction,Profile*%
%ADD11C,0.120000*%
%TD*%
G04 APERTURE END LIST*
D10*
X95000000Y-44500000D02*
X184000000Y-44500000D01*
X184000000Y-140000000D01*
X95000000Y-140000000D01*
X95000000Y-44500000D01*
%TO.C,D15*%
D11*
X146615625Y-134750000D02*
X146615625Y-134049647D01*
X146615625Y-134750000D02*
X146615625Y-135450353D01*
X148315625Y-133250000D02*
X147415272Y-133250000D01*
X148315625Y-133250000D02*
X149215978Y-133250000D01*
X148315625Y-136250000D02*
X147415272Y-136250000D01*
X148315625Y-136250000D02*
X149215978Y-136250000D01*
X150015625Y-134750000D02*
X150015625Y-134049647D01*
X150015625Y-134750000D02*
X150015625Y-135450353D01*
X146571691Y-133893345D02*
G75*
G02*
X146615625Y-134049647I-256065J-156301D01*
G01*
X146571691Y-133893345D02*
G75*
G02*
X147258970Y-133206066I426776J260503D01*
G01*
X146615625Y-135450353D02*
G75*
G02*
X146571691Y-135606655I-299999J-1D01*
G01*
X147258970Y-136293934D02*
G75*
G02*
X146571691Y-135606655I-260503J426776D01*
G01*
X147258970Y-136293934D02*
G75*
G02*
X147415272Y-136250000I156301J-256065D01*
G01*
X147415272Y-133250000D02*
G75*
G02*
X147258970Y-133206066I-1J299999D01*
G01*
X149215978Y-136250000D02*
G75*
G02*
X149372279Y-136293935I-3J-300000D01*
G01*
X149372280Y-133206066D02*
G75*
G02*
X149215978Y-133250002I-156305J256066D01*
G01*
X149372280Y-133206066D02*
G75*
G02*
X150059559Y-133893345I260505J-426774D01*
G01*
X150015625Y-134049647D02*
G75*
G02*
X150059560Y-133893346I300000J-3D01*
G01*
X150059559Y-135606655D02*
G75*
G02*
X149372280Y-136293934I-426776J-260503D01*
G01*
X150059559Y-135606655D02*
G75*
G02*
X150015649Y-135450353I256066J156255D01*
G01*
%TO.C,D12*%
X117843750Y-134750000D02*
X117843750Y-134049647D01*
X117843750Y-134750000D02*
X117843750Y-135450353D01*
X119543750Y-133250000D02*
X118643397Y-133250000D01*
X119543750Y-133250000D02*
X120444103Y-133250000D01*
X119543750Y-136250000D02*
X118643397Y-136250000D01*
X119543750Y-136250000D02*
X120444103Y-136250000D01*
X121243750Y-134750000D02*
X121243750Y-134049647D01*
X121243750Y-134750000D02*
X121243750Y-135450353D01*
X117799816Y-133893345D02*
G75*
G02*
X117843750Y-134049647I-256065J-156301D01*
G01*
X117799816Y-133893345D02*
G75*
G02*
X118487095Y-133206066I426776J260503D01*
G01*
X117843750Y-135450353D02*
G75*
G02*
X117799816Y-135606655I-299999J-1D01*
G01*
X118487095Y-136293934D02*
G75*
G02*
X117799816Y-135606655I-260503J426776D01*
G01*
X118487095Y-136293934D02*
G75*
G02*
X118643397Y-136250000I156301J-256065D01*
G01*
X118643397Y-133250000D02*
G75*
G02*
X118487095Y-133206066I-1J299999D01*
G01*
X120444103Y-136250000D02*
G75*
G02*
X120600404Y-136293935I-3J-300000D01*
G01*
X120600405Y-133206066D02*
G75*
G02*
X120444103Y-133250002I-156305J256066D01*
G01*
X120600405Y-133206066D02*
G75*
G02*
X121287684Y-133893345I260505J-426774D01*
G01*
X121243750Y-134049647D02*
G75*
G02*
X121287685Y-133893346I300000J-3D01*
G01*
X121287684Y-135606655D02*
G75*
G02*
X120600405Y-136293934I-426776J-260503D01*
G01*
X121287684Y-135606655D02*
G75*
G02*
X121243774Y-135450353I256066J156255D01*
G01*
%TO.C,D10*%
X98662500Y-134750000D02*
X98662500Y-134049647D01*
X98662500Y-134750000D02*
X98662500Y-135450353D01*
X100362500Y-133250000D02*
X99462147Y-133250000D01*
X100362500Y-133250000D02*
X101262853Y-133250000D01*
X100362500Y-136250000D02*
X99462147Y-136250000D01*
X100362500Y-136250000D02*
X101262853Y-136250000D01*
X102062500Y-134750000D02*
X102062500Y-134049647D01*
X102062500Y-134750000D02*
X102062500Y-135450353D01*
X98618566Y-133893345D02*
G75*
G02*
X98662500Y-134049647I-256065J-156301D01*
G01*
X98618566Y-133893345D02*
G75*
G02*
X99305845Y-133206066I426776J260503D01*
G01*
X98662500Y-135450353D02*
G75*
G02*
X98618566Y-135606655I-299999J-1D01*
G01*
X99305845Y-136293934D02*
G75*
G02*
X98618566Y-135606655I-260503J426776D01*
G01*
X99305845Y-136293934D02*
G75*
G02*
X99462147Y-136250000I156301J-256065D01*
G01*
X99462147Y-133250000D02*
G75*
G02*
X99305845Y-133206066I-1J299999D01*
G01*
X101262853Y-136250000D02*
G75*
G02*
X101419154Y-136293935I-3J-300000D01*
G01*
X101419155Y-133206066D02*
G75*
G02*
X101262853Y-133250002I-156305J256066D01*
G01*
X101419155Y-133206066D02*
G75*
G02*
X102106434Y-133893345I260505J-426774D01*
G01*
X102062500Y-134049647D02*
G75*
G02*
X102106435Y-133893346I300000J-3D01*
G01*
X102106434Y-135606655D02*
G75*
G02*
X101419155Y-136293934I-426776J-260503D01*
G01*
X102106434Y-135606655D02*
G75*
G02*
X102062524Y-135450353I256066J156255D01*
G01*
%TO.C,D11*%
X108253125Y-134750000D02*
X108253125Y-134049647D01*
X108253125Y-134750000D02*
X108253125Y-135450353D01*
X109953125Y-133250000D02*
X109052772Y-133250000D01*
X109953125Y-133250000D02*
X110853478Y-133250000D01*
X109953125Y-136250000D02*
X109052772Y-136250000D01*
X109953125Y-136250000D02*
X110853478Y-136250000D01*
X111653125Y-134750000D02*
X111653125Y-134049647D01*
X111653125Y-134750000D02*
X111653125Y-135450353D01*
X108209191Y-133893345D02*
G75*
G02*
X108253125Y-134049647I-256065J-156301D01*
G01*
X108209191Y-133893345D02*
G75*
G02*
X108896470Y-133206066I426776J260503D01*
G01*
X108253125Y-135450353D02*
G75*
G02*
X108209191Y-135606655I-299999J-1D01*
G01*
X108896470Y-136293934D02*
G75*
G02*
X108209191Y-135606655I-260503J426776D01*
G01*
X108896470Y-136293934D02*
G75*
G02*
X109052772Y-136250000I156301J-256065D01*
G01*
X109052772Y-133250000D02*
G75*
G02*
X108896470Y-133206066I-1J299999D01*
G01*
X110853478Y-136250000D02*
G75*
G02*
X111009779Y-136293935I-3J-300000D01*
G01*
X111009780Y-133206066D02*
G75*
G02*
X110853478Y-133250002I-156305J256066D01*
G01*
X111009780Y-133206066D02*
G75*
G02*
X111697059Y-133893345I260505J-426774D01*
G01*
X111653125Y-134049647D02*
G75*
G02*
X111697060Y-133893346I300000J-3D01*
G01*
X111697059Y-135606655D02*
G75*
G02*
X111009780Y-136293934I-426776J-260503D01*
G01*
X111697059Y-135606655D02*
G75*
G02*
X111653149Y-135450353I256066J156255D01*
G01*
%TO.C,D14*%
X137025000Y-134750000D02*
X137025000Y-134049647D01*
X137025000Y-134750000D02*
X137025000Y-135450353D01*
X138725000Y-133250000D02*
X137824647Y-133250000D01*
X138725000Y-133250000D02*
X139625353Y-133250000D01*
X138725000Y-136250000D02*
X137824647Y-136250000D01*
X138725000Y-136250000D02*
X139625353Y-136250000D01*
X140425000Y-134750000D02*
X140425000Y-134049647D01*
X140425000Y-134750000D02*
X140425000Y-135450353D01*
X136981066Y-133893345D02*
G75*
G02*
X137025000Y-134049647I-256065J-156301D01*
G01*
X136981066Y-133893345D02*
G75*
G02*
X137668345Y-133206066I426776J260503D01*
G01*
X137025000Y-135450353D02*
G75*
G02*
X136981066Y-135606655I-299999J-1D01*
G01*
X137668345Y-136293934D02*
G75*
G02*
X136981066Y-135606655I-260503J426776D01*
G01*
X137668345Y-136293934D02*
G75*
G02*
X137824647Y-136250000I156301J-256065D01*
G01*
X137824647Y-133250000D02*
G75*
G02*
X137668345Y-133206066I-1J299999D01*
G01*
X139625353Y-136250000D02*
G75*
G02*
X139781654Y-136293935I-3J-300000D01*
G01*
X139781655Y-133206066D02*
G75*
G02*
X139625353Y-133250002I-156305J256066D01*
G01*
X139781655Y-133206066D02*
G75*
G02*
X140468934Y-133893345I260505J-426774D01*
G01*
X140425000Y-134049647D02*
G75*
G02*
X140468935Y-133893346I300000J-3D01*
G01*
X140468934Y-135606655D02*
G75*
G02*
X139781655Y-136293934I-426776J-260503D01*
G01*
X140468934Y-135606655D02*
G75*
G02*
X140425024Y-135450353I256066J156255D01*
G01*
%TO.C,D13*%
X127434375Y-134750000D02*
X127434375Y-134049647D01*
X127434375Y-134750000D02*
X127434375Y-135450353D01*
X129134375Y-133250000D02*
X128234022Y-133250000D01*
X129134375Y-133250000D02*
X130034728Y-133250000D01*
X129134375Y-136250000D02*
X128234022Y-136250000D01*
X129134375Y-136250000D02*
X130034728Y-136250000D01*
X130834375Y-134750000D02*
X130834375Y-134049647D01*
X130834375Y-134750000D02*
X130834375Y-135450353D01*
X127390441Y-133893345D02*
G75*
G02*
X127434375Y-134049647I-256065J-156301D01*
G01*
X127390441Y-133893345D02*
G75*
G02*
X128077720Y-133206066I426776J260503D01*
G01*
X127434375Y-135450353D02*
G75*
G02*
X127390441Y-135606655I-299999J-1D01*
G01*
X128077720Y-136293934D02*
G75*
G02*
X127390441Y-135606655I-260503J426776D01*
G01*
X128077720Y-136293934D02*
G75*
G02*
X128234022Y-136250000I156301J-256065D01*
G01*
X128234022Y-133250000D02*
G75*
G02*
X128077720Y-133206066I-1J299999D01*
G01*
X130034728Y-136250000D02*
G75*
G02*
X130191029Y-136293935I-3J-300000D01*
G01*
X130191030Y-133206066D02*
G75*
G02*
X130034728Y-133250002I-156305J256066D01*
G01*
X130191030Y-133206066D02*
G75*
G02*
X130878309Y-133893345I260505J-426774D01*
G01*
X130834375Y-134049647D02*
G75*
G02*
X130878310Y-133893346I300000J-3D01*
G01*
X130878309Y-135606655D02*
G75*
G02*
X130191030Y-136293934I-426776J-260503D01*
G01*
X130878309Y-135606655D02*
G75*
G02*
X130834399Y-135450353I256066J156255D01*
G01*
%TO.C,D18*%
X156206250Y-134750000D02*
X156206250Y-134049647D01*
X156206250Y-134750000D02*
X156206250Y-135450353D01*
X157906250Y-133250000D02*
X157005897Y-133250000D01*
X157906250Y-133250000D02*
X158806603Y-133250000D01*
X157906250Y-136250000D02*
X157005897Y-136250000D01*
X157906250Y-136250000D02*
X158806603Y-136250000D01*
X159606250Y-134750000D02*
X159606250Y-134049647D01*
X159606250Y-134750000D02*
X159606250Y-135450353D01*
X156162316Y-133893345D02*
G75*
G02*
X156206250Y-134049647I-256065J-156301D01*
G01*
X156162316Y-133893345D02*
G75*
G02*
X156849595Y-133206066I426776J260503D01*
G01*
X156206250Y-135450353D02*
G75*
G02*
X156162316Y-135606655I-299999J-1D01*
G01*
X156849595Y-136293934D02*
G75*
G02*
X156162316Y-135606655I-260503J426776D01*
G01*
X156849595Y-136293934D02*
G75*
G02*
X157005897Y-136250000I156301J-256065D01*
G01*
X157005897Y-133250000D02*
G75*
G02*
X156849595Y-133206066I-1J299999D01*
G01*
X158806603Y-136250000D02*
G75*
G02*
X158962904Y-136293935I-3J-300000D01*
G01*
X158962905Y-133206066D02*
G75*
G02*
X158806603Y-133250002I-156305J256066D01*
G01*
X158962905Y-133206066D02*
G75*
G02*
X159650184Y-133893345I260505J-426774D01*
G01*
X159606250Y-134049647D02*
G75*
G02*
X159650185Y-133893346I300000J-3D01*
G01*
X159650184Y-135606655D02*
G75*
G02*
X158962905Y-136293934I-426776J-260503D01*
G01*
X159650184Y-135606655D02*
G75*
G02*
X159606274Y-135450353I256066J156255D01*
G01*
%TO.C,D16*%
X175387500Y-134750000D02*
X175387500Y-134049647D01*
X175387500Y-134750000D02*
X175387500Y-135450353D01*
X177087500Y-133250000D02*
X176187147Y-133250000D01*
X177087500Y-133250000D02*
X177987853Y-133250000D01*
X177087500Y-136250000D02*
X176187147Y-136250000D01*
X177087500Y-136250000D02*
X177987853Y-136250000D01*
X178787500Y-134750000D02*
X178787500Y-134049647D01*
X178787500Y-134750000D02*
X178787500Y-135450353D01*
X175343566Y-133893345D02*
G75*
G02*
X175387500Y-134049647I-256065J-156301D01*
G01*
X175343566Y-133893345D02*
G75*
G02*
X176030845Y-133206066I426776J260503D01*
G01*
X175387500Y-135450353D02*
G75*
G02*
X175343566Y-135606655I-299999J-1D01*
G01*
X176030845Y-136293934D02*
G75*
G02*
X175343566Y-135606655I-260503J426776D01*
G01*
X176030845Y-136293934D02*
G75*
G02*
X176187147Y-136250000I156301J-256065D01*
G01*
X176187147Y-133250000D02*
G75*
G02*
X176030845Y-133206066I-1J299999D01*
G01*
X177987853Y-136250000D02*
G75*
G02*
X178144154Y-136293935I-3J-300000D01*
G01*
X178144155Y-133206066D02*
G75*
G02*
X177987853Y-133250002I-156305J256066D01*
G01*
X178144155Y-133206066D02*
G75*
G02*
X178831434Y-133893345I260505J-426774D01*
G01*
X178787500Y-134049647D02*
G75*
G02*
X178831435Y-133893346I300000J-3D01*
G01*
X178831434Y-135606655D02*
G75*
G02*
X178144155Y-136293934I-426776J-260503D01*
G01*
X178831434Y-135606655D02*
G75*
G02*
X178787524Y-135450353I256066J156255D01*
G01*
%TO.C,D17*%
X165796875Y-134750000D02*
X165796875Y-134049647D01*
X165796875Y-134750000D02*
X165796875Y-135450353D01*
X167496875Y-133250000D02*
X166596522Y-133250000D01*
X167496875Y-133250000D02*
X168397228Y-133250000D01*
X167496875Y-136250000D02*
X166596522Y-136250000D01*
X167496875Y-136250000D02*
X168397228Y-136250000D01*
X169196875Y-134750000D02*
X169196875Y-134049647D01*
X169196875Y-134750000D02*
X169196875Y-135450353D01*
X165752941Y-133893345D02*
G75*
G02*
X165796875Y-134049647I-256065J-156301D01*
G01*
X165752941Y-133893345D02*
G75*
G02*
X166440220Y-133206066I426776J260503D01*
G01*
X165796875Y-135450353D02*
G75*
G02*
X165752941Y-135606655I-299999J-1D01*
G01*
X166440220Y-136293934D02*
G75*
G02*
X165752941Y-135606655I-260503J426776D01*
G01*
X166440220Y-136293934D02*
G75*
G02*
X166596522Y-136250000I156301J-256065D01*
G01*
X166596522Y-133250000D02*
G75*
G02*
X166440220Y-133206066I-1J299999D01*
G01*
X168397228Y-136250000D02*
G75*
G02*
X168553529Y-136293935I-3J-300000D01*
G01*
X168553530Y-133206066D02*
G75*
G02*
X168397228Y-133250002I-156305J256066D01*
G01*
X168553530Y-133206066D02*
G75*
G02*
X169240809Y-133893345I260505J-426774D01*
G01*
X169196875Y-134049647D02*
G75*
G02*
X169240810Y-133893346I300000J-3D01*
G01*
X169240809Y-135606655D02*
G75*
G02*
X168553530Y-136293934I-426776J-260503D01*
G01*
X169240809Y-135606655D02*
G75*
G02*
X169196899Y-135450353I256066J156255D01*
G01*
%TD*%
M02*
