%TF.GenerationSoftware,KiCad,Pcbnew,10.0.4*%
%TF.CreationDate,2026-07-08T14:28:45+02:00*%
%TF.ProjectId,hack pad pcb,6861636b-2070-4616-9420-7063622e6b69,rev?*%
%TF.SameCoordinates,Original*%
%TF.FileFunction,Legend,Bot*%
%TF.FilePolarity,Positive*%
%FSLAX46Y46*%
G04 Gerber Fmt 4.6, Leading zero omitted, Abs format (unit mm)*
G04 Created by KiCad (PCBNEW 10.0.4) date 2026-07-08 14:28:45*
%MOMM*%
%LPD*%
G01*
G04 APERTURE LIST*
%ADD10C,0.101600*%
%ADD11C,0.150000*%
%ADD12C,0.127000*%
%ADD13C,0.120000*%
%ADD14C,0.254000*%
%ADD15C,0.025400*%
G04 APERTURE END LIST*
D10*
X114302333Y-63976985D02*
X114302333Y-64696652D01*
X114302333Y-64696652D02*
X114260000Y-64781318D01*
X114260000Y-64781318D02*
X114217666Y-64823652D01*
X114217666Y-64823652D02*
X114133000Y-64865985D01*
X114133000Y-64865985D02*
X113963666Y-64865985D01*
X113963666Y-64865985D02*
X113879000Y-64823652D01*
X113879000Y-64823652D02*
X113836666Y-64781318D01*
X113836666Y-64781318D02*
X113794333Y-64696652D01*
X113794333Y-64696652D02*
X113794333Y-63976985D01*
X112905333Y-64865985D02*
X113413333Y-64865985D01*
X113159333Y-64865985D02*
X113159333Y-63976985D01*
X113159333Y-63976985D02*
X113244000Y-64103985D01*
X113244000Y-64103985D02*
X113328667Y-64188652D01*
X113328667Y-64188652D02*
X113413333Y-64230985D01*
D11*
X118386904Y-60827200D02*
X118244047Y-60874819D01*
X118244047Y-60874819D02*
X118005952Y-60874819D01*
X118005952Y-60874819D02*
X117910714Y-60827200D01*
X117910714Y-60827200D02*
X117863095Y-60779580D01*
X117863095Y-60779580D02*
X117815476Y-60684342D01*
X117815476Y-60684342D02*
X117815476Y-60589104D01*
X117815476Y-60589104D02*
X117863095Y-60493866D01*
X117863095Y-60493866D02*
X117910714Y-60446247D01*
X117910714Y-60446247D02*
X118005952Y-60398628D01*
X118005952Y-60398628D02*
X118196428Y-60351009D01*
X118196428Y-60351009D02*
X118291666Y-60303390D01*
X118291666Y-60303390D02*
X118339285Y-60255771D01*
X118339285Y-60255771D02*
X118386904Y-60160533D01*
X118386904Y-60160533D02*
X118386904Y-60065295D01*
X118386904Y-60065295D02*
X118339285Y-59970057D01*
X118339285Y-59970057D02*
X118291666Y-59922438D01*
X118291666Y-59922438D02*
X118196428Y-59874819D01*
X118196428Y-59874819D02*
X117958333Y-59874819D01*
X117958333Y-59874819D02*
X117815476Y-59922438D01*
X117005952Y-60827200D02*
X117101190Y-60874819D01*
X117101190Y-60874819D02*
X117291666Y-60874819D01*
X117291666Y-60874819D02*
X117386904Y-60827200D01*
X117386904Y-60827200D02*
X117434523Y-60731961D01*
X117434523Y-60731961D02*
X117434523Y-60351009D01*
X117434523Y-60351009D02*
X117386904Y-60255771D01*
X117386904Y-60255771D02*
X117291666Y-60208152D01*
X117291666Y-60208152D02*
X117101190Y-60208152D01*
X117101190Y-60208152D02*
X117005952Y-60255771D01*
X117005952Y-60255771D02*
X116958333Y-60351009D01*
X116958333Y-60351009D02*
X116958333Y-60446247D01*
X116958333Y-60446247D02*
X117434523Y-60541485D01*
X116148809Y-60827200D02*
X116244047Y-60874819D01*
X116244047Y-60874819D02*
X116434523Y-60874819D01*
X116434523Y-60874819D02*
X116529761Y-60827200D01*
X116529761Y-60827200D02*
X116577380Y-60731961D01*
X116577380Y-60731961D02*
X116577380Y-60351009D01*
X116577380Y-60351009D02*
X116529761Y-60255771D01*
X116529761Y-60255771D02*
X116434523Y-60208152D01*
X116434523Y-60208152D02*
X116244047Y-60208152D01*
X116244047Y-60208152D02*
X116148809Y-60255771D01*
X116148809Y-60255771D02*
X116101190Y-60351009D01*
X116101190Y-60351009D02*
X116101190Y-60446247D01*
X116101190Y-60446247D02*
X116577380Y-60541485D01*
X115291666Y-60827200D02*
X115386904Y-60874819D01*
X115386904Y-60874819D02*
X115577380Y-60874819D01*
X115577380Y-60874819D02*
X115672618Y-60827200D01*
X115672618Y-60827200D02*
X115720237Y-60731961D01*
X115720237Y-60731961D02*
X115720237Y-60351009D01*
X115720237Y-60351009D02*
X115672618Y-60255771D01*
X115672618Y-60255771D02*
X115577380Y-60208152D01*
X115577380Y-60208152D02*
X115386904Y-60208152D01*
X115386904Y-60208152D02*
X115291666Y-60255771D01*
X115291666Y-60255771D02*
X115244047Y-60351009D01*
X115244047Y-60351009D02*
X115244047Y-60446247D01*
X115244047Y-60446247D02*
X115720237Y-60541485D01*
X114386904Y-60874819D02*
X114386904Y-59874819D01*
X114386904Y-60827200D02*
X114482142Y-60874819D01*
X114482142Y-60874819D02*
X114672618Y-60874819D01*
X114672618Y-60874819D02*
X114767856Y-60827200D01*
X114767856Y-60827200D02*
X114815475Y-60779580D01*
X114815475Y-60779580D02*
X114863094Y-60684342D01*
X114863094Y-60684342D02*
X114863094Y-60398628D01*
X114863094Y-60398628D02*
X114815475Y-60303390D01*
X114815475Y-60303390D02*
X114767856Y-60255771D01*
X114767856Y-60255771D02*
X114672618Y-60208152D01*
X114672618Y-60208152D02*
X114482142Y-60208152D01*
X114482142Y-60208152D02*
X114386904Y-60255771D01*
X113196427Y-60827200D02*
X113053570Y-60874819D01*
X113053570Y-60874819D02*
X112815475Y-60874819D01*
X112815475Y-60874819D02*
X112720237Y-60827200D01*
X112720237Y-60827200D02*
X112672618Y-60779580D01*
X112672618Y-60779580D02*
X112624999Y-60684342D01*
X112624999Y-60684342D02*
X112624999Y-60589104D01*
X112624999Y-60589104D02*
X112672618Y-60493866D01*
X112672618Y-60493866D02*
X112720237Y-60446247D01*
X112720237Y-60446247D02*
X112815475Y-60398628D01*
X112815475Y-60398628D02*
X113005951Y-60351009D01*
X113005951Y-60351009D02*
X113101189Y-60303390D01*
X113101189Y-60303390D02*
X113148808Y-60255771D01*
X113148808Y-60255771D02*
X113196427Y-60160533D01*
X113196427Y-60160533D02*
X113196427Y-60065295D01*
X113196427Y-60065295D02*
X113148808Y-59970057D01*
X113148808Y-59970057D02*
X113101189Y-59922438D01*
X113101189Y-59922438D02*
X113005951Y-59874819D01*
X113005951Y-59874819D02*
X112767856Y-59874819D01*
X112767856Y-59874819D02*
X112624999Y-59922438D01*
X112339284Y-60208152D02*
X111958332Y-60208152D01*
X112196427Y-59874819D02*
X112196427Y-60731961D01*
X112196427Y-60731961D02*
X112148808Y-60827200D01*
X112148808Y-60827200D02*
X112053570Y-60874819D01*
X112053570Y-60874819D02*
X111958332Y-60874819D01*
X111196427Y-60208152D02*
X111196427Y-60874819D01*
X111624998Y-60208152D02*
X111624998Y-60731961D01*
X111624998Y-60731961D02*
X111577379Y-60827200D01*
X111577379Y-60827200D02*
X111482141Y-60874819D01*
X111482141Y-60874819D02*
X111339284Y-60874819D01*
X111339284Y-60874819D02*
X111244046Y-60827200D01*
X111244046Y-60827200D02*
X111196427Y-60779580D01*
X110291665Y-60874819D02*
X110291665Y-59874819D01*
X110291665Y-60827200D02*
X110386903Y-60874819D01*
X110386903Y-60874819D02*
X110577379Y-60874819D01*
X110577379Y-60874819D02*
X110672617Y-60827200D01*
X110672617Y-60827200D02*
X110720236Y-60779580D01*
X110720236Y-60779580D02*
X110767855Y-60684342D01*
X110767855Y-60684342D02*
X110767855Y-60398628D01*
X110767855Y-60398628D02*
X110720236Y-60303390D01*
X110720236Y-60303390D02*
X110672617Y-60255771D01*
X110672617Y-60255771D02*
X110577379Y-60208152D01*
X110577379Y-60208152D02*
X110386903Y-60208152D01*
X110386903Y-60208152D02*
X110291665Y-60255771D01*
X109815474Y-60874819D02*
X109815474Y-60208152D01*
X109815474Y-59874819D02*
X109863093Y-59922438D01*
X109863093Y-59922438D02*
X109815474Y-59970057D01*
X109815474Y-59970057D02*
X109767855Y-59922438D01*
X109767855Y-59922438D02*
X109815474Y-59874819D01*
X109815474Y-59874819D02*
X109815474Y-59970057D01*
X109196427Y-60874819D02*
X109291665Y-60827200D01*
X109291665Y-60827200D02*
X109339284Y-60779580D01*
X109339284Y-60779580D02*
X109386903Y-60684342D01*
X109386903Y-60684342D02*
X109386903Y-60398628D01*
X109386903Y-60398628D02*
X109339284Y-60303390D01*
X109339284Y-60303390D02*
X109291665Y-60255771D01*
X109291665Y-60255771D02*
X109196427Y-60208152D01*
X109196427Y-60208152D02*
X109053570Y-60208152D01*
X109053570Y-60208152D02*
X108958332Y-60255771D01*
X108958332Y-60255771D02*
X108910713Y-60303390D01*
X108910713Y-60303390D02*
X108863094Y-60398628D01*
X108863094Y-60398628D02*
X108863094Y-60684342D01*
X108863094Y-60684342D02*
X108910713Y-60779580D01*
X108910713Y-60779580D02*
X108958332Y-60827200D01*
X108958332Y-60827200D02*
X109053570Y-60874819D01*
X109053570Y-60874819D02*
X109196427Y-60874819D01*
X115148808Y-61874819D02*
X114482142Y-62874819D01*
X114482142Y-61874819D02*
X115148808Y-62874819D01*
X114101189Y-62874819D02*
X114101189Y-61874819D01*
X113672618Y-62589104D02*
X113196428Y-62589104D01*
X113767856Y-62874819D02*
X113434523Y-61874819D01*
X113434523Y-61874819D02*
X113101190Y-62874819D01*
X112577380Y-61874819D02*
X112386904Y-61874819D01*
X112386904Y-61874819D02*
X112291666Y-61922438D01*
X112291666Y-61922438D02*
X112196428Y-62017676D01*
X112196428Y-62017676D02*
X112148809Y-62208152D01*
X112148809Y-62208152D02*
X112148809Y-62541485D01*
X112148809Y-62541485D02*
X112196428Y-62731961D01*
X112196428Y-62731961D02*
X112291666Y-62827200D01*
X112291666Y-62827200D02*
X112386904Y-62874819D01*
X112386904Y-62874819D02*
X112577380Y-62874819D01*
X112577380Y-62874819D02*
X112672618Y-62827200D01*
X112672618Y-62827200D02*
X112767856Y-62731961D01*
X112767856Y-62731961D02*
X112815475Y-62541485D01*
X112815475Y-62541485D02*
X112815475Y-62208152D01*
X112815475Y-62208152D02*
X112767856Y-62017676D01*
X112767856Y-62017676D02*
X112672618Y-61922438D01*
X112672618Y-61922438D02*
X112577380Y-61874819D01*
%TO.C,U1*%
D12*
X104975000Y-70420000D02*
X104975000Y-53420000D01*
X106975000Y-51420910D02*
X120775000Y-51420910D01*
X109375000Y-49995970D02*
X109375000Y-57349270D01*
X109375000Y-57349270D02*
X118375000Y-57349270D01*
X118375000Y-49995970D02*
X109375000Y-49995970D01*
X118375000Y-57349270D02*
X118375000Y-49995970D01*
X120775000Y-72420000D02*
X106975000Y-72420000D01*
X122775000Y-53420000D02*
X122775000Y-70420000D01*
D13*
X104975000Y-53420000D02*
G75*
G02*
X106975000Y-51420000I2044610J-44610D01*
G01*
X106975000Y-72420000D02*
G75*
G02*
X104975000Y-70420000I0J2000000D01*
G01*
X120775000Y-51420000D02*
G75*
G02*
X122775000Y-53420000I-44612J-2044612D01*
G01*
X122775000Y-70420000D02*
G75*
G02*
X120775000Y-72420000I-2044857J44857D01*
G01*
D14*
X125002000Y-53120000D02*
G75*
G02*
X124748000Y-53120000I-127000J0D01*
G01*
X124748000Y-53120000D02*
G75*
G02*
X125002000Y-53120000I127000J0D01*
G01*
D15*
X122762715Y-53358295D02*
X122759667Y-53309527D01*
X122755603Y-53260506D01*
X122762715Y-53358295D01*
X104985508Y-70441574D02*
X104987287Y-70490850D01*
X104990335Y-70539618D01*
X104994399Y-70588639D01*
X104999732Y-70637407D01*
X105006336Y-70686175D01*
X105013956Y-70734690D01*
X105022847Y-70782950D01*
X105032752Y-70830955D01*
X104985508Y-70441574D01*
%TD*%
M02*
