%TF.GenerationSoftware,KiCad,Pcbnew,10.0.4*%
%TF.CreationDate,2026-07-08T14:28:45+02:00*%
%TF.ProjectId,hack pad pcb,6861636b-2070-4616-9420-7063622e6b69,rev?*%
%TF.SameCoordinates,Original*%
%TF.FileFunction,Legend,Top*%
%TF.FilePolarity,Positive*%
%FSLAX46Y46*%
G04 Gerber Fmt 4.6, Leading zero omitted, Abs format (unit mm)*
G04 Created by KiCad (PCBNEW 10.0.4) date 2026-07-08 14:28:45*
%MOMM*%
%LPD*%
G01*
G04 APERTURE LIST*
%ADD10C,0.150000*%
%ADD11C,0.120000*%
G04 APERTURE END LIST*
D10*
X134166667Y-111033200D02*
X134309524Y-111080819D01*
X134309524Y-111080819D02*
X134547619Y-111080819D01*
X134547619Y-111080819D02*
X134642857Y-111033200D01*
X134642857Y-111033200D02*
X134690476Y-110985580D01*
X134690476Y-110985580D02*
X134738095Y-110890342D01*
X134738095Y-110890342D02*
X134738095Y-110795104D01*
X134738095Y-110795104D02*
X134690476Y-110699866D01*
X134690476Y-110699866D02*
X134642857Y-110652247D01*
X134642857Y-110652247D02*
X134547619Y-110604628D01*
X134547619Y-110604628D02*
X134357143Y-110557009D01*
X134357143Y-110557009D02*
X134261905Y-110509390D01*
X134261905Y-110509390D02*
X134214286Y-110461771D01*
X134214286Y-110461771D02*
X134166667Y-110366533D01*
X134166667Y-110366533D02*
X134166667Y-110271295D01*
X134166667Y-110271295D02*
X134214286Y-110176057D01*
X134214286Y-110176057D02*
X134261905Y-110128438D01*
X134261905Y-110128438D02*
X134357143Y-110080819D01*
X134357143Y-110080819D02*
X134595238Y-110080819D01*
X134595238Y-110080819D02*
X134738095Y-110128438D01*
X135071429Y-110080819D02*
X135309524Y-111080819D01*
X135309524Y-111080819D02*
X135500000Y-110366533D01*
X135500000Y-110366533D02*
X135690476Y-111080819D01*
X135690476Y-111080819D02*
X135928572Y-110080819D01*
X136214286Y-110080819D02*
X136880952Y-110080819D01*
X136880952Y-110080819D02*
X136452381Y-111080819D01*
X134326667Y-72943200D02*
X134469524Y-72990819D01*
X134469524Y-72990819D02*
X134707619Y-72990819D01*
X134707619Y-72990819D02*
X134802857Y-72943200D01*
X134802857Y-72943200D02*
X134850476Y-72895580D01*
X134850476Y-72895580D02*
X134898095Y-72800342D01*
X134898095Y-72800342D02*
X134898095Y-72705104D01*
X134898095Y-72705104D02*
X134850476Y-72609866D01*
X134850476Y-72609866D02*
X134802857Y-72562247D01*
X134802857Y-72562247D02*
X134707619Y-72514628D01*
X134707619Y-72514628D02*
X134517143Y-72467009D01*
X134517143Y-72467009D02*
X134421905Y-72419390D01*
X134421905Y-72419390D02*
X134374286Y-72371771D01*
X134374286Y-72371771D02*
X134326667Y-72276533D01*
X134326667Y-72276533D02*
X134326667Y-72181295D01*
X134326667Y-72181295D02*
X134374286Y-72086057D01*
X134374286Y-72086057D02*
X134421905Y-72038438D01*
X134421905Y-72038438D02*
X134517143Y-71990819D01*
X134517143Y-71990819D02*
X134755238Y-71990819D01*
X134755238Y-71990819D02*
X134898095Y-72038438D01*
X135231429Y-71990819D02*
X135469524Y-72990819D01*
X135469524Y-72990819D02*
X135660000Y-72276533D01*
X135660000Y-72276533D02*
X135850476Y-72990819D01*
X135850476Y-72990819D02*
X136088572Y-71990819D01*
X136993333Y-72990819D02*
X136421905Y-72990819D01*
X136707619Y-72990819D02*
X136707619Y-71990819D01*
X136707619Y-71990819D02*
X136612381Y-72133676D01*
X136612381Y-72133676D02*
X136517143Y-72228914D01*
X136517143Y-72228914D02*
X136421905Y-72276533D01*
X111761905Y-92328569D02*
X111761905Y-91328569D01*
X111761905Y-91328569D02*
X112000000Y-91328569D01*
X112000000Y-91328569D02*
X112142857Y-91376188D01*
X112142857Y-91376188D02*
X112238095Y-91471426D01*
X112238095Y-91471426D02*
X112285714Y-91566664D01*
X112285714Y-91566664D02*
X112333333Y-91757140D01*
X112333333Y-91757140D02*
X112333333Y-91899997D01*
X112333333Y-91899997D02*
X112285714Y-92090473D01*
X112285714Y-92090473D02*
X112238095Y-92185711D01*
X112238095Y-92185711D02*
X112142857Y-92280950D01*
X112142857Y-92280950D02*
X112000000Y-92328569D01*
X112000000Y-92328569D02*
X111761905Y-92328569D01*
X112714286Y-91423807D02*
X112761905Y-91376188D01*
X112761905Y-91376188D02*
X112857143Y-91328569D01*
X112857143Y-91328569D02*
X113095238Y-91328569D01*
X113095238Y-91328569D02*
X113190476Y-91376188D01*
X113190476Y-91376188D02*
X113238095Y-91423807D01*
X113238095Y-91423807D02*
X113285714Y-91519045D01*
X113285714Y-91519045D02*
X113285714Y-91614283D01*
X113285714Y-91614283D02*
X113238095Y-91757140D01*
X113238095Y-91757140D02*
X112666667Y-92328569D01*
X112666667Y-92328569D02*
X113285714Y-92328569D01*
X108428095Y-92648569D02*
X108428095Y-91648569D01*
X108999523Y-92648569D02*
X108570952Y-92077140D01*
X108999523Y-91648569D02*
X108428095Y-92219997D01*
X172426667Y-92033200D02*
X172569524Y-92080819D01*
X172569524Y-92080819D02*
X172807619Y-92080819D01*
X172807619Y-92080819D02*
X172902857Y-92033200D01*
X172902857Y-92033200D02*
X172950476Y-91985580D01*
X172950476Y-91985580D02*
X172998095Y-91890342D01*
X172998095Y-91890342D02*
X172998095Y-91795104D01*
X172998095Y-91795104D02*
X172950476Y-91699866D01*
X172950476Y-91699866D02*
X172902857Y-91652247D01*
X172902857Y-91652247D02*
X172807619Y-91604628D01*
X172807619Y-91604628D02*
X172617143Y-91557009D01*
X172617143Y-91557009D02*
X172521905Y-91509390D01*
X172521905Y-91509390D02*
X172474286Y-91461771D01*
X172474286Y-91461771D02*
X172426667Y-91366533D01*
X172426667Y-91366533D02*
X172426667Y-91271295D01*
X172426667Y-91271295D02*
X172474286Y-91176057D01*
X172474286Y-91176057D02*
X172521905Y-91128438D01*
X172521905Y-91128438D02*
X172617143Y-91080819D01*
X172617143Y-91080819D02*
X172855238Y-91080819D01*
X172855238Y-91080819D02*
X172998095Y-91128438D01*
X173331429Y-91080819D02*
X173569524Y-92080819D01*
X173569524Y-92080819D02*
X173760000Y-91366533D01*
X173760000Y-91366533D02*
X173950476Y-92080819D01*
X173950476Y-92080819D02*
X174188572Y-91080819D01*
X174998095Y-91080819D02*
X174807619Y-91080819D01*
X174807619Y-91080819D02*
X174712381Y-91128438D01*
X174712381Y-91128438D02*
X174664762Y-91176057D01*
X174664762Y-91176057D02*
X174569524Y-91318914D01*
X174569524Y-91318914D02*
X174521905Y-91509390D01*
X174521905Y-91509390D02*
X174521905Y-91890342D01*
X174521905Y-91890342D02*
X174569524Y-91985580D01*
X174569524Y-91985580D02*
X174617143Y-92033200D01*
X174617143Y-92033200D02*
X174712381Y-92080819D01*
X174712381Y-92080819D02*
X174902857Y-92080819D01*
X174902857Y-92080819D02*
X174998095Y-92033200D01*
X174998095Y-92033200D02*
X175045714Y-91985580D01*
X175045714Y-91985580D02*
X175093333Y-91890342D01*
X175093333Y-91890342D02*
X175093333Y-91652247D01*
X175093333Y-91652247D02*
X175045714Y-91557009D01*
X175045714Y-91557009D02*
X174998095Y-91509390D01*
X174998095Y-91509390D02*
X174902857Y-91461771D01*
X174902857Y-91461771D02*
X174712381Y-91461771D01*
X174712381Y-91461771D02*
X174617143Y-91509390D01*
X174617143Y-91509390D02*
X174569524Y-91557009D01*
X174569524Y-91557009D02*
X174521905Y-91652247D01*
X147101339Y-132604819D02*
X147101339Y-131604819D01*
X147101339Y-131604819D02*
X147339434Y-131604819D01*
X147339434Y-131604819D02*
X147482291Y-131652438D01*
X147482291Y-131652438D02*
X147577529Y-131747676D01*
X147577529Y-131747676D02*
X147625148Y-131842914D01*
X147625148Y-131842914D02*
X147672767Y-132033390D01*
X147672767Y-132033390D02*
X147672767Y-132176247D01*
X147672767Y-132176247D02*
X147625148Y-132366723D01*
X147625148Y-132366723D02*
X147577529Y-132461961D01*
X147577529Y-132461961D02*
X147482291Y-132557200D01*
X147482291Y-132557200D02*
X147339434Y-132604819D01*
X147339434Y-132604819D02*
X147101339Y-132604819D01*
X148625148Y-132604819D02*
X148053720Y-132604819D01*
X148339434Y-132604819D02*
X148339434Y-131604819D01*
X148339434Y-131604819D02*
X148244196Y-131747676D01*
X148244196Y-131747676D02*
X148148958Y-131842914D01*
X148148958Y-131842914D02*
X148053720Y-131890533D01*
X149529910Y-131604819D02*
X149053720Y-131604819D01*
X149053720Y-131604819D02*
X149006101Y-132081009D01*
X149006101Y-132081009D02*
X149053720Y-132033390D01*
X149053720Y-132033390D02*
X149148958Y-131985771D01*
X149148958Y-131985771D02*
X149387053Y-131985771D01*
X149387053Y-131985771D02*
X149482291Y-132033390D01*
X149482291Y-132033390D02*
X149529910Y-132081009D01*
X149529910Y-132081009D02*
X149577529Y-132176247D01*
X149577529Y-132176247D02*
X149577529Y-132414342D01*
X149577529Y-132414342D02*
X149529910Y-132509580D01*
X149529910Y-132509580D02*
X149482291Y-132557200D01*
X149482291Y-132557200D02*
X149387053Y-132604819D01*
X149387053Y-132604819D02*
X149148958Y-132604819D01*
X149148958Y-132604819D02*
X149053720Y-132557200D01*
X149053720Y-132557200D02*
X149006101Y-132509580D01*
X111761905Y-101341069D02*
X111761905Y-100341069D01*
X111761905Y-100341069D02*
X112000000Y-100341069D01*
X112000000Y-100341069D02*
X112142857Y-100388688D01*
X112142857Y-100388688D02*
X112238095Y-100483926D01*
X112238095Y-100483926D02*
X112285714Y-100579164D01*
X112285714Y-100579164D02*
X112333333Y-100769640D01*
X112333333Y-100769640D02*
X112333333Y-100912497D01*
X112333333Y-100912497D02*
X112285714Y-101102973D01*
X112285714Y-101102973D02*
X112238095Y-101198211D01*
X112238095Y-101198211D02*
X112142857Y-101293450D01*
X112142857Y-101293450D02*
X112000000Y-101341069D01*
X112000000Y-101341069D02*
X111761905Y-101341069D01*
X112904762Y-100769640D02*
X112809524Y-100722021D01*
X112809524Y-100722021D02*
X112761905Y-100674402D01*
X112761905Y-100674402D02*
X112714286Y-100579164D01*
X112714286Y-100579164D02*
X112714286Y-100531545D01*
X112714286Y-100531545D02*
X112761905Y-100436307D01*
X112761905Y-100436307D02*
X112809524Y-100388688D01*
X112809524Y-100388688D02*
X112904762Y-100341069D01*
X112904762Y-100341069D02*
X113095238Y-100341069D01*
X113095238Y-100341069D02*
X113190476Y-100388688D01*
X113190476Y-100388688D02*
X113238095Y-100436307D01*
X113238095Y-100436307D02*
X113285714Y-100531545D01*
X113285714Y-100531545D02*
X113285714Y-100579164D01*
X113285714Y-100579164D02*
X113238095Y-100674402D01*
X113238095Y-100674402D02*
X113190476Y-100722021D01*
X113190476Y-100722021D02*
X113095238Y-100769640D01*
X113095238Y-100769640D02*
X112904762Y-100769640D01*
X112904762Y-100769640D02*
X112809524Y-100817259D01*
X112809524Y-100817259D02*
X112761905Y-100864878D01*
X112761905Y-100864878D02*
X112714286Y-100960116D01*
X112714286Y-100960116D02*
X112714286Y-101150592D01*
X112714286Y-101150592D02*
X112761905Y-101245830D01*
X112761905Y-101245830D02*
X112809524Y-101293450D01*
X112809524Y-101293450D02*
X112904762Y-101341069D01*
X112904762Y-101341069D02*
X113095238Y-101341069D01*
X113095238Y-101341069D02*
X113190476Y-101293450D01*
X113190476Y-101293450D02*
X113238095Y-101245830D01*
X113238095Y-101245830D02*
X113285714Y-101150592D01*
X113285714Y-101150592D02*
X113285714Y-100960116D01*
X113285714Y-100960116D02*
X113238095Y-100864878D01*
X113238095Y-100864878D02*
X113190476Y-100817259D01*
X113190476Y-100817259D02*
X113095238Y-100769640D01*
X108428095Y-101661069D02*
X108428095Y-100661069D01*
X108999523Y-101661069D02*
X108570952Y-101089640D01*
X108999523Y-100661069D02*
X108428095Y-101232497D01*
X153406667Y-91943200D02*
X153549524Y-91990819D01*
X153549524Y-91990819D02*
X153787619Y-91990819D01*
X153787619Y-91990819D02*
X153882857Y-91943200D01*
X153882857Y-91943200D02*
X153930476Y-91895580D01*
X153930476Y-91895580D02*
X153978095Y-91800342D01*
X153978095Y-91800342D02*
X153978095Y-91705104D01*
X153978095Y-91705104D02*
X153930476Y-91609866D01*
X153930476Y-91609866D02*
X153882857Y-91562247D01*
X153882857Y-91562247D02*
X153787619Y-91514628D01*
X153787619Y-91514628D02*
X153597143Y-91467009D01*
X153597143Y-91467009D02*
X153501905Y-91419390D01*
X153501905Y-91419390D02*
X153454286Y-91371771D01*
X153454286Y-91371771D02*
X153406667Y-91276533D01*
X153406667Y-91276533D02*
X153406667Y-91181295D01*
X153406667Y-91181295D02*
X153454286Y-91086057D01*
X153454286Y-91086057D02*
X153501905Y-91038438D01*
X153501905Y-91038438D02*
X153597143Y-90990819D01*
X153597143Y-90990819D02*
X153835238Y-90990819D01*
X153835238Y-90990819D02*
X153978095Y-91038438D01*
X154311429Y-90990819D02*
X154549524Y-91990819D01*
X154549524Y-91990819D02*
X154740000Y-91276533D01*
X154740000Y-91276533D02*
X154930476Y-91990819D01*
X154930476Y-91990819D02*
X155168572Y-90990819D01*
X155978095Y-91324152D02*
X155978095Y-91990819D01*
X155740000Y-90943200D02*
X155501905Y-91657485D01*
X155501905Y-91657485D02*
X156120952Y-91657485D01*
X172166667Y-111033200D02*
X172309524Y-111080819D01*
X172309524Y-111080819D02*
X172547619Y-111080819D01*
X172547619Y-111080819D02*
X172642857Y-111033200D01*
X172642857Y-111033200D02*
X172690476Y-110985580D01*
X172690476Y-110985580D02*
X172738095Y-110890342D01*
X172738095Y-110890342D02*
X172738095Y-110795104D01*
X172738095Y-110795104D02*
X172690476Y-110699866D01*
X172690476Y-110699866D02*
X172642857Y-110652247D01*
X172642857Y-110652247D02*
X172547619Y-110604628D01*
X172547619Y-110604628D02*
X172357143Y-110557009D01*
X172357143Y-110557009D02*
X172261905Y-110509390D01*
X172261905Y-110509390D02*
X172214286Y-110461771D01*
X172214286Y-110461771D02*
X172166667Y-110366533D01*
X172166667Y-110366533D02*
X172166667Y-110271295D01*
X172166667Y-110271295D02*
X172214286Y-110176057D01*
X172214286Y-110176057D02*
X172261905Y-110128438D01*
X172261905Y-110128438D02*
X172357143Y-110080819D01*
X172357143Y-110080819D02*
X172595238Y-110080819D01*
X172595238Y-110080819D02*
X172738095Y-110128438D01*
X173071429Y-110080819D02*
X173309524Y-111080819D01*
X173309524Y-111080819D02*
X173500000Y-110366533D01*
X173500000Y-110366533D02*
X173690476Y-111080819D01*
X173690476Y-111080819D02*
X173928572Y-110080819D01*
X174452381Y-110509390D02*
X174357143Y-110461771D01*
X174357143Y-110461771D02*
X174309524Y-110414152D01*
X174309524Y-110414152D02*
X174261905Y-110318914D01*
X174261905Y-110318914D02*
X174261905Y-110271295D01*
X174261905Y-110271295D02*
X174309524Y-110176057D01*
X174309524Y-110176057D02*
X174357143Y-110128438D01*
X174357143Y-110128438D02*
X174452381Y-110080819D01*
X174452381Y-110080819D02*
X174642857Y-110080819D01*
X174642857Y-110080819D02*
X174738095Y-110128438D01*
X174738095Y-110128438D02*
X174785714Y-110176057D01*
X174785714Y-110176057D02*
X174833333Y-110271295D01*
X174833333Y-110271295D02*
X174833333Y-110318914D01*
X174833333Y-110318914D02*
X174785714Y-110414152D01*
X174785714Y-110414152D02*
X174738095Y-110461771D01*
X174738095Y-110461771D02*
X174642857Y-110509390D01*
X174642857Y-110509390D02*
X174452381Y-110509390D01*
X174452381Y-110509390D02*
X174357143Y-110557009D01*
X174357143Y-110557009D02*
X174309524Y-110604628D01*
X174309524Y-110604628D02*
X174261905Y-110699866D01*
X174261905Y-110699866D02*
X174261905Y-110890342D01*
X174261905Y-110890342D02*
X174309524Y-110985580D01*
X174309524Y-110985580D02*
X174357143Y-111033200D01*
X174357143Y-111033200D02*
X174452381Y-111080819D01*
X174452381Y-111080819D02*
X174642857Y-111080819D01*
X174642857Y-111080819D02*
X174738095Y-111033200D01*
X174738095Y-111033200D02*
X174785714Y-110985580D01*
X174785714Y-110985580D02*
X174833333Y-110890342D01*
X174833333Y-110890342D02*
X174833333Y-110699866D01*
X174833333Y-110699866D02*
X174785714Y-110604628D01*
X174785714Y-110604628D02*
X174738095Y-110557009D01*
X174738095Y-110557009D02*
X174642857Y-110509390D01*
X118329464Y-132604819D02*
X118329464Y-131604819D01*
X118329464Y-131604819D02*
X118567559Y-131604819D01*
X118567559Y-131604819D02*
X118710416Y-131652438D01*
X118710416Y-131652438D02*
X118805654Y-131747676D01*
X118805654Y-131747676D02*
X118853273Y-131842914D01*
X118853273Y-131842914D02*
X118900892Y-132033390D01*
X118900892Y-132033390D02*
X118900892Y-132176247D01*
X118900892Y-132176247D02*
X118853273Y-132366723D01*
X118853273Y-132366723D02*
X118805654Y-132461961D01*
X118805654Y-132461961D02*
X118710416Y-132557200D01*
X118710416Y-132557200D02*
X118567559Y-132604819D01*
X118567559Y-132604819D02*
X118329464Y-132604819D01*
X119853273Y-132604819D02*
X119281845Y-132604819D01*
X119567559Y-132604819D02*
X119567559Y-131604819D01*
X119567559Y-131604819D02*
X119472321Y-131747676D01*
X119472321Y-131747676D02*
X119377083Y-131842914D01*
X119377083Y-131842914D02*
X119281845Y-131890533D01*
X120234226Y-131700057D02*
X120281845Y-131652438D01*
X120281845Y-131652438D02*
X120377083Y-131604819D01*
X120377083Y-131604819D02*
X120615178Y-131604819D01*
X120615178Y-131604819D02*
X120710416Y-131652438D01*
X120710416Y-131652438D02*
X120758035Y-131700057D01*
X120758035Y-131700057D02*
X120805654Y-131795295D01*
X120805654Y-131795295D02*
X120805654Y-131890533D01*
X120805654Y-131890533D02*
X120758035Y-132033390D01*
X120758035Y-132033390D02*
X120186607Y-132604819D01*
X120186607Y-132604819D02*
X120805654Y-132604819D01*
X111761905Y-86841069D02*
X111761905Y-85841069D01*
X111761905Y-85841069D02*
X112000000Y-85841069D01*
X112000000Y-85841069D02*
X112142857Y-85888688D01*
X112142857Y-85888688D02*
X112238095Y-85983926D01*
X112238095Y-85983926D02*
X112285714Y-86079164D01*
X112285714Y-86079164D02*
X112333333Y-86269640D01*
X112333333Y-86269640D02*
X112333333Y-86412497D01*
X112333333Y-86412497D02*
X112285714Y-86602973D01*
X112285714Y-86602973D02*
X112238095Y-86698211D01*
X112238095Y-86698211D02*
X112142857Y-86793450D01*
X112142857Y-86793450D02*
X112000000Y-86841069D01*
X112000000Y-86841069D02*
X111761905Y-86841069D01*
X112809524Y-86841069D02*
X113000000Y-86841069D01*
X113000000Y-86841069D02*
X113095238Y-86793450D01*
X113095238Y-86793450D02*
X113142857Y-86745830D01*
X113142857Y-86745830D02*
X113238095Y-86602973D01*
X113238095Y-86602973D02*
X113285714Y-86412497D01*
X113285714Y-86412497D02*
X113285714Y-86031545D01*
X113285714Y-86031545D02*
X113238095Y-85936307D01*
X113238095Y-85936307D02*
X113190476Y-85888688D01*
X113190476Y-85888688D02*
X113095238Y-85841069D01*
X113095238Y-85841069D02*
X112904762Y-85841069D01*
X112904762Y-85841069D02*
X112809524Y-85888688D01*
X112809524Y-85888688D02*
X112761905Y-85936307D01*
X112761905Y-85936307D02*
X112714286Y-86031545D01*
X112714286Y-86031545D02*
X112714286Y-86269640D01*
X112714286Y-86269640D02*
X112761905Y-86364878D01*
X112761905Y-86364878D02*
X112809524Y-86412497D01*
X112809524Y-86412497D02*
X112904762Y-86460116D01*
X112904762Y-86460116D02*
X113095238Y-86460116D01*
X113095238Y-86460116D02*
X113190476Y-86412497D01*
X113190476Y-86412497D02*
X113238095Y-86364878D01*
X113238095Y-86364878D02*
X113285714Y-86269640D01*
X108428095Y-87161069D02*
X108428095Y-86161069D01*
X108999523Y-87161069D02*
X108570952Y-86589640D01*
X108999523Y-86161069D02*
X108428095Y-86732497D01*
X111761905Y-115841069D02*
X111761905Y-114841069D01*
X111761905Y-114841069D02*
X112000000Y-114841069D01*
X112000000Y-114841069D02*
X112142857Y-114888688D01*
X112142857Y-114888688D02*
X112238095Y-114983926D01*
X112238095Y-114983926D02*
X112285714Y-115079164D01*
X112285714Y-115079164D02*
X112333333Y-115269640D01*
X112333333Y-115269640D02*
X112333333Y-115412497D01*
X112333333Y-115412497D02*
X112285714Y-115602973D01*
X112285714Y-115602973D02*
X112238095Y-115698211D01*
X112238095Y-115698211D02*
X112142857Y-115793450D01*
X112142857Y-115793450D02*
X112000000Y-115841069D01*
X112000000Y-115841069D02*
X111761905Y-115841069D01*
X112666667Y-114841069D02*
X113333333Y-114841069D01*
X113333333Y-114841069D02*
X112904762Y-115841069D01*
X108428095Y-116161069D02*
X108428095Y-115161069D01*
X108999523Y-116161069D02*
X108570952Y-115589640D01*
X108999523Y-115161069D02*
X108428095Y-115732497D01*
X111761905Y-77828569D02*
X111761905Y-76828569D01*
X111761905Y-76828569D02*
X112000000Y-76828569D01*
X112000000Y-76828569D02*
X112142857Y-76876188D01*
X112142857Y-76876188D02*
X112238095Y-76971426D01*
X112238095Y-76971426D02*
X112285714Y-77066664D01*
X112285714Y-77066664D02*
X112333333Y-77257140D01*
X112333333Y-77257140D02*
X112333333Y-77399997D01*
X112333333Y-77399997D02*
X112285714Y-77590473D01*
X112285714Y-77590473D02*
X112238095Y-77685711D01*
X112238095Y-77685711D02*
X112142857Y-77780950D01*
X112142857Y-77780950D02*
X112000000Y-77828569D01*
X112000000Y-77828569D02*
X111761905Y-77828569D01*
X112666667Y-76828569D02*
X113285714Y-76828569D01*
X113285714Y-76828569D02*
X112952381Y-77209521D01*
X112952381Y-77209521D02*
X113095238Y-77209521D01*
X113095238Y-77209521D02*
X113190476Y-77257140D01*
X113190476Y-77257140D02*
X113238095Y-77304759D01*
X113238095Y-77304759D02*
X113285714Y-77399997D01*
X113285714Y-77399997D02*
X113285714Y-77638092D01*
X113285714Y-77638092D02*
X113238095Y-77733330D01*
X113238095Y-77733330D02*
X113190476Y-77780950D01*
X113190476Y-77780950D02*
X113095238Y-77828569D01*
X113095238Y-77828569D02*
X112809524Y-77828569D01*
X112809524Y-77828569D02*
X112714286Y-77780950D01*
X112714286Y-77780950D02*
X112666667Y-77733330D01*
X108428095Y-78148569D02*
X108428095Y-77148569D01*
X108999523Y-78148569D02*
X108570952Y-77577140D01*
X108999523Y-77148569D02*
X108428095Y-77719997D01*
X99148214Y-132604819D02*
X99148214Y-131604819D01*
X99148214Y-131604819D02*
X99386309Y-131604819D01*
X99386309Y-131604819D02*
X99529166Y-131652438D01*
X99529166Y-131652438D02*
X99624404Y-131747676D01*
X99624404Y-131747676D02*
X99672023Y-131842914D01*
X99672023Y-131842914D02*
X99719642Y-132033390D01*
X99719642Y-132033390D02*
X99719642Y-132176247D01*
X99719642Y-132176247D02*
X99672023Y-132366723D01*
X99672023Y-132366723D02*
X99624404Y-132461961D01*
X99624404Y-132461961D02*
X99529166Y-132557200D01*
X99529166Y-132557200D02*
X99386309Y-132604819D01*
X99386309Y-132604819D02*
X99148214Y-132604819D01*
X100672023Y-132604819D02*
X100100595Y-132604819D01*
X100386309Y-132604819D02*
X100386309Y-131604819D01*
X100386309Y-131604819D02*
X100291071Y-131747676D01*
X100291071Y-131747676D02*
X100195833Y-131842914D01*
X100195833Y-131842914D02*
X100100595Y-131890533D01*
X101291071Y-131604819D02*
X101386309Y-131604819D01*
X101386309Y-131604819D02*
X101481547Y-131652438D01*
X101481547Y-131652438D02*
X101529166Y-131700057D01*
X101529166Y-131700057D02*
X101576785Y-131795295D01*
X101576785Y-131795295D02*
X101624404Y-131985771D01*
X101624404Y-131985771D02*
X101624404Y-132223866D01*
X101624404Y-132223866D02*
X101576785Y-132414342D01*
X101576785Y-132414342D02*
X101529166Y-132509580D01*
X101529166Y-132509580D02*
X101481547Y-132557200D01*
X101481547Y-132557200D02*
X101386309Y-132604819D01*
X101386309Y-132604819D02*
X101291071Y-132604819D01*
X101291071Y-132604819D02*
X101195833Y-132557200D01*
X101195833Y-132557200D02*
X101148214Y-132509580D01*
X101148214Y-132509580D02*
X101100595Y-132414342D01*
X101100595Y-132414342D02*
X101052976Y-132223866D01*
X101052976Y-132223866D02*
X101052976Y-131985771D01*
X101052976Y-131985771D02*
X101100595Y-131795295D01*
X101100595Y-131795295D02*
X101148214Y-131700057D01*
X101148214Y-131700057D02*
X101195833Y-131652438D01*
X101195833Y-131652438D02*
X101291071Y-131604819D01*
X108738839Y-132604819D02*
X108738839Y-131604819D01*
X108738839Y-131604819D02*
X108976934Y-131604819D01*
X108976934Y-131604819D02*
X109119791Y-131652438D01*
X109119791Y-131652438D02*
X109215029Y-131747676D01*
X109215029Y-131747676D02*
X109262648Y-131842914D01*
X109262648Y-131842914D02*
X109310267Y-132033390D01*
X109310267Y-132033390D02*
X109310267Y-132176247D01*
X109310267Y-132176247D02*
X109262648Y-132366723D01*
X109262648Y-132366723D02*
X109215029Y-132461961D01*
X109215029Y-132461961D02*
X109119791Y-132557200D01*
X109119791Y-132557200D02*
X108976934Y-132604819D01*
X108976934Y-132604819D02*
X108738839Y-132604819D01*
X110262648Y-132604819D02*
X109691220Y-132604819D01*
X109976934Y-132604819D02*
X109976934Y-131604819D01*
X109976934Y-131604819D02*
X109881696Y-131747676D01*
X109881696Y-131747676D02*
X109786458Y-131842914D01*
X109786458Y-131842914D02*
X109691220Y-131890533D01*
X111215029Y-132604819D02*
X110643601Y-132604819D01*
X110929315Y-132604819D02*
X110929315Y-131604819D01*
X110929315Y-131604819D02*
X110834077Y-131747676D01*
X110834077Y-131747676D02*
X110738839Y-131842914D01*
X110738839Y-131842914D02*
X110643601Y-131890533D01*
X137510714Y-132604819D02*
X137510714Y-131604819D01*
X137510714Y-131604819D02*
X137748809Y-131604819D01*
X137748809Y-131604819D02*
X137891666Y-131652438D01*
X137891666Y-131652438D02*
X137986904Y-131747676D01*
X137986904Y-131747676D02*
X138034523Y-131842914D01*
X138034523Y-131842914D02*
X138082142Y-132033390D01*
X138082142Y-132033390D02*
X138082142Y-132176247D01*
X138082142Y-132176247D02*
X138034523Y-132366723D01*
X138034523Y-132366723D02*
X137986904Y-132461961D01*
X137986904Y-132461961D02*
X137891666Y-132557200D01*
X137891666Y-132557200D02*
X137748809Y-132604819D01*
X137748809Y-132604819D02*
X137510714Y-132604819D01*
X139034523Y-132604819D02*
X138463095Y-132604819D01*
X138748809Y-132604819D02*
X138748809Y-131604819D01*
X138748809Y-131604819D02*
X138653571Y-131747676D01*
X138653571Y-131747676D02*
X138558333Y-131842914D01*
X138558333Y-131842914D02*
X138463095Y-131890533D01*
X139891666Y-131938152D02*
X139891666Y-132604819D01*
X139653571Y-131557200D02*
X139415476Y-132271485D01*
X139415476Y-132271485D02*
X140034523Y-132271485D01*
X140954819Y-61071904D02*
X141764342Y-61071904D01*
X141764342Y-61071904D02*
X141859580Y-61024285D01*
X141859580Y-61024285D02*
X141907200Y-60976666D01*
X141907200Y-60976666D02*
X141954819Y-60881428D01*
X141954819Y-60881428D02*
X141954819Y-60690952D01*
X141954819Y-60690952D02*
X141907200Y-60595714D01*
X141907200Y-60595714D02*
X141859580Y-60548095D01*
X141859580Y-60548095D02*
X141764342Y-60500476D01*
X141764342Y-60500476D02*
X140954819Y-60500476D01*
X141050057Y-60071904D02*
X141002438Y-60024285D01*
X141002438Y-60024285D02*
X140954819Y-59929047D01*
X140954819Y-59929047D02*
X140954819Y-59690952D01*
X140954819Y-59690952D02*
X141002438Y-59595714D01*
X141002438Y-59595714D02*
X141050057Y-59548095D01*
X141050057Y-59548095D02*
X141145295Y-59500476D01*
X141145295Y-59500476D02*
X141240533Y-59500476D01*
X141240533Y-59500476D02*
X141383390Y-59548095D01*
X141383390Y-59548095D02*
X141954819Y-60119523D01*
X141954819Y-60119523D02*
X141954819Y-59500476D01*
X127920089Y-132604819D02*
X127920089Y-131604819D01*
X127920089Y-131604819D02*
X128158184Y-131604819D01*
X128158184Y-131604819D02*
X128301041Y-131652438D01*
X128301041Y-131652438D02*
X128396279Y-131747676D01*
X128396279Y-131747676D02*
X128443898Y-131842914D01*
X128443898Y-131842914D02*
X128491517Y-132033390D01*
X128491517Y-132033390D02*
X128491517Y-132176247D01*
X128491517Y-132176247D02*
X128443898Y-132366723D01*
X128443898Y-132366723D02*
X128396279Y-132461961D01*
X128396279Y-132461961D02*
X128301041Y-132557200D01*
X128301041Y-132557200D02*
X128158184Y-132604819D01*
X128158184Y-132604819D02*
X127920089Y-132604819D01*
X129443898Y-132604819D02*
X128872470Y-132604819D01*
X129158184Y-132604819D02*
X129158184Y-131604819D01*
X129158184Y-131604819D02*
X129062946Y-131747676D01*
X129062946Y-131747676D02*
X128967708Y-131842914D01*
X128967708Y-131842914D02*
X128872470Y-131890533D01*
X129777232Y-131604819D02*
X130396279Y-131604819D01*
X130396279Y-131604819D02*
X130062946Y-131985771D01*
X130062946Y-131985771D02*
X130205803Y-131985771D01*
X130205803Y-131985771D02*
X130301041Y-132033390D01*
X130301041Y-132033390D02*
X130348660Y-132081009D01*
X130348660Y-132081009D02*
X130396279Y-132176247D01*
X130396279Y-132176247D02*
X130396279Y-132414342D01*
X130396279Y-132414342D02*
X130348660Y-132509580D01*
X130348660Y-132509580D02*
X130301041Y-132557200D01*
X130301041Y-132557200D02*
X130205803Y-132604819D01*
X130205803Y-132604819D02*
X129920089Y-132604819D01*
X129920089Y-132604819D02*
X129824851Y-132557200D01*
X129824851Y-132557200D02*
X129777232Y-132509580D01*
X153166667Y-111033200D02*
X153309524Y-111080819D01*
X153309524Y-111080819D02*
X153547619Y-111080819D01*
X153547619Y-111080819D02*
X153642857Y-111033200D01*
X153642857Y-111033200D02*
X153690476Y-110985580D01*
X153690476Y-110985580D02*
X153738095Y-110890342D01*
X153738095Y-110890342D02*
X153738095Y-110795104D01*
X153738095Y-110795104D02*
X153690476Y-110699866D01*
X153690476Y-110699866D02*
X153642857Y-110652247D01*
X153642857Y-110652247D02*
X153547619Y-110604628D01*
X153547619Y-110604628D02*
X153357143Y-110557009D01*
X153357143Y-110557009D02*
X153261905Y-110509390D01*
X153261905Y-110509390D02*
X153214286Y-110461771D01*
X153214286Y-110461771D02*
X153166667Y-110366533D01*
X153166667Y-110366533D02*
X153166667Y-110271295D01*
X153166667Y-110271295D02*
X153214286Y-110176057D01*
X153214286Y-110176057D02*
X153261905Y-110128438D01*
X153261905Y-110128438D02*
X153357143Y-110080819D01*
X153357143Y-110080819D02*
X153595238Y-110080819D01*
X153595238Y-110080819D02*
X153738095Y-110128438D01*
X154071429Y-110080819D02*
X154309524Y-111080819D01*
X154309524Y-111080819D02*
X154500000Y-110366533D01*
X154500000Y-110366533D02*
X154690476Y-111080819D01*
X154690476Y-111080819D02*
X154928572Y-110080819D01*
X155357143Y-111080819D02*
X155547619Y-111080819D01*
X155547619Y-111080819D02*
X155642857Y-111033200D01*
X155642857Y-111033200D02*
X155690476Y-110985580D01*
X155690476Y-110985580D02*
X155785714Y-110842723D01*
X155785714Y-110842723D02*
X155833333Y-110652247D01*
X155833333Y-110652247D02*
X155833333Y-110271295D01*
X155833333Y-110271295D02*
X155785714Y-110176057D01*
X155785714Y-110176057D02*
X155738095Y-110128438D01*
X155738095Y-110128438D02*
X155642857Y-110080819D01*
X155642857Y-110080819D02*
X155452381Y-110080819D01*
X155452381Y-110080819D02*
X155357143Y-110128438D01*
X155357143Y-110128438D02*
X155309524Y-110176057D01*
X155309524Y-110176057D02*
X155261905Y-110271295D01*
X155261905Y-110271295D02*
X155261905Y-110509390D01*
X155261905Y-110509390D02*
X155309524Y-110604628D01*
X155309524Y-110604628D02*
X155357143Y-110652247D01*
X155357143Y-110652247D02*
X155452381Y-110699866D01*
X155452381Y-110699866D02*
X155642857Y-110699866D01*
X155642857Y-110699866D02*
X155738095Y-110652247D01*
X155738095Y-110652247D02*
X155785714Y-110604628D01*
X155785714Y-110604628D02*
X155833333Y-110509390D01*
X111761905Y-106828569D02*
X111761905Y-105828569D01*
X111761905Y-105828569D02*
X112000000Y-105828569D01*
X112000000Y-105828569D02*
X112142857Y-105876188D01*
X112142857Y-105876188D02*
X112238095Y-105971426D01*
X112238095Y-105971426D02*
X112285714Y-106066664D01*
X112285714Y-106066664D02*
X112333333Y-106257140D01*
X112333333Y-106257140D02*
X112333333Y-106399997D01*
X112333333Y-106399997D02*
X112285714Y-106590473D01*
X112285714Y-106590473D02*
X112238095Y-106685711D01*
X112238095Y-106685711D02*
X112142857Y-106780950D01*
X112142857Y-106780950D02*
X112000000Y-106828569D01*
X112000000Y-106828569D02*
X111761905Y-106828569D01*
X113285714Y-106828569D02*
X112714286Y-106828569D01*
X113000000Y-106828569D02*
X113000000Y-105828569D01*
X113000000Y-105828569D02*
X112904762Y-105971426D01*
X112904762Y-105971426D02*
X112809524Y-106066664D01*
X112809524Y-106066664D02*
X112714286Y-106114283D01*
X108428095Y-107148569D02*
X108428095Y-106148569D01*
X108999523Y-107148569D02*
X108570952Y-106577140D01*
X108999523Y-106148569D02*
X108428095Y-106719997D01*
X156691964Y-132604819D02*
X156691964Y-131604819D01*
X156691964Y-131604819D02*
X156930059Y-131604819D01*
X156930059Y-131604819D02*
X157072916Y-131652438D01*
X157072916Y-131652438D02*
X157168154Y-131747676D01*
X157168154Y-131747676D02*
X157215773Y-131842914D01*
X157215773Y-131842914D02*
X157263392Y-132033390D01*
X157263392Y-132033390D02*
X157263392Y-132176247D01*
X157263392Y-132176247D02*
X157215773Y-132366723D01*
X157215773Y-132366723D02*
X157168154Y-132461961D01*
X157168154Y-132461961D02*
X157072916Y-132557200D01*
X157072916Y-132557200D02*
X156930059Y-132604819D01*
X156930059Y-132604819D02*
X156691964Y-132604819D01*
X158215773Y-132604819D02*
X157644345Y-132604819D01*
X157930059Y-132604819D02*
X157930059Y-131604819D01*
X157930059Y-131604819D02*
X157834821Y-131747676D01*
X157834821Y-131747676D02*
X157739583Y-131842914D01*
X157739583Y-131842914D02*
X157644345Y-131890533D01*
X158787202Y-132033390D02*
X158691964Y-131985771D01*
X158691964Y-131985771D02*
X158644345Y-131938152D01*
X158644345Y-131938152D02*
X158596726Y-131842914D01*
X158596726Y-131842914D02*
X158596726Y-131795295D01*
X158596726Y-131795295D02*
X158644345Y-131700057D01*
X158644345Y-131700057D02*
X158691964Y-131652438D01*
X158691964Y-131652438D02*
X158787202Y-131604819D01*
X158787202Y-131604819D02*
X158977678Y-131604819D01*
X158977678Y-131604819D02*
X159072916Y-131652438D01*
X159072916Y-131652438D02*
X159120535Y-131700057D01*
X159120535Y-131700057D02*
X159168154Y-131795295D01*
X159168154Y-131795295D02*
X159168154Y-131842914D01*
X159168154Y-131842914D02*
X159120535Y-131938152D01*
X159120535Y-131938152D02*
X159072916Y-131985771D01*
X159072916Y-131985771D02*
X158977678Y-132033390D01*
X158977678Y-132033390D02*
X158787202Y-132033390D01*
X158787202Y-132033390D02*
X158691964Y-132081009D01*
X158691964Y-132081009D02*
X158644345Y-132128628D01*
X158644345Y-132128628D02*
X158596726Y-132223866D01*
X158596726Y-132223866D02*
X158596726Y-132414342D01*
X158596726Y-132414342D02*
X158644345Y-132509580D01*
X158644345Y-132509580D02*
X158691964Y-132557200D01*
X158691964Y-132557200D02*
X158787202Y-132604819D01*
X158787202Y-132604819D02*
X158977678Y-132604819D01*
X158977678Y-132604819D02*
X159072916Y-132557200D01*
X159072916Y-132557200D02*
X159120535Y-132509580D01*
X159120535Y-132509580D02*
X159168154Y-132414342D01*
X159168154Y-132414342D02*
X159168154Y-132223866D01*
X159168154Y-132223866D02*
X159120535Y-132128628D01*
X159120535Y-132128628D02*
X159072916Y-132081009D01*
X159072916Y-132081009D02*
X158977678Y-132033390D01*
X111761905Y-96834819D02*
X111761905Y-95834819D01*
X111761905Y-95834819D02*
X112000000Y-95834819D01*
X112000000Y-95834819D02*
X112142857Y-95882438D01*
X112142857Y-95882438D02*
X112238095Y-95977676D01*
X112238095Y-95977676D02*
X112285714Y-96072914D01*
X112285714Y-96072914D02*
X112333333Y-96263390D01*
X112333333Y-96263390D02*
X112333333Y-96406247D01*
X112333333Y-96406247D02*
X112285714Y-96596723D01*
X112285714Y-96596723D02*
X112238095Y-96691961D01*
X112238095Y-96691961D02*
X112142857Y-96787200D01*
X112142857Y-96787200D02*
X112000000Y-96834819D01*
X112000000Y-96834819D02*
X111761905Y-96834819D01*
X113238095Y-95834819D02*
X112761905Y-95834819D01*
X112761905Y-95834819D02*
X112714286Y-96311009D01*
X112714286Y-96311009D02*
X112761905Y-96263390D01*
X112761905Y-96263390D02*
X112857143Y-96215771D01*
X112857143Y-96215771D02*
X113095238Y-96215771D01*
X113095238Y-96215771D02*
X113190476Y-96263390D01*
X113190476Y-96263390D02*
X113238095Y-96311009D01*
X113238095Y-96311009D02*
X113285714Y-96406247D01*
X113285714Y-96406247D02*
X113285714Y-96644342D01*
X113285714Y-96644342D02*
X113238095Y-96739580D01*
X113238095Y-96739580D02*
X113190476Y-96787200D01*
X113190476Y-96787200D02*
X113095238Y-96834819D01*
X113095238Y-96834819D02*
X112857143Y-96834819D01*
X112857143Y-96834819D02*
X112761905Y-96787200D01*
X112761905Y-96787200D02*
X112714286Y-96739580D01*
X108428095Y-97154819D02*
X108428095Y-96154819D01*
X108999523Y-97154819D02*
X108570952Y-96583390D01*
X108999523Y-96154819D02*
X108428095Y-96726247D01*
X134086667Y-92033200D02*
X134229524Y-92080819D01*
X134229524Y-92080819D02*
X134467619Y-92080819D01*
X134467619Y-92080819D02*
X134562857Y-92033200D01*
X134562857Y-92033200D02*
X134610476Y-91985580D01*
X134610476Y-91985580D02*
X134658095Y-91890342D01*
X134658095Y-91890342D02*
X134658095Y-91795104D01*
X134658095Y-91795104D02*
X134610476Y-91699866D01*
X134610476Y-91699866D02*
X134562857Y-91652247D01*
X134562857Y-91652247D02*
X134467619Y-91604628D01*
X134467619Y-91604628D02*
X134277143Y-91557009D01*
X134277143Y-91557009D02*
X134181905Y-91509390D01*
X134181905Y-91509390D02*
X134134286Y-91461771D01*
X134134286Y-91461771D02*
X134086667Y-91366533D01*
X134086667Y-91366533D02*
X134086667Y-91271295D01*
X134086667Y-91271295D02*
X134134286Y-91176057D01*
X134134286Y-91176057D02*
X134181905Y-91128438D01*
X134181905Y-91128438D02*
X134277143Y-91080819D01*
X134277143Y-91080819D02*
X134515238Y-91080819D01*
X134515238Y-91080819D02*
X134658095Y-91128438D01*
X134991429Y-91080819D02*
X135229524Y-92080819D01*
X135229524Y-92080819D02*
X135420000Y-91366533D01*
X135420000Y-91366533D02*
X135610476Y-92080819D01*
X135610476Y-92080819D02*
X135848572Y-91080819D01*
X136705714Y-91080819D02*
X136229524Y-91080819D01*
X136229524Y-91080819D02*
X136181905Y-91557009D01*
X136181905Y-91557009D02*
X136229524Y-91509390D01*
X136229524Y-91509390D02*
X136324762Y-91461771D01*
X136324762Y-91461771D02*
X136562857Y-91461771D01*
X136562857Y-91461771D02*
X136658095Y-91509390D01*
X136658095Y-91509390D02*
X136705714Y-91557009D01*
X136705714Y-91557009D02*
X136753333Y-91652247D01*
X136753333Y-91652247D02*
X136753333Y-91890342D01*
X136753333Y-91890342D02*
X136705714Y-91985580D01*
X136705714Y-91985580D02*
X136658095Y-92033200D01*
X136658095Y-92033200D02*
X136562857Y-92080819D01*
X136562857Y-92080819D02*
X136324762Y-92080819D01*
X136324762Y-92080819D02*
X136229524Y-92033200D01*
X136229524Y-92033200D02*
X136181905Y-91985580D01*
X111761905Y-82334819D02*
X111761905Y-81334819D01*
X111761905Y-81334819D02*
X112000000Y-81334819D01*
X112000000Y-81334819D02*
X112142857Y-81382438D01*
X112142857Y-81382438D02*
X112238095Y-81477676D01*
X112238095Y-81477676D02*
X112285714Y-81572914D01*
X112285714Y-81572914D02*
X112333333Y-81763390D01*
X112333333Y-81763390D02*
X112333333Y-81906247D01*
X112333333Y-81906247D02*
X112285714Y-82096723D01*
X112285714Y-82096723D02*
X112238095Y-82191961D01*
X112238095Y-82191961D02*
X112142857Y-82287200D01*
X112142857Y-82287200D02*
X112000000Y-82334819D01*
X112000000Y-82334819D02*
X111761905Y-82334819D01*
X113190476Y-81668152D02*
X113190476Y-82334819D01*
X112952381Y-81287200D02*
X112714286Y-82001485D01*
X112714286Y-82001485D02*
X113333333Y-82001485D01*
X108428095Y-82654819D02*
X108428095Y-81654819D01*
X108999523Y-82654819D02*
X108570952Y-82083390D01*
X108999523Y-81654819D02*
X108428095Y-82226247D01*
X175873214Y-132604819D02*
X175873214Y-131604819D01*
X175873214Y-131604819D02*
X176111309Y-131604819D01*
X176111309Y-131604819D02*
X176254166Y-131652438D01*
X176254166Y-131652438D02*
X176349404Y-131747676D01*
X176349404Y-131747676D02*
X176397023Y-131842914D01*
X176397023Y-131842914D02*
X176444642Y-132033390D01*
X176444642Y-132033390D02*
X176444642Y-132176247D01*
X176444642Y-132176247D02*
X176397023Y-132366723D01*
X176397023Y-132366723D02*
X176349404Y-132461961D01*
X176349404Y-132461961D02*
X176254166Y-132557200D01*
X176254166Y-132557200D02*
X176111309Y-132604819D01*
X176111309Y-132604819D02*
X175873214Y-132604819D01*
X177397023Y-132604819D02*
X176825595Y-132604819D01*
X177111309Y-132604819D02*
X177111309Y-131604819D01*
X177111309Y-131604819D02*
X177016071Y-131747676D01*
X177016071Y-131747676D02*
X176920833Y-131842914D01*
X176920833Y-131842914D02*
X176825595Y-131890533D01*
X178254166Y-131604819D02*
X178063690Y-131604819D01*
X178063690Y-131604819D02*
X177968452Y-131652438D01*
X177968452Y-131652438D02*
X177920833Y-131700057D01*
X177920833Y-131700057D02*
X177825595Y-131842914D01*
X177825595Y-131842914D02*
X177777976Y-132033390D01*
X177777976Y-132033390D02*
X177777976Y-132414342D01*
X177777976Y-132414342D02*
X177825595Y-132509580D01*
X177825595Y-132509580D02*
X177873214Y-132557200D01*
X177873214Y-132557200D02*
X177968452Y-132604819D01*
X177968452Y-132604819D02*
X178158928Y-132604819D01*
X178158928Y-132604819D02*
X178254166Y-132557200D01*
X178254166Y-132557200D02*
X178301785Y-132509580D01*
X178301785Y-132509580D02*
X178349404Y-132414342D01*
X178349404Y-132414342D02*
X178349404Y-132176247D01*
X178349404Y-132176247D02*
X178301785Y-132081009D01*
X178301785Y-132081009D02*
X178254166Y-132033390D01*
X178254166Y-132033390D02*
X178158928Y-131985771D01*
X178158928Y-131985771D02*
X177968452Y-131985771D01*
X177968452Y-131985771D02*
X177873214Y-132033390D01*
X177873214Y-132033390D02*
X177825595Y-132081009D01*
X177825595Y-132081009D02*
X177777976Y-132176247D01*
X111761905Y-111334819D02*
X111761905Y-110334819D01*
X111761905Y-110334819D02*
X112000000Y-110334819D01*
X112000000Y-110334819D02*
X112142857Y-110382438D01*
X112142857Y-110382438D02*
X112238095Y-110477676D01*
X112238095Y-110477676D02*
X112285714Y-110572914D01*
X112285714Y-110572914D02*
X112333333Y-110763390D01*
X112333333Y-110763390D02*
X112333333Y-110906247D01*
X112333333Y-110906247D02*
X112285714Y-111096723D01*
X112285714Y-111096723D02*
X112238095Y-111191961D01*
X112238095Y-111191961D02*
X112142857Y-111287200D01*
X112142857Y-111287200D02*
X112000000Y-111334819D01*
X112000000Y-111334819D02*
X111761905Y-111334819D01*
X113190476Y-110334819D02*
X113000000Y-110334819D01*
X113000000Y-110334819D02*
X112904762Y-110382438D01*
X112904762Y-110382438D02*
X112857143Y-110430057D01*
X112857143Y-110430057D02*
X112761905Y-110572914D01*
X112761905Y-110572914D02*
X112714286Y-110763390D01*
X112714286Y-110763390D02*
X112714286Y-111144342D01*
X112714286Y-111144342D02*
X112761905Y-111239580D01*
X112761905Y-111239580D02*
X112809524Y-111287200D01*
X112809524Y-111287200D02*
X112904762Y-111334819D01*
X112904762Y-111334819D02*
X113095238Y-111334819D01*
X113095238Y-111334819D02*
X113190476Y-111287200D01*
X113190476Y-111287200D02*
X113238095Y-111239580D01*
X113238095Y-111239580D02*
X113285714Y-111144342D01*
X113285714Y-111144342D02*
X113285714Y-110906247D01*
X113285714Y-110906247D02*
X113238095Y-110811009D01*
X113238095Y-110811009D02*
X113190476Y-110763390D01*
X113190476Y-110763390D02*
X113095238Y-110715771D01*
X113095238Y-110715771D02*
X112904762Y-110715771D01*
X112904762Y-110715771D02*
X112809524Y-110763390D01*
X112809524Y-110763390D02*
X112761905Y-110811009D01*
X112761905Y-110811009D02*
X112714286Y-110906247D01*
X108428095Y-111654819D02*
X108428095Y-110654819D01*
X108999523Y-111654819D02*
X108570952Y-111083390D01*
X108999523Y-110654819D02*
X108428095Y-111226247D01*
X172326667Y-72943200D02*
X172469524Y-72990819D01*
X172469524Y-72990819D02*
X172707619Y-72990819D01*
X172707619Y-72990819D02*
X172802857Y-72943200D01*
X172802857Y-72943200D02*
X172850476Y-72895580D01*
X172850476Y-72895580D02*
X172898095Y-72800342D01*
X172898095Y-72800342D02*
X172898095Y-72705104D01*
X172898095Y-72705104D02*
X172850476Y-72609866D01*
X172850476Y-72609866D02*
X172802857Y-72562247D01*
X172802857Y-72562247D02*
X172707619Y-72514628D01*
X172707619Y-72514628D02*
X172517143Y-72467009D01*
X172517143Y-72467009D02*
X172421905Y-72419390D01*
X172421905Y-72419390D02*
X172374286Y-72371771D01*
X172374286Y-72371771D02*
X172326667Y-72276533D01*
X172326667Y-72276533D02*
X172326667Y-72181295D01*
X172326667Y-72181295D02*
X172374286Y-72086057D01*
X172374286Y-72086057D02*
X172421905Y-72038438D01*
X172421905Y-72038438D02*
X172517143Y-71990819D01*
X172517143Y-71990819D02*
X172755238Y-71990819D01*
X172755238Y-71990819D02*
X172898095Y-72038438D01*
X173231429Y-71990819D02*
X173469524Y-72990819D01*
X173469524Y-72990819D02*
X173660000Y-72276533D01*
X173660000Y-72276533D02*
X173850476Y-72990819D01*
X173850476Y-72990819D02*
X174088572Y-71990819D01*
X174374286Y-71990819D02*
X174993333Y-71990819D01*
X174993333Y-71990819D02*
X174660000Y-72371771D01*
X174660000Y-72371771D02*
X174802857Y-72371771D01*
X174802857Y-72371771D02*
X174898095Y-72419390D01*
X174898095Y-72419390D02*
X174945714Y-72467009D01*
X174945714Y-72467009D02*
X174993333Y-72562247D01*
X174993333Y-72562247D02*
X174993333Y-72800342D01*
X174993333Y-72800342D02*
X174945714Y-72895580D01*
X174945714Y-72895580D02*
X174898095Y-72943200D01*
X174898095Y-72943200D02*
X174802857Y-72990819D01*
X174802857Y-72990819D02*
X174517143Y-72990819D01*
X174517143Y-72990819D02*
X174421905Y-72943200D01*
X174421905Y-72943200D02*
X174374286Y-72895580D01*
X166282589Y-132604819D02*
X166282589Y-131604819D01*
X166282589Y-131604819D02*
X166520684Y-131604819D01*
X166520684Y-131604819D02*
X166663541Y-131652438D01*
X166663541Y-131652438D02*
X166758779Y-131747676D01*
X166758779Y-131747676D02*
X166806398Y-131842914D01*
X166806398Y-131842914D02*
X166854017Y-132033390D01*
X166854017Y-132033390D02*
X166854017Y-132176247D01*
X166854017Y-132176247D02*
X166806398Y-132366723D01*
X166806398Y-132366723D02*
X166758779Y-132461961D01*
X166758779Y-132461961D02*
X166663541Y-132557200D01*
X166663541Y-132557200D02*
X166520684Y-132604819D01*
X166520684Y-132604819D02*
X166282589Y-132604819D01*
X167806398Y-132604819D02*
X167234970Y-132604819D01*
X167520684Y-132604819D02*
X167520684Y-131604819D01*
X167520684Y-131604819D02*
X167425446Y-131747676D01*
X167425446Y-131747676D02*
X167330208Y-131842914D01*
X167330208Y-131842914D02*
X167234970Y-131890533D01*
X168139732Y-131604819D02*
X168806398Y-131604819D01*
X168806398Y-131604819D02*
X168377827Y-132604819D01*
X153326667Y-72943200D02*
X153469524Y-72990819D01*
X153469524Y-72990819D02*
X153707619Y-72990819D01*
X153707619Y-72990819D02*
X153802857Y-72943200D01*
X153802857Y-72943200D02*
X153850476Y-72895580D01*
X153850476Y-72895580D02*
X153898095Y-72800342D01*
X153898095Y-72800342D02*
X153898095Y-72705104D01*
X153898095Y-72705104D02*
X153850476Y-72609866D01*
X153850476Y-72609866D02*
X153802857Y-72562247D01*
X153802857Y-72562247D02*
X153707619Y-72514628D01*
X153707619Y-72514628D02*
X153517143Y-72467009D01*
X153517143Y-72467009D02*
X153421905Y-72419390D01*
X153421905Y-72419390D02*
X153374286Y-72371771D01*
X153374286Y-72371771D02*
X153326667Y-72276533D01*
X153326667Y-72276533D02*
X153326667Y-72181295D01*
X153326667Y-72181295D02*
X153374286Y-72086057D01*
X153374286Y-72086057D02*
X153421905Y-72038438D01*
X153421905Y-72038438D02*
X153517143Y-71990819D01*
X153517143Y-71990819D02*
X153755238Y-71990819D01*
X153755238Y-71990819D02*
X153898095Y-72038438D01*
X154231429Y-71990819D02*
X154469524Y-72990819D01*
X154469524Y-72990819D02*
X154660000Y-72276533D01*
X154660000Y-72276533D02*
X154850476Y-72990819D01*
X154850476Y-72990819D02*
X155088572Y-71990819D01*
X155421905Y-72086057D02*
X155469524Y-72038438D01*
X155469524Y-72038438D02*
X155564762Y-71990819D01*
X155564762Y-71990819D02*
X155802857Y-71990819D01*
X155802857Y-71990819D02*
X155898095Y-72038438D01*
X155898095Y-72038438D02*
X155945714Y-72086057D01*
X155945714Y-72086057D02*
X155993333Y-72181295D01*
X155993333Y-72181295D02*
X155993333Y-72276533D01*
X155993333Y-72276533D02*
X155945714Y-72419390D01*
X155945714Y-72419390D02*
X155374286Y-72990819D01*
X155374286Y-72990819D02*
X155993333Y-72990819D01*
%TO.C,SW7*%
D11*
X128515000Y-111515000D02*
X142485000Y-111515000D01*
X128515000Y-125485000D02*
X128515000Y-111515000D01*
X142485000Y-111515000D02*
X142485000Y-125485000D01*
X142485000Y-125485000D02*
X128515000Y-125485000D01*
%TO.C,SW1*%
X128675000Y-73425000D02*
X142645000Y-73425000D01*
X128675000Y-87395000D02*
X128675000Y-73425000D01*
X142645000Y-73425000D02*
X142645000Y-87395000D01*
X142645000Y-87395000D02*
X128675000Y-87395000D01*
%TO.C,D2*%
X109730000Y-93993750D02*
X110380000Y-93993750D01*
X110980000Y-92873750D02*
X110980000Y-95113750D01*
X111100000Y-92873750D02*
X111100000Y-95113750D01*
X111220000Y-92873750D02*
X111220000Y-95113750D01*
X115270000Y-93993750D02*
X114620000Y-93993750D01*
X110380000Y-92873750D02*
X114620000Y-92873750D01*
X114620000Y-95113750D01*
X110380000Y-95113750D01*
X110380000Y-92873750D01*
%TO.C,SW6*%
X166775000Y-92515000D02*
X180745000Y-92515000D01*
X166775000Y-106485000D02*
X166775000Y-92515000D01*
X180745000Y-92515000D02*
X180745000Y-106485000D01*
X180745000Y-106485000D02*
X166775000Y-106485000D01*
%TO.C,D15*%
X144665625Y-132875000D02*
X151965625Y-132875000D01*
X144665625Y-135900000D02*
X144665625Y-132875000D01*
X144665625Y-135900000D02*
X145390625Y-136625000D01*
X151965625Y-132875000D02*
X151965625Y-136625000D01*
X151965625Y-136625000D02*
X145390625Y-136625000D01*
X145590625Y-136200000D02*
X145740625Y-136400000D01*
X145440625Y-136400000D01*
X145590625Y-136200000D01*
G36*
X145740625Y-136400000D02*
G01*
X145440625Y-136400000D01*
X145590625Y-136200000D01*
X145740625Y-136400000D01*
G37*
%TO.C,D8*%
X109730000Y-103006250D02*
X110380000Y-103006250D01*
X110980000Y-101886250D02*
X110980000Y-104126250D01*
X111100000Y-101886250D02*
X111100000Y-104126250D01*
X111220000Y-101886250D02*
X111220000Y-104126250D01*
X115270000Y-103006250D02*
X114620000Y-103006250D01*
X110380000Y-101886250D02*
X114620000Y-101886250D01*
X114620000Y-104126250D01*
X110380000Y-104126250D01*
X110380000Y-101886250D01*
%TO.C,SW4*%
X147755000Y-92425000D02*
X161725000Y-92425000D01*
X147755000Y-106395000D02*
X147755000Y-92425000D01*
X161725000Y-92425000D02*
X161725000Y-106395000D01*
X161725000Y-106395000D02*
X147755000Y-106395000D01*
%TO.C,SW8*%
X166515000Y-111515000D02*
X180485000Y-111515000D01*
X166515000Y-125485000D02*
X166515000Y-111515000D01*
X180485000Y-111515000D02*
X180485000Y-125485000D01*
X180485000Y-125485000D02*
X166515000Y-125485000D01*
%TO.C,D12*%
X115893750Y-132875000D02*
X123193750Y-132875000D01*
X115893750Y-135900000D02*
X115893750Y-132875000D01*
X115893750Y-135900000D02*
X116618750Y-136625000D01*
X123193750Y-132875000D02*
X123193750Y-136625000D01*
X123193750Y-136625000D02*
X116618750Y-136625000D01*
X116818750Y-136200000D02*
X116968750Y-136400000D01*
X116668750Y-136400000D01*
X116818750Y-136200000D01*
G36*
X116968750Y-136400000D02*
G01*
X116668750Y-136400000D01*
X116818750Y-136200000D01*
X116968750Y-136400000D01*
G37*
%TO.C,D9*%
X109730000Y-88506250D02*
X110380000Y-88506250D01*
X110980000Y-87386250D02*
X110980000Y-89626250D01*
X111100000Y-87386250D02*
X111100000Y-89626250D01*
X111220000Y-87386250D02*
X111220000Y-89626250D01*
X115270000Y-88506250D02*
X114620000Y-88506250D01*
X110380000Y-87386250D02*
X114620000Y-87386250D01*
X114620000Y-89626250D01*
X110380000Y-89626250D01*
X110380000Y-87386250D01*
%TO.C,D7*%
X109730000Y-117506250D02*
X110380000Y-117506250D01*
X110980000Y-116386250D02*
X110980000Y-118626250D01*
X111100000Y-116386250D02*
X111100000Y-118626250D01*
X111220000Y-116386250D02*
X111220000Y-118626250D01*
X115270000Y-117506250D02*
X114620000Y-117506250D01*
X110380000Y-116386250D02*
X114620000Y-116386250D01*
X114620000Y-118626250D01*
X110380000Y-118626250D01*
X110380000Y-116386250D01*
%TO.C,D3*%
X109730000Y-79493750D02*
X110380000Y-79493750D01*
X110980000Y-78373750D02*
X110980000Y-80613750D01*
X111100000Y-78373750D02*
X111100000Y-80613750D01*
X111220000Y-78373750D02*
X111220000Y-80613750D01*
X115270000Y-79493750D02*
X114620000Y-79493750D01*
X110380000Y-78373750D02*
X114620000Y-78373750D01*
X114620000Y-80613750D01*
X110380000Y-80613750D01*
X110380000Y-78373750D01*
%TO.C,D10*%
X96712500Y-132875000D02*
X104012500Y-132875000D01*
X96712500Y-135900000D02*
X96712500Y-132875000D01*
X96712500Y-135900000D02*
X97437500Y-136625000D01*
X104012500Y-132875000D02*
X104012500Y-136625000D01*
X104012500Y-136625000D02*
X97437500Y-136625000D01*
X97637500Y-136200000D02*
X97787500Y-136400000D01*
X97487500Y-136400000D01*
X97637500Y-136200000D01*
G36*
X97787500Y-136400000D02*
G01*
X97487500Y-136400000D01*
X97637500Y-136200000D01*
X97787500Y-136400000D01*
G37*
%TO.C,D11*%
X106303125Y-132875000D02*
X113603125Y-132875000D01*
X106303125Y-135900000D02*
X106303125Y-132875000D01*
X106303125Y-135900000D02*
X107028125Y-136625000D01*
X113603125Y-132875000D02*
X113603125Y-136625000D01*
X113603125Y-136625000D02*
X107028125Y-136625000D01*
X107228125Y-136200000D02*
X107378125Y-136400000D01*
X107078125Y-136400000D01*
X107228125Y-136200000D01*
G36*
X107378125Y-136400000D02*
G01*
X107078125Y-136400000D01*
X107228125Y-136200000D01*
X107378125Y-136400000D01*
G37*
%TO.C,D14*%
X135075000Y-132875000D02*
X142375000Y-132875000D01*
X135075000Y-135900000D02*
X135075000Y-132875000D01*
X135075000Y-135900000D02*
X135800000Y-136625000D01*
X142375000Y-132875000D02*
X142375000Y-136625000D01*
X142375000Y-136625000D02*
X135800000Y-136625000D01*
X136000000Y-136200000D02*
X136150000Y-136400000D01*
X135850000Y-136400000D01*
X136000000Y-136200000D01*
G36*
X136150000Y-136400000D02*
G01*
X135850000Y-136400000D01*
X136000000Y-136200000D01*
X136150000Y-136400000D01*
G37*
%TO.C,U2*%
X144000000Y-65690000D02*
X145380000Y-65690000D01*
X145380000Y-64310000D02*
X145380000Y-65690000D01*
X142500000Y-54500000D02*
X180500000Y-54500000D01*
X180500000Y-66500000D01*
X142500000Y-66500000D01*
X142500000Y-54500000D01*
%TO.C,D13*%
X125484375Y-132875000D02*
X132784375Y-132875000D01*
X125484375Y-135900000D02*
X125484375Y-132875000D01*
X125484375Y-135900000D02*
X126209375Y-136625000D01*
X132784375Y-132875000D02*
X132784375Y-136625000D01*
X132784375Y-136625000D02*
X126209375Y-136625000D01*
X126409375Y-136200000D02*
X126559375Y-136400000D01*
X126259375Y-136400000D01*
X126409375Y-136200000D01*
G36*
X126559375Y-136400000D02*
G01*
X126259375Y-136400000D01*
X126409375Y-136200000D01*
X126559375Y-136400000D01*
G37*
%TO.C,SW9*%
X147515000Y-111515000D02*
X161485000Y-111515000D01*
X147515000Y-125485000D02*
X147515000Y-111515000D01*
X161485000Y-111515000D02*
X161485000Y-125485000D01*
X161485000Y-125485000D02*
X147515000Y-125485000D01*
%TO.C,D1*%
X109730000Y-108493750D02*
X110380000Y-108493750D01*
X110980000Y-107373750D02*
X110980000Y-109613750D01*
X111100000Y-107373750D02*
X111100000Y-109613750D01*
X111220000Y-107373750D02*
X111220000Y-109613750D01*
X115270000Y-108493750D02*
X114620000Y-108493750D01*
X110380000Y-107373750D02*
X114620000Y-107373750D01*
X114620000Y-109613750D01*
X110380000Y-109613750D01*
X110380000Y-107373750D01*
%TO.C,D18*%
X154256250Y-132875000D02*
X161556250Y-132875000D01*
X154256250Y-135900000D02*
X154256250Y-132875000D01*
X154256250Y-135900000D02*
X154981250Y-136625000D01*
X161556250Y-132875000D02*
X161556250Y-136625000D01*
X161556250Y-136625000D02*
X154981250Y-136625000D01*
X155181250Y-136200000D02*
X155331250Y-136400000D01*
X155031250Y-136400000D01*
X155181250Y-136200000D01*
G36*
X155331250Y-136400000D02*
G01*
X155031250Y-136400000D01*
X155181250Y-136200000D01*
X155331250Y-136400000D01*
G37*
%TO.C,D5*%
X109730000Y-98500000D02*
X110380000Y-98500000D01*
X110980000Y-97380000D02*
X110980000Y-99620000D01*
X111100000Y-97380000D02*
X111100000Y-99620000D01*
X111220000Y-97380000D02*
X111220000Y-99620000D01*
X115270000Y-98500000D02*
X114620000Y-98500000D01*
X110380000Y-97380000D02*
X114620000Y-97380000D01*
X114620000Y-99620000D01*
X110380000Y-99620000D01*
X110380000Y-97380000D01*
%TO.C,SW5*%
X128435000Y-92515000D02*
X142405000Y-92515000D01*
X128435000Y-106485000D02*
X128435000Y-92515000D01*
X142405000Y-92515000D02*
X142405000Y-106485000D01*
X142405000Y-106485000D02*
X128435000Y-106485000D01*
%TO.C,D4*%
X109730000Y-84000000D02*
X110380000Y-84000000D01*
X110980000Y-82880000D02*
X110980000Y-85120000D01*
X111100000Y-82880000D02*
X111100000Y-85120000D01*
X111220000Y-82880000D02*
X111220000Y-85120000D01*
X115270000Y-84000000D02*
X114620000Y-84000000D01*
X110380000Y-82880000D02*
X114620000Y-82880000D01*
X114620000Y-85120000D01*
X110380000Y-85120000D01*
X110380000Y-82880000D01*
%TO.C,D16*%
X173437500Y-132875000D02*
X180737500Y-132875000D01*
X173437500Y-135900000D02*
X173437500Y-132875000D01*
X173437500Y-135900000D02*
X174162500Y-136625000D01*
X180737500Y-132875000D02*
X180737500Y-136625000D01*
X180737500Y-136625000D02*
X174162500Y-136625000D01*
X174362500Y-136200000D02*
X174512500Y-136400000D01*
X174212500Y-136400000D01*
X174362500Y-136200000D01*
G36*
X174512500Y-136400000D02*
G01*
X174212500Y-136400000D01*
X174362500Y-136200000D01*
X174512500Y-136400000D01*
G37*
%TO.C,D6*%
X109730000Y-113000000D02*
X110380000Y-113000000D01*
X110980000Y-111880000D02*
X110980000Y-114120000D01*
X111100000Y-111880000D02*
X111100000Y-114120000D01*
X111220000Y-111880000D02*
X111220000Y-114120000D01*
X115270000Y-113000000D02*
X114620000Y-113000000D01*
X110380000Y-111880000D02*
X114620000Y-111880000D01*
X114620000Y-114120000D01*
X110380000Y-114120000D01*
X110380000Y-111880000D01*
%TO.C,SW3*%
X166675000Y-73425000D02*
X180645000Y-73425000D01*
X166675000Y-87395000D02*
X166675000Y-73425000D01*
X180645000Y-73425000D02*
X180645000Y-87395000D01*
X180645000Y-87395000D02*
X166675000Y-87395000D01*
%TO.C,D17*%
X163846875Y-132875000D02*
X171146875Y-132875000D01*
X163846875Y-135900000D02*
X163846875Y-132875000D01*
X163846875Y-135900000D02*
X164571875Y-136625000D01*
X171146875Y-132875000D02*
X171146875Y-136625000D01*
X171146875Y-136625000D02*
X164571875Y-136625000D01*
X164771875Y-136200000D02*
X164921875Y-136400000D01*
X164621875Y-136400000D01*
X164771875Y-136200000D01*
G36*
X164921875Y-136400000D02*
G01*
X164621875Y-136400000D01*
X164771875Y-136200000D01*
X164921875Y-136400000D01*
G37*
%TO.C,SW2*%
X147675000Y-73425000D02*
X161645000Y-73425000D01*
X147675000Y-87395000D02*
X147675000Y-73425000D01*
X161645000Y-73425000D02*
X161645000Y-87395000D01*
X161645000Y-87395000D02*
X147675000Y-87395000D01*
%TD*%
M02*
