%TF.GenerationSoftware,KiCad,Pcbnew,10.0.4*%
%TF.CreationDate,2026-07-08T14:28:45+02:00*%
%TF.ProjectId,hack pad pcb,6861636b-2070-4616-9420-7063622e6b69,rev?*%
%TF.SameCoordinates,Original*%
%TF.FileFunction,Copper,L1,Top*%
%TF.FilePolarity,Positive*%
%FSLAX46Y46*%
G04 Gerber Fmt 4.6, Leading zero omitted, Abs format (unit mm)*
G04 Created by KiCad (PCBNEW 10.0.4) date 2026-07-08 14:28:45*
%MOMM*%
%LPD*%
G01*
G04 APERTURE LIST*
G04 Aperture macros list*
%AMRoundRect*
0 Rectangle with rounded corners*
0 $1 Rounding radius*
0 $2 $3 $4 $5 $6 $7 $8 $9 X,Y pos of 4 corners*
0 Add a 4 corners polygon primitive as box body*
4,1,4,$2,$3,$4,$5,$6,$7,$8,$9,$2,$3,0*
0 Add four circle primitives for the rounded corners*
1,1,$1+$1,$2,$3*
1,1,$1+$1,$4,$5*
1,1,$1+$1,$6,$7*
1,1,$1+$1,$8,$9*
0 Add four rect primitives between the rounded corners*
20,1,$1+$1,$2,$3,$4,$5,0*
20,1,$1+$1,$4,$5,$6,$7,0*
20,1,$1+$1,$6,$7,$8,$9,0*
20,1,$1+$1,$8,$9,$2,$3,0*%
G04 Aperture macros list end*
%TA.AperFunction,ComponentPad*%
%ADD10C,2.200000*%
%TD*%
%TA.AperFunction,ComponentPad*%
%ADD11RoundRect,0.250000X-0.550000X-0.550000X0.550000X-0.550000X0.550000X0.550000X-0.550000X0.550000X0*%
%TD*%
%TA.AperFunction,ComponentPad*%
%ADD12C,1.600000*%
%TD*%
%TA.AperFunction,SMDPad,CuDef*%
%ADD13RoundRect,0.205000X-0.470000X-0.205000X0.470000X-0.205000X0.470000X0.205000X-0.470000X0.205000X0*%
%TD*%
%TA.AperFunction,ComponentPad*%
%ADD14RoundRect,0.170000X0.680000X-0.680000X0.680000X0.680000X-0.680000X0.680000X-0.680000X-0.680000X0*%
%TD*%
%TA.AperFunction,ComponentPad*%
%ADD15C,1.700000*%
%TD*%
%TA.AperFunction,ComponentPad*%
%ADD16R,3.500000X1.700000*%
%TD*%
%TA.AperFunction,ComponentPad*%
%ADD17O,3.600000X1.700000*%
%TD*%
%TA.AperFunction,ComponentPad*%
%ADD18O,3.700000X1.700000*%
%TD*%
%TA.AperFunction,Conductor*%
%ADD19C,0.200000*%
%TD*%
G04 APERTURE END LIST*
D10*
%TO.P,SW7,1,1_1*%
%TO.N,Net-(D7-A)*%
X138040000Y-113420000D03*
%TO.P,SW7,2,2_2*%
%TO.N,Net-(U1-PA11_A3_D3)*%
X131690000Y-115960000D03*
%TD*%
%TO.P,SW1,1,1_1*%
%TO.N,Net-(D6-A)*%
X138200000Y-75330000D03*
%TO.P,SW1,2,2_2*%
%TO.N,Net-(U1-PA4_A1_D1)*%
X131850000Y-77870000D03*
%TD*%
D11*
%TO.P,D2,1,K_1*%
%TO.N,Net-(D2-K)*%
X108690000Y-93993750D03*
D12*
%TO.P,D2,2,A_2*%
%TO.N,Net-(D2-A)*%
X116310000Y-93993750D03*
%TD*%
D10*
%TO.P,SW6,1,1_1*%
%TO.N,Net-(D1-A)*%
X176300000Y-94420000D03*
%TO.P,SW6,2,2_2*%
%TO.N,Net-(U1-PA10_A2_D2)*%
X169950000Y-96960000D03*
%TD*%
D13*
%TO.P,D15,1,VSS_1*%
%TO.N,GND*%
X145590625Y-135500000D03*
%TO.P,D15,2,DIN_2*%
%TO.N,Net-(D14-DOUT)*%
X145590625Y-134000000D03*
%TO.P,D15,3,VDD_3*%
%TO.N,Net-(D10-VDD)*%
X151040625Y-134000000D03*
%TO.P,D15,4,DOUT_4*%
%TO.N,Net-(D15-DOUT)*%
X151040625Y-135500000D03*
%TD*%
D11*
%TO.P,D8,1,K_1*%
%TO.N,Net-(D2-K)*%
X108690000Y-103006250D03*
D12*
%TO.P,D8,2,A_2*%
%TO.N,Net-(D8-A)*%
X116310000Y-103006250D03*
%TD*%
D10*
%TO.P,SW4,1,1_1*%
%TO.N,Net-(D3-A)*%
X157280000Y-94330000D03*
%TO.P,SW4,2,2_2*%
%TO.N,Net-(U1-PA10_A2_D2)*%
X150930000Y-96870000D03*
%TD*%
%TO.P,SW8,1,1_1*%
%TO.N,Net-(D8-A)*%
X176040000Y-113420000D03*
%TO.P,SW8,2,2_2*%
%TO.N,Net-(U1-PA11_A3_D3)*%
X169690000Y-115960000D03*
%TD*%
D13*
%TO.P,D12,1,VSS_1*%
%TO.N,GND*%
X116818750Y-135500000D03*
%TO.P,D12,2,DIN_2*%
%TO.N,Net-(D11-DOUT)*%
X116818750Y-134000000D03*
%TO.P,D12,3,VDD_3*%
%TO.N,Net-(D10-VDD)*%
X122268750Y-134000000D03*
%TO.P,D12,4,DOUT_4*%
%TO.N,Net-(D12-DOUT)*%
X122268750Y-135500000D03*
%TD*%
D11*
%TO.P,D9,1,K_1*%
%TO.N,Net-(D3-K)*%
X108690000Y-88506250D03*
D12*
%TO.P,D9,2,A_2*%
%TO.N,Net-(D9-A)*%
X116310000Y-88506250D03*
%TD*%
D11*
%TO.P,D7,1,K_1*%
%TO.N,Net-(D1-K)*%
X108690000Y-117506250D03*
D12*
%TO.P,D7,2,A_2*%
%TO.N,Net-(D7-A)*%
X116310000Y-117506250D03*
%TD*%
D11*
%TO.P,D3,1,K_1*%
%TO.N,Net-(D3-K)*%
X108690000Y-79493750D03*
D12*
%TO.P,D3,2,A_2*%
%TO.N,Net-(D3-A)*%
X116310000Y-79493750D03*
%TD*%
D13*
%TO.P,D10,1,VSS_1*%
%TO.N,GND*%
X97637500Y-135500000D03*
%TO.P,D10,2,DIN_2*%
%TO.N,Net-(D10-DIN)*%
X97637500Y-134000000D03*
%TO.P,D10,3,VDD_3*%
%TO.N,Net-(D10-VDD)*%
X103087500Y-134000000D03*
%TO.P,D10,4,DOUT_4*%
%TO.N,Net-(D10-DOUT)*%
X103087500Y-135500000D03*
%TD*%
%TO.P,D11,1,VSS_1*%
%TO.N,GND*%
X107228125Y-135500000D03*
%TO.P,D11,2,DIN_2*%
%TO.N,Net-(D10-DOUT)*%
X107228125Y-134000000D03*
%TO.P,D11,3,VDD_3*%
%TO.N,Net-(D10-VDD)*%
X112678125Y-134000000D03*
%TO.P,D11,4,DOUT_4*%
%TO.N,Net-(D11-DOUT)*%
X112678125Y-135500000D03*
%TD*%
%TO.P,D14,1,VSS_1*%
%TO.N,GND*%
X136000000Y-135500000D03*
%TO.P,D14,2,DIN_2*%
%TO.N,Net-(D13-DOUT)*%
X136000000Y-134000000D03*
%TO.P,D14,3,VDD_3*%
%TO.N,Net-(D10-VDD)*%
X141450000Y-134000000D03*
%TO.P,D14,4,DOUT_4*%
%TO.N,Net-(D14-DOUT)*%
X141450000Y-135500000D03*
%TD*%
D14*
%TO.P,U2,1,GND_1*%
%TO.N,GND*%
X144000000Y-64310000D03*
D15*
%TO.P,U2,2,VCC_2*%
%TO.N,+3V3*%
X144000000Y-61770000D03*
%TO.P,U2,3,SCL_3*%
%TO.N,Net-(U1-PA9_A5_D5_SCL)*%
X144000000Y-59230000D03*
%TO.P,U2,4,SDA_4*%
%TO.N,Net-(U1-PA8_A4_D4_SDA)*%
X144000000Y-56690000D03*
%TD*%
D13*
%TO.P,D13,1,VSS_1*%
%TO.N,GND*%
X126409375Y-135500000D03*
%TO.P,D13,2,DIN_2*%
%TO.N,Net-(D12-DOUT)*%
X126409375Y-134000000D03*
%TO.P,D13,3,VDD_3*%
%TO.N,Net-(D10-VDD)*%
X131859375Y-134000000D03*
%TO.P,D13,4,DOUT_4*%
%TO.N,Net-(D13-DOUT)*%
X131859375Y-135500000D03*
%TD*%
D10*
%TO.P,SW9,1,1_1*%
%TO.N,Net-(D9-A)*%
X157040000Y-113420000D03*
%TO.P,SW9,2,2_2*%
%TO.N,Net-(U1-PA11_A3_D3)*%
X150690000Y-115960000D03*
%TD*%
D11*
%TO.P,D1,1,K_1*%
%TO.N,Net-(D1-K)*%
X108690000Y-108493750D03*
D12*
%TO.P,D1,2,A_2*%
%TO.N,Net-(D1-A)*%
X116310000Y-108493750D03*
%TD*%
D13*
%TO.P,D18,1,VSS_1*%
%TO.N,GND*%
X155181250Y-135500000D03*
%TO.P,D18,2,DIN_2*%
%TO.N,Net-(D15-DOUT)*%
X155181250Y-134000000D03*
%TO.P,D18,3,VDD_3*%
%TO.N,Net-(D10-VDD)*%
X160631250Y-134000000D03*
%TO.P,D18,4,DOUT_4*%
%TO.N,Net-(D17-DIN)*%
X160631250Y-135500000D03*
%TD*%
D11*
%TO.P,D5,1,K_1*%
%TO.N,Net-(D2-K)*%
X108690000Y-98500000D03*
D12*
%TO.P,D5,2,A_2*%
%TO.N,Net-(D5-A)*%
X116310000Y-98500000D03*
%TD*%
D10*
%TO.P,SW5,1,1_1*%
%TO.N,Net-(D2-A)*%
X137960000Y-94420000D03*
%TO.P,SW5,2,2_2*%
%TO.N,Net-(U1-PA10_A2_D2)*%
X131610000Y-96960000D03*
%TD*%
D11*
%TO.P,D4,1,K_1*%
%TO.N,Net-(D3-K)*%
X108690000Y-84000000D03*
D12*
%TO.P,D4,2,A_2*%
%TO.N,Net-(D4-A)*%
X116310000Y-84000000D03*
%TD*%
D13*
%TO.P,D16,1,VSS_1*%
%TO.N,GND*%
X174362500Y-135500000D03*
%TO.P,D16,2,DIN_2*%
%TO.N,Net-(D16-DIN)*%
X174362500Y-134000000D03*
%TO.P,D16,3,VDD_3*%
%TO.N,Net-(D10-VDD)*%
X179812500Y-134000000D03*
%TO.P,D16,4,DOUT_4*%
%TO.N,unconnected-(D16-DOUT-Pad4)*%
X179812500Y-135500000D03*
%TD*%
D11*
%TO.P,D6,1,K_1*%
%TO.N,Net-(D1-K)*%
X108690000Y-113000000D03*
D12*
%TO.P,D6,2,A_2*%
%TO.N,Net-(D6-A)*%
X116310000Y-113000000D03*
%TD*%
D10*
%TO.P,SW3,1,1_1*%
%TO.N,Net-(D4-A)*%
X176200000Y-75330000D03*
%TO.P,SW3,2,2_2*%
%TO.N,Net-(U1-PA4_A1_D1)*%
X169850000Y-77870000D03*
%TD*%
D13*
%TO.P,D17,1,VSS_1*%
%TO.N,GND*%
X164771875Y-135500000D03*
%TO.P,D17,2,DIN_2*%
%TO.N,Net-(D17-DIN)*%
X164771875Y-134000000D03*
%TO.P,D17,3,VDD_3*%
%TO.N,Net-(D10-VDD)*%
X170221875Y-134000000D03*
%TO.P,D17,4,DOUT_4*%
%TO.N,Net-(D16-DIN)*%
X170221875Y-135500000D03*
%TD*%
D10*
%TO.P,SW2,1,1_1*%
%TO.N,Net-(D5-A)*%
X157200000Y-75330000D03*
%TO.P,SW2,2,2_2*%
%TO.N,Net-(U1-PA4_A1_D1)*%
X150850000Y-77870000D03*
%TD*%
D16*
%TO.P,U1,1,PA02_A0_D0_1*%
%TO.N,unconnected-(U1-PA02_A0_D0-Pad1)*%
X122500000Y-54300000D03*
D17*
%TO.P,U1,2,PA4_A1_D1_2*%
%TO.N,Net-(U1-PA4_A1_D1)*%
X122500000Y-56840000D03*
%TO.P,U1,3,PA10_A2_D2_3*%
%TO.N,Net-(U1-PA10_A2_D2)*%
X122500000Y-59380000D03*
%TO.P,U1,4,PA11_A3_D3_4*%
%TO.N,Net-(U1-PA11_A3_D3)*%
X122500000Y-61920000D03*
%TO.P,U1,5,PA8_A4_D4_SDA_5*%
%TO.N,Net-(U1-PA8_A4_D4_SDA)*%
X122500000Y-64460000D03*
%TO.P,U1,6,PA9_A5_D5_SCL_6*%
%TO.N,Net-(U1-PA9_A5_D5_SCL)*%
X122500000Y-67000000D03*
%TO.P,U1,7,PB08_A6_D6_TX_7*%
%TO.N,Net-(D10-DIN)*%
X122500000Y-69540000D03*
%TO.P,U1,8,PB09_A7_D7_RX_8*%
%TO.N,unconnected-(U1-PB09_A7_D7_RX-Pad8)*%
X105250000Y-69540000D03*
%TO.P,U1,9,PA7_A8_D8_SCK_9*%
%TO.N,Net-(D3-K)*%
X105250000Y-67000000D03*
%TO.P,U1,10,PA5_A9_D9_MISO_10*%
%TO.N,Net-(D2-K)*%
X105250000Y-64460000D03*
D18*
%TO.P,U1,11,PA6_A10_D10_MOSI_11*%
%TO.N,Net-(D1-K)*%
X105250000Y-61920000D03*
%TO.P,U1,12,3V3_12*%
%TO.N,+3V3*%
X105250000Y-59380000D03*
%TO.P,U1,13,GND_13*%
%TO.N,GND*%
X105250000Y-56840000D03*
%TO.P,U1,14,5V_14*%
%TO.N,Net-(D10-VDD)*%
X105250000Y-54300000D03*
%TD*%
%TO.N,Net-(D7-A)*%
D19*
X120396250Y-113420000D02*
X138040000Y-113420000D01*
X116310000Y-117506250D02*
X120396250Y-113420000D01*
%TO.N,Net-(D6-A)*%
X115210000Y-111900000D02*
X115210000Y-102550615D01*
X136633402Y-82760000D02*
X138200000Y-81193402D01*
X138200000Y-81193402D02*
X138200000Y-75330000D01*
X115210000Y-102550615D02*
X135000615Y-82760000D01*
X116310000Y-113000000D02*
X115210000Y-111900000D01*
X135000615Y-82760000D02*
X136633402Y-82760000D01*
%TO.N,GND*%
X145500000Y-139000000D02*
X155000000Y-139000000D01*
X132840000Y-53150000D02*
X103773654Y-53150000D01*
X116818750Y-135500000D02*
X116818750Y-138681250D01*
X127500000Y-139000000D02*
X135500000Y-139000000D01*
X103100000Y-54776346D02*
X105163654Y-56840000D01*
X98000000Y-139000000D02*
X107500000Y-139000000D01*
X144000000Y-64310000D02*
X132840000Y-53150000D01*
X96662500Y-63337500D02*
X103160000Y-56840000D01*
X135500000Y-139000000D02*
X145500000Y-139000000D01*
X96662500Y-137662500D02*
X96662500Y-63337500D01*
X97637500Y-138637500D02*
X98000000Y-139000000D01*
X145590625Y-135500000D02*
X145590625Y-138909375D01*
X105163654Y-56840000D02*
X106250000Y-56840000D01*
X164771875Y-135500000D02*
X164771875Y-138771875D01*
X165000000Y-139000000D02*
X170862500Y-139000000D01*
X126409375Y-137909375D02*
X127500000Y-139000000D01*
X126409375Y-135500000D02*
X126409375Y-137909375D01*
X170862500Y-139000000D02*
X174362500Y-135500000D01*
X155181250Y-135500000D02*
X155181250Y-138818750D01*
X97637500Y-135500000D02*
X97637500Y-138637500D01*
X145590625Y-138909375D02*
X145500000Y-139000000D01*
X107228125Y-138728125D02*
X107500000Y-139000000D01*
X107500000Y-139000000D02*
X116500000Y-139000000D01*
X136000000Y-135500000D02*
X135500000Y-136000000D01*
X116500000Y-139000000D02*
X127500000Y-139000000D01*
X164771875Y-138771875D02*
X165000000Y-139000000D01*
X103100000Y-53823654D02*
X103100000Y-54776346D01*
X107228125Y-135500000D02*
X107228125Y-138728125D01*
X116818750Y-138681250D02*
X116500000Y-139000000D01*
X155181250Y-138818750D02*
X155000000Y-139000000D01*
X103160000Y-56840000D02*
X106250000Y-56840000D01*
X98000000Y-139000000D02*
X96662500Y-137662500D01*
X155000000Y-139000000D02*
X165000000Y-139000000D01*
X103773654Y-53150000D02*
X103100000Y-53823654D01*
X135500000Y-136000000D02*
X135500000Y-139000000D01*
%TO.N,Net-(D10-VDD)*%
X105866346Y-71500000D02*
X102000000Y-71500000D01*
X124600000Y-69063654D02*
X123926346Y-68390000D01*
X161000000Y-131000000D02*
X172000000Y-131000000D01*
X104003654Y-58000000D02*
X106716346Y-58000000D01*
X103087500Y-134000000D02*
X106087500Y-131000000D01*
X122268750Y-134000000D02*
X125000000Y-131268750D01*
X154000000Y-131000000D02*
X161000000Y-131000000D01*
X120362808Y-69140000D02*
X119002808Y-70500000D01*
X172000000Y-131000000D02*
X179000000Y-131000000D01*
X133500000Y-131000000D02*
X143000000Y-131000000D01*
X131859375Y-134000000D02*
X133500000Y-132359375D01*
X120400000Y-69063654D02*
X120400000Y-69140000D01*
X102000000Y-71500000D02*
X102000000Y-60003654D01*
X160631250Y-131368750D02*
X161000000Y-131000000D01*
X114500000Y-132178125D02*
X114500000Y-131000000D01*
X172000000Y-132221875D02*
X172000000Y-131000000D01*
X143000000Y-131000000D02*
X154000000Y-131000000D01*
X125000000Y-131000000D02*
X133500000Y-131000000D01*
X119944180Y-70690000D02*
X123926346Y-70690000D01*
X124600000Y-70016346D02*
X124600000Y-69063654D01*
X170221875Y-134000000D02*
X172000000Y-132221875D01*
X119002808Y-70500000D02*
X106866346Y-70500000D01*
X114500000Y-131000000D02*
X125000000Y-131000000D01*
X123926346Y-70690000D02*
X124600000Y-70016346D01*
X160631250Y-134000000D02*
X160631250Y-131368750D01*
X151040625Y-134000000D02*
X154000000Y-131040625D01*
X106866346Y-70500000D02*
X105866346Y-71500000D01*
X102000000Y-60003654D02*
X104003654Y-58000000D01*
X133500000Y-132359375D02*
X133500000Y-131000000D01*
X107400000Y-57316346D02*
X107400000Y-55450000D01*
X103087500Y-134000000D02*
X103087500Y-87546680D01*
X142500000Y-131500000D02*
X143000000Y-131000000D01*
X103087500Y-87546680D02*
X119944180Y-70690000D01*
X154000000Y-131040625D02*
X154000000Y-131000000D01*
X179000000Y-131000000D02*
X179812500Y-131812500D01*
X125000000Y-131268750D02*
X125000000Y-131000000D01*
X142500000Y-132950000D02*
X142500000Y-131500000D01*
X121073654Y-68390000D02*
X120400000Y-69063654D01*
X120400000Y-69140000D02*
X120362808Y-69140000D01*
X106087500Y-131000000D02*
X114500000Y-131000000D01*
X106716346Y-58000000D02*
X107400000Y-57316346D01*
X179812500Y-131812500D02*
X179812500Y-134000000D01*
X112678125Y-134000000D02*
X114500000Y-132178125D01*
X123926346Y-68390000D02*
X121073654Y-68390000D01*
X107400000Y-55450000D02*
X106250000Y-54300000D01*
X141450000Y-134000000D02*
X142500000Y-132950000D01*
%TO.N,Net-(D8-A)*%
X165626250Y-103006250D02*
X176040000Y-113420000D01*
X116310000Y-103006250D02*
X165626250Y-103006250D01*
%TO.N,Net-(D11-DOUT)*%
X115318750Y-135500000D02*
X116818750Y-134000000D01*
X112678125Y-135500000D02*
X115318750Y-135500000D01*
%TO.N,Net-(D12-DOUT)*%
X122268750Y-135500000D02*
X123794373Y-133974377D01*
X126434998Y-133974377D02*
X126409375Y-134000000D01*
X123794373Y-133974377D02*
X126434998Y-133974377D01*
%TO.N,Net-(D10-DIN)*%
X97637500Y-92430994D02*
X120528494Y-69540000D01*
X97637500Y-134000000D02*
X97637500Y-92430994D01*
X120528494Y-69540000D02*
X121500000Y-69540000D01*
%TO.N,Net-(D10-DOUT)*%
X103087500Y-135500000D02*
X105728125Y-135500000D01*
X105728125Y-135500000D02*
X107228125Y-134000000D01*
%TO.N,Net-(D13-DOUT)*%
X134500000Y-135500000D02*
X136000000Y-134000000D01*
X131859375Y-135500000D02*
X134500000Y-135500000D01*
%TO.N,+3V3*%
X145150000Y-62920000D02*
X145150000Y-65189390D01*
X109940000Y-63070000D02*
X106250000Y-59380000D01*
X145150000Y-65189390D02*
X144879390Y-65460000D01*
X144879390Y-65460000D02*
X126316346Y-65460000D01*
X123926346Y-63070000D02*
X109940000Y-63070000D01*
X144000000Y-61770000D02*
X145150000Y-62920000D01*
X126316346Y-65460000D02*
X123926346Y-63070000D01*
%TO.N,Net-(U1-PA9_A5_D5_SCL)*%
X145550000Y-60780000D02*
X145550000Y-65355076D01*
X143905076Y-67000000D02*
X121500000Y-67000000D01*
X145550000Y-65355076D02*
X143905076Y-67000000D01*
X144000000Y-59230000D02*
X145550000Y-60780000D01*
%TO.N,Net-(D14-DOUT)*%
X141450000Y-135500000D02*
X144090625Y-135500000D01*
X144090625Y-135500000D02*
X145590625Y-134000000D01*
%TO.N,Net-(D15-DOUT)*%
X153681250Y-135500000D02*
X155181250Y-134000000D01*
X151040625Y-135500000D02*
X153681250Y-135500000D01*
%TO.N,Net-(D17-DIN)*%
X163271875Y-135500000D02*
X164771875Y-134000000D01*
X160631250Y-135500000D02*
X163271875Y-135500000D01*
%TD*%
M02*
