ISO-10303-21;
HEADER;
/* Generated by software containing ST-Developer
 * from STEP Tools, Inc. (www.steptools.com) 
 */

FILE_DESCRIPTION(
/* description */ (''),
/* implementation_level */ '2;1');

FILE_NAME(
/* name */ 'onderkant.step',
/* time_stamp */ '2026-09-04T19:18:26+02:00',
/* author */ (''),
/* organization */ (''),
/* preprocessor_version */ 'ST-DEVELOPER v20.1',
/* originating_system */ 'Autodesk Translation Framework v15.8.0.0',
/* authorisation */ '');

FILE_SCHEMA (('AUTOMOTIVE_DESIGN { 1 0 10303 214 3 1 1 }'));
ENDSEC;

DATA;
#10=MECHANICAL_DESIGN_GEOMETRIC_PRESENTATION_REPRESENTATION('',(#17),#817);
#11=ITEM_DEFINED_TRANSFORMATION($,$,#497,#542);
#12=(
REPRESENTATION_RELATIONSHIP($,$,#828,#827)
REPRESENTATION_RELATIONSHIP_WITH_TRANSFORMATION(#11)
SHAPE_REPRESENTATION_RELATIONSHIP()
);
#13=CONTEXT_DEPENDENT_SHAPE_REPRESENTATION(#12,#826);
#14=NEXT_ASSEMBLY_USAGE_OCCURRENCE('onderkant:1','onderkant:1',
'onderkant:1',#830,#831,'onderkant:1');
#15=SHAPE_REPRESENTATION_RELATIONSHIP('SRR','None',#828,#16);
#16=ADVANCED_BREP_SHAPE_REPRESENTATION('',(#18),#816);
#17=STYLED_ITEM('',(#841),#18);
#18=MANIFOLD_SOLID_BREP('Body1',#483);
#19=LINE('',#691,#63);
#20=LINE('',#694,#64);
#21=LINE('',#704,#65);
#22=LINE('',#707,#66);
#23=LINE('',#717,#67);
#24=LINE('',#720,#68);
#25=LINE('',#730,#69);
#26=LINE('',#733,#70);
#27=LINE('',#738,#71);
#28=LINE('',#740,#72);
#29=LINE('',#742,#73);
#30=LINE('',#743,#74);
#31=LINE('',#746,#75);
#32=LINE('',#748,#76);
#33=LINE('',#749,#77);
#34=LINE('',#752,#78);
#35=LINE('',#754,#79);
#36=LINE('',#755,#80);
#37=LINE('',#757,#81);
#38=LINE('',#758,#82);
#39=LINE('',#762,#83);
#40=LINE('',#764,#84);
#41=LINE('',#766,#85);
#42=LINE('',#767,#86);
#43=LINE('',#770,#87);
#44=LINE('',#772,#88);
#45=LINE('',#773,#89);
#46=LINE('',#776,#90);
#47=LINE('',#778,#91);
#48=LINE('',#779,#92);
#49=LINE('',#781,#93);
#50=LINE('',#782,#94);
#51=LINE('',#787,#95);
#52=LINE('',#789,#96);
#53=LINE('',#791,#97);
#54=LINE('',#792,#98);
#55=LINE('',#795,#99);
#56=LINE('',#797,#100);
#57=LINE('',#798,#101);
#58=LINE('',#801,#102);
#59=LINE('',#802,#103);
#60=LINE('',#805,#104);
#61=LINE('',#806,#105);
#62=LINE('',#808,#106);
#63=VECTOR('',#557,1.6);
#64=VECTOR('',#560,1.4);
#65=VECTOR('',#573,1.6);
#66=VECTOR('',#576,1.4);
#67=VECTOR('',#589,1.6);
#68=VECTOR('',#592,1.4);
#69=VECTOR('',#605,2.);
#70=VECTOR('',#608,1.2645);
#71=VECTOR('',#613,10.);
#72=VECTOR('',#614,10.);
#73=VECTOR('',#615,10.);
#74=VECTOR('',#616,10.);
#75=VECTOR('',#619,10.);
#76=VECTOR('',#620,10.);
#77=VECTOR('',#621,10.);
#78=VECTOR('',#624,10.);
#79=VECTOR('',#625,10.);
#80=VECTOR('',#626,10.);
#81=VECTOR('',#629,10.);
#82=VECTOR('',#630,10.);
#83=VECTOR('',#633,10.);
#84=VECTOR('',#634,10.);
#85=VECTOR('',#635,10.);
#86=VECTOR('',#636,10.);
#87=VECTOR('',#639,10.);
#88=VECTOR('',#640,10.);
#89=VECTOR('',#641,10.);
#90=VECTOR('',#644,10.);
#91=VECTOR('',#645,10.);
#92=VECTOR('',#646,10.);
#93=VECTOR('',#649,10.);
#94=VECTOR('',#650,10.);
#95=VECTOR('',#655,10.);
#96=VECTOR('',#656,10.);
#97=VECTOR('',#657,10.);
#98=VECTOR('',#658,10.);
#99=VECTOR('',#661,10.);
#100=VECTOR('',#662,10.);
#101=VECTOR('',#663,10.);
#102=VECTOR('',#666,10.);
#103=VECTOR('',#667,10.);
#104=VECTOR('',#670,10.);
#105=VECTOR('',#671,10.);
#106=VECTOR('',#674,10.);
#107=CYLINDRICAL_SURFACE('',#501,1.6);
#108=CYLINDRICAL_SURFACE('',#503,1.4);
#109=CYLINDRICAL_SURFACE('',#508,1.6);
#110=CYLINDRICAL_SURFACE('',#510,1.4);
#111=CYLINDRICAL_SURFACE('',#515,1.6);
#112=CYLINDRICAL_SURFACE('',#517,1.4);
#113=CYLINDRICAL_SURFACE('',#522,2.);
#114=CYLINDRICAL_SURFACE('',#524,1.2645);
#115=FACE_BOUND('',#158,.T.);
#116=FACE_BOUND('',#162,.T.);
#117=FACE_BOUND('',#166,.T.);
#118=FACE_BOUND('',#170,.T.);
#119=FACE_BOUND('',#182,.T.);
#120=FACE_BOUND('',#184,.T.);
#121=FACE_BOUND('',#185,.T.);
#122=FACE_BOUND('',#186,.T.);
#123=FACE_BOUND('',#187,.T.);
#124=FACE_BOUND('',#188,.T.);
#125=FACE_BOUND('',#195,.T.);
#126=FACE_BOUND('',#196,.T.);
#127=FACE_BOUND('',#197,.T.);
#128=FACE_BOUND('',#198,.T.);
#129=FACE_OUTER_BOUND('',#157,.T.);
#130=FACE_OUTER_BOUND('',#159,.T.);
#131=FACE_OUTER_BOUND('',#160,.T.);
#132=FACE_OUTER_BOUND('',#161,.T.);
#133=FACE_OUTER_BOUND('',#163,.T.);
#134=FACE_OUTER_BOUND('',#164,.T.);
#135=FACE_OUTER_BOUND('',#165,.T.);
#136=FACE_OUTER_BOUND('',#167,.T.);
#137=FACE_OUTER_BOUND('',#168,.T.);
#138=FACE_OUTER_BOUND('',#169,.T.);
#139=FACE_OUTER_BOUND('',#171,.T.);
#140=FACE_OUTER_BOUND('',#172,.T.);
#141=FACE_OUTER_BOUND('',#173,.T.);
#142=FACE_OUTER_BOUND('',#174,.T.);
#143=FACE_OUTER_BOUND('',#175,.T.);
#144=FACE_OUTER_BOUND('',#176,.T.);
#145=FACE_OUTER_BOUND('',#177,.T.);
#146=FACE_OUTER_BOUND('',#178,.T.);
#147=FACE_OUTER_BOUND('',#179,.T.);
#148=FACE_OUTER_BOUND('',#180,.T.);
#149=FACE_OUTER_BOUND('',#181,.T.);
#150=FACE_OUTER_BOUND('',#183,.T.);
#151=FACE_OUTER_BOUND('',#189,.T.);
#152=FACE_OUTER_BOUND('',#190,.T.);
#153=FACE_OUTER_BOUND('',#191,.T.);
#154=FACE_OUTER_BOUND('',#192,.T.);
#155=FACE_OUTER_BOUND('',#193,.T.);
#156=FACE_OUTER_BOUND('',#194,.T.);
#157=EDGE_LOOP('',(#315));
#158=EDGE_LOOP('',(#316));
#159=EDGE_LOOP('',(#317,#318,#319,#320));
#160=EDGE_LOOP('',(#321,#322,#323,#324));
#161=EDGE_LOOP('',(#325));
#162=EDGE_LOOP('',(#326));
#163=EDGE_LOOP('',(#327,#328,#329,#330));
#164=EDGE_LOOP('',(#331,#332,#333,#334));
#165=EDGE_LOOP('',(#335));
#166=EDGE_LOOP('',(#336));
#167=EDGE_LOOP('',(#337,#338,#339,#340));
#168=EDGE_LOOP('',(#341,#342,#343,#344));
#169=EDGE_LOOP('',(#345));
#170=EDGE_LOOP('',(#346));
#171=EDGE_LOOP('',(#347,#348,#349,#350));
#172=EDGE_LOOP('',(#351,#352,#353,#354));
#173=EDGE_LOOP('',(#355,#356,#357,#358));
#174=EDGE_LOOP('',(#359,#360,#361,#362));
#175=EDGE_LOOP('',(#363,#364,#365,#366));
#176=EDGE_LOOP('',(#367,#368,#369,#370));
#177=EDGE_LOOP('',(#371,#372,#373,#374));
#178=EDGE_LOOP('',(#375,#376,#377,#378));
#179=EDGE_LOOP('',(#379,#380,#381,#382));
#180=EDGE_LOOP('',(#383,#384,#385,#386));
#181=EDGE_LOOP('',(#387,#388,#389,#390));
#182=EDGE_LOOP('',(#391,#392,#393,#394));
#183=EDGE_LOOP('',(#395,#396,#397,#398));
#184=EDGE_LOOP('',(#399));
#185=EDGE_LOOP('',(#400));
#186=EDGE_LOOP('',(#401));
#187=EDGE_LOOP('',(#402));
#188=EDGE_LOOP('',(#403,#404,#405,#406));
#189=EDGE_LOOP('',(#407,#408,#409,#410));
#190=EDGE_LOOP('',(#411,#412,#413,#414));
#191=EDGE_LOOP('',(#415,#416,#417,#418));
#192=EDGE_LOOP('',(#419,#420,#421,#422));
#193=EDGE_LOOP('',(#423,#424,#425,#426));
#194=EDGE_LOOP('',(#427,#428,#429,#430));
#195=EDGE_LOOP('',(#431));
#196=EDGE_LOOP('',(#432));
#197=EDGE_LOOP('',(#433));
#198=EDGE_LOOP('',(#434));
#199=CIRCLE('',#499,1.6);
#200=CIRCLE('',#500,1.4);
#201=CIRCLE('',#502,1.6);
#202=CIRCLE('',#504,1.4);
#203=CIRCLE('',#506,1.6);
#204=CIRCLE('',#507,1.4);
#205=CIRCLE('',#509,1.6);
#206=CIRCLE('',#511,1.4);
#207=CIRCLE('',#513,1.6);
#208=CIRCLE('',#514,1.4);
#209=CIRCLE('',#516,1.6);
#210=CIRCLE('',#518,1.4);
#211=CIRCLE('',#520,2.);
#212=CIRCLE('',#521,1.2645);
#213=CIRCLE('',#523,2.);
#214=CIRCLE('',#525,1.2645);
#215=VERTEX_POINT('',#684);
#216=VERTEX_POINT('',#686);
#217=VERTEX_POINT('',#689);
#218=VERTEX_POINT('',#693);
#219=VERTEX_POINT('',#697);
#220=VERTEX_POINT('',#699);
#221=VERTEX_POINT('',#702);
#222=VERTEX_POINT('',#706);
#223=VERTEX_POINT('',#710);
#224=VERTEX_POINT('',#712);
#225=VERTEX_POINT('',#715);
#226=VERTEX_POINT('',#719);
#227=VERTEX_POINT('',#723);
#228=VERTEX_POINT('',#725);
#229=VERTEX_POINT('',#728);
#230=VERTEX_POINT('',#732);
#231=VERTEX_POINT('',#736);
#232=VERTEX_POINT('',#737);
#233=VERTEX_POINT('',#739);
#234=VERTEX_POINT('',#741);
#235=VERTEX_POINT('',#745);
#236=VERTEX_POINT('',#747);
#237=VERTEX_POINT('',#751);
#238=VERTEX_POINT('',#753);
#239=VERTEX_POINT('',#760);
#240=VERTEX_POINT('',#761);
#241=VERTEX_POINT('',#763);
#242=VERTEX_POINT('',#765);
#243=VERTEX_POINT('',#769);
#244=VERTEX_POINT('',#771);
#245=VERTEX_POINT('',#775);
#246=VERTEX_POINT('',#777);
#247=VERTEX_POINT('',#785);
#248=VERTEX_POINT('',#786);
#249=VERTEX_POINT('',#788);
#250=VERTEX_POINT('',#790);
#251=VERTEX_POINT('',#794);
#252=VERTEX_POINT('',#796);
#253=VERTEX_POINT('',#800);
#254=VERTEX_POINT('',#804);
#255=EDGE_CURVE('',#215,#215,#199,.T.);
#256=EDGE_CURVE('',#216,#216,#200,.T.);
#257=EDGE_CURVE('',#217,#217,#201,.T.);
#258=EDGE_CURVE('',#217,#215,#19,.T.);
#259=EDGE_CURVE('',#216,#218,#20,.T.);
#260=EDGE_CURVE('',#218,#218,#202,.T.);
#261=EDGE_CURVE('',#219,#219,#203,.T.);
#262=EDGE_CURVE('',#220,#220,#204,.T.);
#263=EDGE_CURVE('',#221,#221,#205,.T.);
#264=EDGE_CURVE('',#221,#219,#21,.T.);
#265=EDGE_CURVE('',#220,#222,#22,.T.);
#266=EDGE_CURVE('',#222,#222,#206,.T.);
#267=EDGE_CURVE('',#223,#223,#207,.T.);
#268=EDGE_CURVE('',#224,#224,#208,.T.);
#269=EDGE_CURVE('',#225,#225,#209,.T.);
#270=EDGE_CURVE('',#225,#223,#23,.T.);
#271=EDGE_CURVE('',#224,#226,#24,.T.);
#272=EDGE_CURVE('',#226,#226,#210,.T.);
#273=EDGE_CURVE('',#227,#227,#211,.T.);
#274=EDGE_CURVE('',#228,#228,#212,.T.);
#275=EDGE_CURVE('',#229,#229,#213,.T.);
#276=EDGE_CURVE('',#229,#227,#25,.T.);
#277=EDGE_CURVE('',#228,#230,#26,.T.);
#278=EDGE_CURVE('',#230,#230,#214,.T.);
#279=EDGE_CURVE('',#231,#232,#27,.T.);
#280=EDGE_CURVE('',#231,#233,#28,.T.);
#281=EDGE_CURVE('',#234,#233,#29,.T.);
#282=EDGE_CURVE('',#232,#234,#30,.T.);
#283=EDGE_CURVE('',#232,#235,#31,.T.);
#284=EDGE_CURVE('',#236,#234,#32,.T.);
#285=EDGE_CURVE('',#235,#236,#33,.T.);
#286=EDGE_CURVE('',#235,#237,#34,.T.);
#287=EDGE_CURVE('',#238,#236,#35,.T.);
#288=EDGE_CURVE('',#237,#238,#36,.T.);
#289=EDGE_CURVE('',#237,#231,#37,.T.);
#290=EDGE_CURVE('',#233,#238,#38,.T.);
#291=EDGE_CURVE('',#239,#240,#39,.T.);
#292=EDGE_CURVE('',#239,#241,#40,.T.);
#293=EDGE_CURVE('',#242,#241,#41,.T.);
#294=EDGE_CURVE('',#240,#242,#42,.T.);
#295=EDGE_CURVE('',#240,#243,#43,.T.);
#296=EDGE_CURVE('',#244,#242,#44,.T.);
#297=EDGE_CURVE('',#243,#244,#45,.T.);
#298=EDGE_CURVE('',#243,#245,#46,.T.);
#299=EDGE_CURVE('',#246,#244,#47,.T.);
#300=EDGE_CURVE('',#245,#246,#48,.T.);
#301=EDGE_CURVE('',#245,#239,#49,.T.);
#302=EDGE_CURVE('',#241,#246,#50,.T.);
#303=EDGE_CURVE('',#247,#248,#51,.T.);
#304=EDGE_CURVE('',#249,#247,#52,.T.);
#305=EDGE_CURVE('',#250,#249,#53,.T.);
#306=EDGE_CURVE('',#248,#250,#54,.T.);
#307=EDGE_CURVE('',#247,#251,#55,.T.);
#308=EDGE_CURVE('',#252,#251,#56,.T.);
#309=EDGE_CURVE('',#249,#252,#57,.T.);
#310=EDGE_CURVE('',#253,#252,#58,.T.);
#311=EDGE_CURVE('',#250,#253,#59,.T.);
#312=EDGE_CURVE('',#254,#253,#60,.T.);
#313=EDGE_CURVE('',#248,#254,#61,.T.);
#314=EDGE_CURVE('',#251,#254,#62,.T.);
#315=ORIENTED_EDGE('',*,*,#255,.F.);
#316=ORIENTED_EDGE('',*,*,#256,.T.);
#317=ORIENTED_EDGE('',*,*,#257,.F.);
#318=ORIENTED_EDGE('',*,*,#258,.T.);
#319=ORIENTED_EDGE('',*,*,#255,.T.);
#320=ORIENTED_EDGE('',*,*,#258,.F.);
#321=ORIENTED_EDGE('',*,*,#256,.F.);
#322=ORIENTED_EDGE('',*,*,#259,.T.);
#323=ORIENTED_EDGE('',*,*,#260,.F.);
#324=ORIENTED_EDGE('',*,*,#259,.F.);
#325=ORIENTED_EDGE('',*,*,#261,.F.);
#326=ORIENTED_EDGE('',*,*,#262,.T.);
#327=ORIENTED_EDGE('',*,*,#263,.F.);
#328=ORIENTED_EDGE('',*,*,#264,.T.);
#329=ORIENTED_EDGE('',*,*,#261,.T.);
#330=ORIENTED_EDGE('',*,*,#264,.F.);
#331=ORIENTED_EDGE('',*,*,#262,.F.);
#332=ORIENTED_EDGE('',*,*,#265,.T.);
#333=ORIENTED_EDGE('',*,*,#266,.F.);
#334=ORIENTED_EDGE('',*,*,#265,.F.);
#335=ORIENTED_EDGE('',*,*,#267,.F.);
#336=ORIENTED_EDGE('',*,*,#268,.T.);
#337=ORIENTED_EDGE('',*,*,#269,.F.);
#338=ORIENTED_EDGE('',*,*,#270,.T.);
#339=ORIENTED_EDGE('',*,*,#267,.T.);
#340=ORIENTED_EDGE('',*,*,#270,.F.);
#341=ORIENTED_EDGE('',*,*,#268,.F.);
#342=ORIENTED_EDGE('',*,*,#271,.T.);
#343=ORIENTED_EDGE('',*,*,#272,.F.);
#344=ORIENTED_EDGE('',*,*,#271,.F.);
#345=ORIENTED_EDGE('',*,*,#273,.F.);
#346=ORIENTED_EDGE('',*,*,#274,.T.);
#347=ORIENTED_EDGE('',*,*,#275,.F.);
#348=ORIENTED_EDGE('',*,*,#276,.T.);
#349=ORIENTED_EDGE('',*,*,#273,.T.);
#350=ORIENTED_EDGE('',*,*,#276,.F.);
#351=ORIENTED_EDGE('',*,*,#274,.F.);
#352=ORIENTED_EDGE('',*,*,#277,.T.);
#353=ORIENTED_EDGE('',*,*,#278,.F.);
#354=ORIENTED_EDGE('',*,*,#277,.F.);
#355=ORIENTED_EDGE('',*,*,#279,.F.);
#356=ORIENTED_EDGE('',*,*,#280,.T.);
#357=ORIENTED_EDGE('',*,*,#281,.F.);
#358=ORIENTED_EDGE('',*,*,#282,.F.);
#359=ORIENTED_EDGE('',*,*,#283,.F.);
#360=ORIENTED_EDGE('',*,*,#282,.T.);
#361=ORIENTED_EDGE('',*,*,#284,.F.);
#362=ORIENTED_EDGE('',*,*,#285,.F.);
#363=ORIENTED_EDGE('',*,*,#286,.F.);
#364=ORIENTED_EDGE('',*,*,#285,.T.);
#365=ORIENTED_EDGE('',*,*,#287,.F.);
#366=ORIENTED_EDGE('',*,*,#288,.F.);
#367=ORIENTED_EDGE('',*,*,#289,.F.);
#368=ORIENTED_EDGE('',*,*,#288,.T.);
#369=ORIENTED_EDGE('',*,*,#290,.F.);
#370=ORIENTED_EDGE('',*,*,#280,.F.);
#371=ORIENTED_EDGE('',*,*,#291,.F.);
#372=ORIENTED_EDGE('',*,*,#292,.T.);
#373=ORIENTED_EDGE('',*,*,#293,.F.);
#374=ORIENTED_EDGE('',*,*,#294,.F.);
#375=ORIENTED_EDGE('',*,*,#295,.F.);
#376=ORIENTED_EDGE('',*,*,#294,.T.);
#377=ORIENTED_EDGE('',*,*,#296,.F.);
#378=ORIENTED_EDGE('',*,*,#297,.F.);
#379=ORIENTED_EDGE('',*,*,#298,.F.);
#380=ORIENTED_EDGE('',*,*,#297,.T.);
#381=ORIENTED_EDGE('',*,*,#299,.F.);
#382=ORIENTED_EDGE('',*,*,#300,.F.);
#383=ORIENTED_EDGE('',*,*,#301,.F.);
#384=ORIENTED_EDGE('',*,*,#300,.T.);
#385=ORIENTED_EDGE('',*,*,#302,.F.);
#386=ORIENTED_EDGE('',*,*,#292,.F.);
#387=ORIENTED_EDGE('',*,*,#302,.T.);
#388=ORIENTED_EDGE('',*,*,#299,.T.);
#389=ORIENTED_EDGE('',*,*,#296,.T.);
#390=ORIENTED_EDGE('',*,*,#293,.T.);
#391=ORIENTED_EDGE('',*,*,#290,.T.);
#392=ORIENTED_EDGE('',*,*,#287,.T.);
#393=ORIENTED_EDGE('',*,*,#284,.T.);
#394=ORIENTED_EDGE('',*,*,#281,.T.);
#395=ORIENTED_EDGE('',*,*,#303,.F.);
#396=ORIENTED_EDGE('',*,*,#304,.F.);
#397=ORIENTED_EDGE('',*,*,#305,.F.);
#398=ORIENTED_EDGE('',*,*,#306,.F.);
#399=ORIENTED_EDGE('',*,*,#260,.T.);
#400=ORIENTED_EDGE('',*,*,#266,.T.);
#401=ORIENTED_EDGE('',*,*,#272,.T.);
#402=ORIENTED_EDGE('',*,*,#278,.T.);
#403=ORIENTED_EDGE('',*,*,#291,.T.);
#404=ORIENTED_EDGE('',*,*,#295,.T.);
#405=ORIENTED_EDGE('',*,*,#298,.T.);
#406=ORIENTED_EDGE('',*,*,#301,.T.);
#407=ORIENTED_EDGE('',*,*,#304,.T.);
#408=ORIENTED_EDGE('',*,*,#307,.T.);
#409=ORIENTED_EDGE('',*,*,#308,.F.);
#410=ORIENTED_EDGE('',*,*,#309,.F.);
#411=ORIENTED_EDGE('',*,*,#305,.T.);
#412=ORIENTED_EDGE('',*,*,#309,.T.);
#413=ORIENTED_EDGE('',*,*,#310,.F.);
#414=ORIENTED_EDGE('',*,*,#311,.F.);
#415=ORIENTED_EDGE('',*,*,#306,.T.);
#416=ORIENTED_EDGE('',*,*,#311,.T.);
#417=ORIENTED_EDGE('',*,*,#312,.F.);
#418=ORIENTED_EDGE('',*,*,#313,.F.);
#419=ORIENTED_EDGE('',*,*,#303,.T.);
#420=ORIENTED_EDGE('',*,*,#313,.T.);
#421=ORIENTED_EDGE('',*,*,#314,.F.);
#422=ORIENTED_EDGE('',*,*,#307,.F.);
#423=ORIENTED_EDGE('',*,*,#279,.T.);
#424=ORIENTED_EDGE('',*,*,#283,.T.);
#425=ORIENTED_EDGE('',*,*,#286,.T.);
#426=ORIENTED_EDGE('',*,*,#289,.T.);
#427=ORIENTED_EDGE('',*,*,#314,.T.);
#428=ORIENTED_EDGE('',*,*,#312,.T.);
#429=ORIENTED_EDGE('',*,*,#310,.T.);
#430=ORIENTED_EDGE('',*,*,#308,.T.);
#431=ORIENTED_EDGE('',*,*,#257,.T.);
#432=ORIENTED_EDGE('',*,*,#263,.T.);
#433=ORIENTED_EDGE('',*,*,#269,.T.);
#434=ORIENTED_EDGE('',*,*,#275,.T.);
#435=PLANE('',#498);
#436=PLANE('',#505);
#437=PLANE('',#512);
#438=PLANE('',#519);
#439=PLANE('',#526);
#440=PLANE('',#527);
#441=PLANE('',#528);
#442=PLANE('',#529);
#443=PLANE('',#530);
#444=PLANE('',#531);
#445=PLANE('',#532);
#446=PLANE('',#533);
#447=PLANE('',#534);
#448=PLANE('',#535);
#449=PLANE('',#536);
#450=PLANE('',#537);
#451=PLANE('',#538);
#452=PLANE('',#539);
#453=PLANE('',#540);
#454=PLANE('',#541);
#455=ADVANCED_FACE('',(#129,#115),#435,.F.);
#456=ADVANCED_FACE('',(#130),#107,.F.);
#457=ADVANCED_FACE('',(#131),#108,.F.);
#458=ADVANCED_FACE('',(#132,#116),#436,.F.);
#459=ADVANCED_FACE('',(#133),#109,.F.);
#460=ADVANCED_FACE('',(#134),#110,.F.);
#461=ADVANCED_FACE('',(#135,#117),#437,.F.);
#462=ADVANCED_FACE('',(#136),#111,.F.);
#463=ADVANCED_FACE('',(#137),#112,.F.);
#464=ADVANCED_FACE('',(#138,#118),#438,.F.);
#465=ADVANCED_FACE('',(#139),#113,.F.);
#466=ADVANCED_FACE('',(#140),#114,.F.);
#467=ADVANCED_FACE('',(#141),#439,.T.);
#468=ADVANCED_FACE('',(#142),#440,.T.);
#469=ADVANCED_FACE('',(#143),#441,.T.);
#470=ADVANCED_FACE('',(#144),#442,.T.);
#471=ADVANCED_FACE('',(#145),#443,.T.);
#472=ADVANCED_FACE('',(#146),#444,.T.);
#473=ADVANCED_FACE('',(#147),#445,.T.);
#474=ADVANCED_FACE('',(#148),#446,.T.);
#475=ADVANCED_FACE('',(#149,#119),#447,.T.);
#476=ADVANCED_FACE('',(#150,#120,#121,#122,#123,#124),#448,.T.);
#477=ADVANCED_FACE('',(#151),#449,.T.);
#478=ADVANCED_FACE('',(#152),#450,.T.);
#479=ADVANCED_FACE('',(#153),#451,.T.);
#480=ADVANCED_FACE('',(#154),#452,.T.);
#481=ADVANCED_FACE('',(#155),#453,.T.);
#482=ADVANCED_FACE('',(#156,#125,#126,#127,#128),#454,.T.);
#483=CLOSED_SHELL('',(#455,#456,#457,#458,#459,#460,#461,#462,#463,#464,
#465,#466,#467,#468,#469,#470,#471,#472,#473,#474,#475,#476,#477,#478,#479,
#480,#481,#482));
#484=DERIVED_UNIT_ELEMENT(#486,1.);
#485=DERIVED_UNIT_ELEMENT(#819,-3.);
#486=(
MASS_UNIT()
NAMED_UNIT(*)
SI_UNIT(.KILO.,.GRAM.)
);
#487=DERIVED_UNIT((#484,#485));
#488=MEASURE_REPRESENTATION_ITEM('density measure',
POSITIVE_RATIO_MEASURE(7850.),#487);
#489=PROPERTY_DEFINITION_REPRESENTATION(#494,#491);
#490=PROPERTY_DEFINITION_REPRESENTATION(#495,#492);
#491=REPRESENTATION('material name',(#493),#816);
#492=REPRESENTATION('density',(#488),#816);
#493=DESCRIPTIVE_REPRESENTATION_ITEM('Steel','Steel');
#494=PROPERTY_DEFINITION('material property','material name',#831);
#495=PROPERTY_DEFINITION('material property','density of part',#831);
#496=AXIS2_PLACEMENT_3D('',#681,#543,#544);
#497=AXIS2_PLACEMENT_3D('',#682,#545,#546);
#498=AXIS2_PLACEMENT_3D('',#683,#547,#548);
#499=AXIS2_PLACEMENT_3D('',#685,#549,#550);
#500=AXIS2_PLACEMENT_3D('',#687,#551,#552);
#501=AXIS2_PLACEMENT_3D('',#688,#553,#554);
#502=AXIS2_PLACEMENT_3D('',#690,#555,#556);
#503=AXIS2_PLACEMENT_3D('',#692,#558,#559);
#504=AXIS2_PLACEMENT_3D('',#695,#561,#562);
#505=AXIS2_PLACEMENT_3D('',#696,#563,#564);
#506=AXIS2_PLACEMENT_3D('',#698,#565,#566);
#507=AXIS2_PLACEMENT_3D('',#700,#567,#568);
#508=AXIS2_PLACEMENT_3D('',#701,#569,#570);
#509=AXIS2_PLACEMENT_3D('',#703,#571,#572);
#510=AXIS2_PLACEMENT_3D('',#705,#574,#575);
#511=AXIS2_PLACEMENT_3D('',#708,#577,#578);
#512=AXIS2_PLACEMENT_3D('',#709,#579,#580);
#513=AXIS2_PLACEMENT_3D('',#711,#581,#582);
#514=AXIS2_PLACEMENT_3D('',#713,#583,#584);
#515=AXIS2_PLACEMENT_3D('',#714,#585,#586);
#516=AXIS2_PLACEMENT_3D('',#716,#587,#588);
#517=AXIS2_PLACEMENT_3D('',#718,#590,#591);
#518=AXIS2_PLACEMENT_3D('',#721,#593,#594);
#519=AXIS2_PLACEMENT_3D('',#722,#595,#596);
#520=AXIS2_PLACEMENT_3D('',#724,#597,#598);
#521=AXIS2_PLACEMENT_3D('',#726,#599,#600);
#522=AXIS2_PLACEMENT_3D('',#727,#601,#602);
#523=AXIS2_PLACEMENT_3D('',#729,#603,#604);
#524=AXIS2_PLACEMENT_3D('',#731,#606,#607);
#525=AXIS2_PLACEMENT_3D('',#734,#609,#610);
#526=AXIS2_PLACEMENT_3D('',#735,#611,#612);
#527=AXIS2_PLACEMENT_3D('',#744,#617,#618);
#528=AXIS2_PLACEMENT_3D('',#750,#622,#623);
#529=AXIS2_PLACEMENT_3D('',#756,#627,#628);
#530=AXIS2_PLACEMENT_3D('',#759,#631,#632);
#531=AXIS2_PLACEMENT_3D('',#768,#637,#638);
#532=AXIS2_PLACEMENT_3D('',#774,#642,#643);
#533=AXIS2_PLACEMENT_3D('',#780,#647,#648);
#534=AXIS2_PLACEMENT_3D('',#783,#651,#652);
#535=AXIS2_PLACEMENT_3D('',#784,#653,#654);
#536=AXIS2_PLACEMENT_3D('',#793,#659,#660);
#537=AXIS2_PLACEMENT_3D('',#799,#664,#665);
#538=AXIS2_PLACEMENT_3D('',#803,#668,#669);
#539=AXIS2_PLACEMENT_3D('',#807,#672,#673);
#540=AXIS2_PLACEMENT_3D('',#809,#675,#676);
#541=AXIS2_PLACEMENT_3D('',#810,#677,#678);
#542=AXIS2_PLACEMENT_3D('',#811,#679,#680);
#543=DIRECTION('axis',(0.,0.,1.));
#544=DIRECTION('refdir',(1.,0.,0.));
#545=DIRECTION('axis',(0.,0.,1.));
#546=DIRECTION('refdir',(1.,0.,0.));
#547=DIRECTION('center_axis',(0.,0.,1.));
#548=DIRECTION('ref_axis',(-1.,0.,0.));
#549=DIRECTION('center_axis',(0.,0.,1.));
#550=DIRECTION('ref_axis',(-1.,0.,0.));
#551=DIRECTION('center_axis',(0.,0.,1.));
#552=DIRECTION('ref_axis',(-1.,0.,0.));
#553=DIRECTION('center_axis',(0.,0.,1.));
#554=DIRECTION('ref_axis',(-1.,0.,0.));
#555=DIRECTION('center_axis',(0.,0.,1.));
#556=DIRECTION('ref_axis',(-1.,0.,0.));
#557=DIRECTION('',(0.,0.,1.));
#558=DIRECTION('center_axis',(0.,0.,1.));
#559=DIRECTION('ref_axis',(-1.,0.,0.));
#560=DIRECTION('',(0.,0.,1.));
#561=DIRECTION('center_axis',(0.,0.,-1.));
#562=DIRECTION('ref_axis',(-1.,0.,0.));
#563=DIRECTION('center_axis',(0.,0.,1.));
#564=DIRECTION('ref_axis',(-1.,0.,0.));
#565=DIRECTION('center_axis',(0.,0.,1.));
#566=DIRECTION('ref_axis',(-1.,0.,0.));
#567=DIRECTION('center_axis',(0.,0.,1.));
#568=DIRECTION('ref_axis',(-1.,0.,0.));
#569=DIRECTION('center_axis',(0.,0.,1.));
#570=DIRECTION('ref_axis',(-1.,0.,0.));
#571=DIRECTION('center_axis',(0.,0.,1.));
#572=DIRECTION('ref_axis',(-1.,0.,0.));
#573=DIRECTION('',(0.,0.,1.));
#574=DIRECTION('center_axis',(0.,0.,1.));
#575=DIRECTION('ref_axis',(-1.,0.,0.));
#576=DIRECTION('',(0.,0.,1.));
#577=DIRECTION('center_axis',(0.,0.,-1.));
#578=DIRECTION('ref_axis',(-1.,0.,0.));
#579=DIRECTION('center_axis',(0.,0.,1.));
#580=DIRECTION('ref_axis',(-1.,0.,0.));
#581=DIRECTION('center_axis',(0.,0.,1.));
#582=DIRECTION('ref_axis',(-1.,0.,0.));
#583=DIRECTION('center_axis',(0.,0.,1.));
#584=DIRECTION('ref_axis',(-1.,0.,0.));
#585=DIRECTION('center_axis',(0.,0.,1.));
#586=DIRECTION('ref_axis',(-1.,0.,0.));
#587=DIRECTION('center_axis',(0.,0.,1.));
#588=DIRECTION('ref_axis',(-1.,0.,0.));
#589=DIRECTION('',(0.,0.,1.));
#590=DIRECTION('center_axis',(0.,0.,1.));
#591=DIRECTION('ref_axis',(-1.,0.,0.));
#592=DIRECTION('',(0.,0.,1.));
#593=DIRECTION('center_axis',(0.,0.,-1.));
#594=DIRECTION('ref_axis',(-1.,0.,0.));
#595=DIRECTION('center_axis',(0.,0.,1.));
#596=DIRECTION('ref_axis',(-1.,0.,0.));
#597=DIRECTION('center_axis',(0.,0.,1.));
#598=DIRECTION('ref_axis',(-1.,0.,0.));
#599=DIRECTION('center_axis',(0.,0.,1.));
#600=DIRECTION('ref_axis',(-1.,0.,0.));
#601=DIRECTION('center_axis',(0.,0.,1.));
#602=DIRECTION('ref_axis',(-1.,0.,0.));
#603=DIRECTION('center_axis',(0.,0.,1.));
#604=DIRECTION('ref_axis',(-1.,0.,0.));
#605=DIRECTION('',(0.,0.,1.));
#606=DIRECTION('center_axis',(0.,0.,1.));
#607=DIRECTION('ref_axis',(-1.,0.,0.));
#608=DIRECTION('',(0.,0.,1.));
#609=DIRECTION('center_axis',(0.,0.,-1.));
#610=DIRECTION('ref_axis',(-1.,0.,0.));
#611=DIRECTION('center_axis',(0.,-1.,0.));
#612=DIRECTION('ref_axis',(1.,0.,0.));
#613=DIRECTION('',(-1.,0.,0.));
#614=DIRECTION('',(0.,0.,1.));
#615=DIRECTION('',(1.,0.,0.));
#616=DIRECTION('',(0.,0.,1.));
#617=DIRECTION('center_axis',(1.,0.,0.));
#618=DIRECTION('ref_axis',(0.,1.,0.));
#619=DIRECTION('',(0.,-1.,0.));
#620=DIRECTION('',(0.,1.,0.));
#621=DIRECTION('',(0.,0.,1.));
#622=DIRECTION('center_axis',(2.63467851456768E-17,1.,0.));
#623=DIRECTION('ref_axis',(-1.,2.63467851456768E-17,0.));
#624=DIRECTION('',(1.,-2.63467851456768E-17,0.));
#625=DIRECTION('',(-1.,2.63467851456768E-17,0.));
#626=DIRECTION('',(0.,0.,1.));
#627=DIRECTION('center_axis',(-1.,0.,0.));
#628=DIRECTION('ref_axis',(0.,-1.,0.));
#629=DIRECTION('',(0.,1.,0.));
#630=DIRECTION('',(0.,-1.,0.));
#631=DIRECTION('center_axis',(-4.9373667513487E-17,-1.,0.));
#632=DIRECTION('ref_axis',(1.,-4.9373667513487E-17,0.));
#633=DIRECTION('',(-1.,4.9373667513487E-17,0.));
#634=DIRECTION('',(0.,0.,1.));
#635=DIRECTION('',(1.,-4.9373667513487E-17,0.));
#636=DIRECTION('',(0.,0.,1.));
#637=DIRECTION('center_axis',(-1.,0.,0.));
#638=DIRECTION('ref_axis',(0.,-1.,0.));
#639=DIRECTION('',(0.,1.,0.));
#640=DIRECTION('',(0.,-1.,0.));
#641=DIRECTION('',(0.,0.,1.));
#642=DIRECTION('center_axis',(0.,1.,0.));
#643=DIRECTION('ref_axis',(-1.,0.,0.));
#644=DIRECTION('',(1.,0.,0.));
#645=DIRECTION('',(-1.,0.,0.));
#646=DIRECTION('',(0.,0.,1.));
#647=DIRECTION('center_axis',(1.,0.,0.));
#648=DIRECTION('ref_axis',(0.,1.,0.));
#649=DIRECTION('',(0.,-1.,0.));
#650=DIRECTION('',(0.,1.,0.));
#651=DIRECTION('center_axis',(0.,0.,1.));
#652=DIRECTION('ref_axis',(1.,0.,0.));
#653=DIRECTION('center_axis',(0.,0.,1.));
#654=DIRECTION('ref_axis',(1.,0.,0.));
#655=DIRECTION('',(1.,0.,0.));
#656=DIRECTION('',(0.,1.,0.));
#657=DIRECTION('',(-1.,0.,0.));
#658=DIRECTION('',(0.,-1.,0.));
#659=DIRECTION('center_axis',(-1.,0.,0.));
#660=DIRECTION('ref_axis',(0.,1.,0.));
#661=DIRECTION('',(0.,0.,-1.));
#662=DIRECTION('',(0.,1.,0.));
#663=DIRECTION('',(0.,0.,-1.));
#664=DIRECTION('center_axis',(0.,-1.,0.));
#665=DIRECTION('ref_axis',(-1.,0.,0.));
#666=DIRECTION('',(-1.,0.,0.));
#667=DIRECTION('',(0.,0.,-1.));
#668=DIRECTION('center_axis',(1.,0.,0.));
#669=DIRECTION('ref_axis',(0.,-1.,0.));
#670=DIRECTION('',(0.,-1.,0.));
#671=DIRECTION('',(0.,0.,-1.));
#672=DIRECTION('center_axis',(0.,1.,0.));
#673=DIRECTION('ref_axis',(1.,0.,0.));
#674=DIRECTION('',(1.,0.,0.));
#675=DIRECTION('center_axis',(0.,0.,1.));
#676=DIRECTION('ref_axis',(1.,0.,0.));
#677=DIRECTION('center_axis',(0.,0.,-1.));
#678=DIRECTION('ref_axis',(-1.,0.,0.));
#679=DIRECTION('',(0.,0.,1.));
#680=DIRECTION('',(1.,0.,0.));
#681=CARTESIAN_POINT('',(0.,0.,0.));
#682=CARTESIAN_POINT('',(0.,0.,0.));
#683=CARTESIAN_POINT('Origin',(1.76774269805513,99.7896090379559,-4.));
#684=CARTESIAN_POINT('',(3.36774269805513,99.7896090379559,-4.));
#685=CARTESIAN_POINT('Origin',(1.76774269805513,99.7896090379559,-4.));
#686=CARTESIAN_POINT('',(3.16774269805513,99.7896090379559,-4.));
#687=CARTESIAN_POINT('Origin',(1.76774269805513,99.7896090379559,-4.));
#688=CARTESIAN_POINT('Origin',(1.76774269805513,99.7896090379559,-4.5));
#689=CARTESIAN_POINT('',(3.36774269805513,99.7896090379559,-5.));
#690=CARTESIAN_POINT('Origin',(1.76774269805513,99.7896090379559,-5.));
#691=CARTESIAN_POINT('',(3.36774269805513,99.7896090379559,-4.5));
#692=CARTESIAN_POINT('Origin',(1.76774269805513,99.7896090379559,3.5));
#693=CARTESIAN_POINT('',(3.16774269805513,99.7896090379559,0.));
#694=CARTESIAN_POINT('',(3.16774269805513,99.7896090379559,3.5));
#695=CARTESIAN_POINT('Origin',(1.76774269805513,99.7896090379559,0.));
#696=CARTESIAN_POINT('Origin',(2.35782563686371,22.8623509407043,-4.));
#697=CARTESIAN_POINT('',(3.95782563686371,22.8623509407043,-4.));
#698=CARTESIAN_POINT('Origin',(2.35782563686371,22.8623509407043,-4.));
#699=CARTESIAN_POINT('',(3.75782563686371,22.8623509407043,-4.));
#700=CARTESIAN_POINT('Origin',(2.35782563686371,22.8623509407043,-4.));
#701=CARTESIAN_POINT('Origin',(2.35782563686371,22.8623509407043,-4.5));
#702=CARTESIAN_POINT('',(3.95782563686371,22.8623509407043,-5.));
#703=CARTESIAN_POINT('Origin',(2.35782563686371,22.8623509407043,-5.));
#704=CARTESIAN_POINT('',(3.95782563686371,22.8623509407043,-4.5));
#705=CARTESIAN_POINT('Origin',(2.35782563686371,22.8623509407043,3.5));
#706=CARTESIAN_POINT('',(3.75782563686371,22.8623509407043,0.));
#707=CARTESIAN_POINT('',(3.75782563686371,22.8623509407043,3.5));
#708=CARTESIAN_POINT('Origin',(2.35782563686371,22.8623509407043,0.));
#709=CARTESIAN_POINT('Origin',(-93.4882736206055,23.8757658004761,-4.));
#710=CARTESIAN_POINT('',(-91.8882736206055,23.8757658004761,-4.));
#711=CARTESIAN_POINT('Origin',(-93.4882736206055,23.8757658004761,-4.));
#712=CARTESIAN_POINT('',(-92.0882736206055,23.8757658004761,-4.));
#713=CARTESIAN_POINT('Origin',(-93.4882736206055,23.8757658004761,-4.));
#714=CARTESIAN_POINT('Origin',(-93.4882736206055,23.8757658004761,-4.5));
#715=CARTESIAN_POINT('',(-91.8882736206055,23.8757658004761,-5.));
#716=CARTESIAN_POINT('Origin',(-93.4882736206055,23.8757658004761,-5.));
#717=CARTESIAN_POINT('',(-91.8882736206055,23.8757658004761,-4.5));
#718=CARTESIAN_POINT('Origin',(-93.4882736206055,23.8757658004761,3.5));
#719=CARTESIAN_POINT('',(-92.0882736206055,23.8757658004761,0.));
#720=CARTESIAN_POINT('',(-92.0882736206055,23.8757658004761,3.5));
#721=CARTESIAN_POINT('Origin',(-93.4882736206055,23.8757658004761,0.));
#722=CARTESIAN_POINT('Origin',(-92.8555433378316,99.4185026589802,-2.7));
#723=CARTESIAN_POINT('',(-90.8555433378316,99.4185026589802,-2.7));
#724=CARTESIAN_POINT('Origin',(-92.8555433378316,99.4185026589802,-2.7));
#725=CARTESIAN_POINT('',(-91.5910433378316,99.4185026589802,-2.7));
#726=CARTESIAN_POINT('Origin',(-92.8555433378316,99.4185026589802,-2.7));
#727=CARTESIAN_POINT('Origin',(-92.8555433378316,99.4185026589802,-3.85));
#728=CARTESIAN_POINT('',(-90.8555433378316,99.4185026589802,-5.));
#729=CARTESIAN_POINT('Origin',(-92.8555433378316,99.4185026589802,-5.));
#730=CARTESIAN_POINT('',(-90.8555433378316,99.4185026589802,-3.85));
#731=CARTESIAN_POINT('Origin',(-92.8555433378316,99.4185026589802,3.5));
#732=CARTESIAN_POINT('',(-91.5910433378316,99.4185026589802,0.));
#733=CARTESIAN_POINT('',(-91.5910433378316,99.4185026589802,3.5));
#734=CARTESIAN_POINT('Origin',(-92.8555433378316,99.4185026589802,0.));
#735=CARTESIAN_POINT('Origin',(-87.7273551754301,94.0135472304823,0.));
#736=CARTESIAN_POINT('',(-3.44967055573129,94.0135472304823,0.));
#737=CARTESIAN_POINT('',(-87.7273551754301,94.0135472304823,0.));
#738=CARTESIAN_POINT('',(-66.6117826436396,94.0135472304823,0.));
#739=CARTESIAN_POINT('',(-3.44967055573129,94.0135472304823,3.));
#740=CARTESIAN_POINT('',(-3.44967055573129,94.0135472304823,0.));
#741=CARTESIAN_POINT('',(-87.7273551754301,94.0135472304823,3.));
#742=CARTESIAN_POINT('',(-3.44967055573129,94.0135472304823,3.));
#743=CARTESIAN_POINT('',(-87.7273551754301,94.0135472304823,0.));
#744=CARTESIAN_POINT('Origin',(-87.7273551754301,13.3374730646168,0.));
#745=CARTESIAN_POINT('',(-87.7273551754301,13.3374730646168,0.));
#746=CARTESIAN_POINT('',(-87.7273551754301,31.2641812160161,0.));
#747=CARTESIAN_POINT('',(-87.7273551754301,13.3374730646168,3.));
#748=CARTESIAN_POINT('',(-87.7273551754301,94.0135472304823,3.));
#749=CARTESIAN_POINT('',(-87.7273551754301,13.3374730646168,0.));
#750=CARTESIAN_POINT('Origin',(-3.44967055573129,13.3374730646168,0.));
#751=CARTESIAN_POINT('',(-3.44967055573129,13.3374730646168,0.));
#752=CARTESIAN_POINT('',(-24.4729403337902,13.3374730646168,0.));
#753=CARTESIAN_POINT('',(-3.44967055573129,13.3374730646168,3.));
#754=CARTESIAN_POINT('',(-87.7273551754301,13.3374730646168,3.));
#755=CARTESIAN_POINT('',(-3.44967055573129,13.3374730646168,0.));
#756=CARTESIAN_POINT('Origin',(-3.44967055573129,94.0135472304823,0.));
#757=CARTESIAN_POINT('',(-3.44967055573129,71.6022182989488,0.));
#758=CARTESIAN_POINT('',(-3.44967055573129,13.3374730646168,3.));
#759=CARTESIAN_POINT('Origin',(-90.4445457977253,10.407428357626,0.));
#760=CARTESIAN_POINT('',(-0.500000007450581,10.407428357626,0.));
#761=CARTESIAN_POINT('',(-90.4445457977253,10.407428357626,0.));
#762=CARTESIAN_POINT('',(-67.9703779547872,10.407428357626,0.));
#763=CARTESIAN_POINT('',(-0.500000007450581,10.407428357626,3.));
#764=CARTESIAN_POINT('',(-0.500000007450581,10.407428357626,0.));
#765=CARTESIAN_POINT('',(-90.4445457977253,10.407428357626,3.));
#766=CARTESIAN_POINT('',(-90.4445457977253,10.407428357626,3.));
#767=CARTESIAN_POINT('',(-90.4445457977253,10.407428357626,0.));
#768=CARTESIAN_POINT('Origin',(-90.4445457977253,97.0000014454126,0.));
#769=CARTESIAN_POINT('',(-90.4445457977253,97.0000014454126,0.));
#770=CARTESIAN_POINT('',(-90.4445457977253,73.095445406414,0.));
#771=CARTESIAN_POINT('',(-90.4445457977253,97.0000014454126,3.));
#772=CARTESIAN_POINT('',(-90.4445457977253,97.0000014454126,3.));
#773=CARTESIAN_POINT('',(-90.4445457977253,97.0000014454126,0.));
#774=CARTESIAN_POINT('Origin',(-0.500000007450581,97.0000014454126,0.));
#775=CARTESIAN_POINT('',(-0.500000007450581,97.0000014454126,0.));
#776=CARTESIAN_POINT('',(-22.9981050596498,97.0000014454126,0.));
#777=CARTESIAN_POINT('',(-0.500000007450581,97.0000014454126,3.));
#778=CARTESIAN_POINT('',(-0.500000007450581,97.0000014454126,3.));
#779=CARTESIAN_POINT('',(-0.500000007450581,97.0000014454126,0.));
#780=CARTESIAN_POINT('Origin',(-0.500000007450581,10.407428357626,0.));
#781=CARTESIAN_POINT('',(-0.500000007450581,29.7991588625207,0.));
#782=CARTESIAN_POINT('',(-0.500000007450581,10.407428357626,3.));
#783=CARTESIAN_POINT('Origin',(-45.4722729025879,53.7037149015193,3.));
#784=CARTESIAN_POINT('Origin',(-45.4962101118491,49.1908893674153,0.));
#785=CARTESIAN_POINT('',(-95.9924202982039,102.5,0.));
#786=CARTESIAN_POINT('',(5.00000007450581,102.5,0.));
#787=CARTESIAN_POINT('',(-95.9924202982039,102.5,0.));
#788=CARTESIAN_POINT('',(-95.9924202982039,-4.11822126516936,0.));
#789=CARTESIAN_POINT('',(-95.9924202982039,-4.11822126516936,0.));
#790=CARTESIAN_POINT('',(5.00000007450581,-4.11822126516936,0.));
#791=CARTESIAN_POINT('',(5.00000007450581,-4.11822126516936,0.));
#792=CARTESIAN_POINT('',(5.00000007450581,102.5,0.));
#793=CARTESIAN_POINT('Origin',(-95.9924202982039,-4.11822126516936,0.));
#794=CARTESIAN_POINT('',(-95.9924202982039,102.5,-5.));
#795=CARTESIAN_POINT('',(-95.9924202982039,102.5,0.));
#796=CARTESIAN_POINT('',(-95.9924202982039,-4.11822126516936,-5.));
#797=CARTESIAN_POINT('',(-95.9924202982039,-4.11822126516936,-5.));
#798=CARTESIAN_POINT('',(-95.9924202982039,-4.11822126516936,0.));
#799=CARTESIAN_POINT('Origin',(5.00000007450581,-4.11822126516936,0.));
#800=CARTESIAN_POINT('',(5.00000007450581,-4.11822126516936,-5.));
#801=CARTESIAN_POINT('',(5.00000007450581,-4.11822126516936,-5.));
#802=CARTESIAN_POINT('',(5.00000007450581,-4.11822126516936,0.));
#803=CARTESIAN_POINT('Origin',(5.00000007450581,102.5,0.));
#804=CARTESIAN_POINT('',(5.00000007450581,102.5,-5.));
#805=CARTESIAN_POINT('',(5.00000007450581,102.5,-5.));
#806=CARTESIAN_POINT('',(5.00000007450581,102.5,0.));
#807=CARTESIAN_POINT('Origin',(-95.9924202982039,102.5,0.));
#808=CARTESIAN_POINT('',(-95.9924202982039,102.5,-5.));
#809=CARTESIAN_POINT('Origin',(-45.4962101118491,49.1908893674153,0.));
#810=CARTESIAN_POINT('Origin',(-45.4962101118491,49.1908893674153,-5.));
#811=CARTESIAN_POINT('',(0.,0.,0.));
#812=UNCERTAINTY_MEASURE_WITH_UNIT(LENGTH_MEASURE(0.01),#818,
'DISTANCE_ACCURACY_VALUE',
'Maximum model space distance between geometric entities at asserted c
onnectivities');
#813=UNCERTAINTY_MEASURE_WITH_UNIT(LENGTH_MEASURE(0.01),#818,
'DISTANCE_ACCURACY_VALUE',
'Maximum model space distance between geometric entities at asserted c
onnectivities');
#814=UNCERTAINTY_MEASURE_WITH_UNIT(LENGTH_MEASURE(0.01),#818,
'DISTANCE_ACCURACY_VALUE',
'Maximum model space distance between geometric entities at asserted c
onnectivities');
#815=(
GEOMETRIC_REPRESENTATION_CONTEXT(3)
GLOBAL_UNCERTAINTY_ASSIGNED_CONTEXT((#812))
GLOBAL_UNIT_ASSIGNED_CONTEXT((#818,#820,#821))
REPRESENTATION_CONTEXT('','3D')
);
#816=(
GEOMETRIC_REPRESENTATION_CONTEXT(3)
GLOBAL_UNCERTAINTY_ASSIGNED_CONTEXT((#813))
GLOBAL_UNIT_ASSIGNED_CONTEXT((#818,#820,#821))
REPRESENTATION_CONTEXT('','3D')
);
#817=(
GEOMETRIC_REPRESENTATION_CONTEXT(3)
GLOBAL_UNCERTAINTY_ASSIGNED_CONTEXT((#814))
GLOBAL_UNIT_ASSIGNED_CONTEXT((#818,#820,#821))
REPRESENTATION_CONTEXT('','3D')
);
#818=(
LENGTH_UNIT()
NAMED_UNIT(*)
SI_UNIT(.MILLI.,.METRE.)
);
#819=(
LENGTH_UNIT()
NAMED_UNIT(*)
SI_UNIT($,.METRE.)
);
#820=(
NAMED_UNIT(*)
PLANE_ANGLE_UNIT()
SI_UNIT($,.RADIAN.)
);
#821=(
NAMED_UNIT(*)
SI_UNIT($,.STERADIAN.)
SOLID_ANGLE_UNIT()
);
#822=SHAPE_DEFINITION_REPRESENTATION(#824,#827);
#823=SHAPE_DEFINITION_REPRESENTATION(#825,#828);
#824=PRODUCT_DEFINITION_SHAPE('',$,#830);
#825=PRODUCT_DEFINITION_SHAPE('',$,#831);
#826=PRODUCT_DEFINITION_SHAPE($,$,#14);
#827=SHAPE_REPRESENTATION('',(#496,#542),#815);
#828=SHAPE_REPRESENTATION('',(#497),#816);
#829=PRODUCT_DEFINITION_CONTEXT('part definition',#837,'design');
#830=PRODUCT_DEFINITION('ImageToStl.com_hack+pad+pcb (1)',
'ImageToStl.com_hack+pad+pcb (1) v3',#832,#829);
#831=PRODUCT_DEFINITION('onderkant','onderkant',#833,#829);
#832=PRODUCT_DEFINITION_FORMATION('',$,#839);
#833=PRODUCT_DEFINITION_FORMATION('',$,#840);
#834=PRODUCT_RELATED_PRODUCT_CATEGORY(
'ImageToStl.com_hack+pad+pcb (1) v3',
'ImageToStl.com_hack+pad+pcb (1) v3',(#839));
#835=PRODUCT_RELATED_PRODUCT_CATEGORY('onderkant','onderkant',(#840));
#836=APPLICATION_PROTOCOL_DEFINITION('international standard',
'automotive_design',2009,#837);
#837=APPLICATION_CONTEXT(
'Core Data for Automotive Mechanical Design Process');
#838=PRODUCT_CONTEXT('part definition',#837,'mechanical');
#839=PRODUCT('ImageToStl.com_hack+pad+pcb (1)',
'ImageToStl.com_hack+pad+pcb (1) v3',$,(#838));
#840=PRODUCT('onderkant','onderkant',$,(#838));
#841=PRESENTATION_STYLE_ASSIGNMENT((#843));
#842=PRESENTATION_STYLE_ASSIGNMENT((#844));
#843=SURFACE_STYLE_USAGE(.BOTH.,#845);
#844=SURFACE_STYLE_USAGE(.BOTH.,#846);
#845=SURFACE_SIDE_STYLE('',(#847));
#846=SURFACE_SIDE_STYLE('',(#848));
#847=SURFACE_STYLE_FILL_AREA(#849);
#848=SURFACE_STYLE_FILL_AREA(#850);
#849=FILL_AREA_STYLE('Steel - Satin',(#851));
#850=FILL_AREA_STYLE('Copper - Polished',(#852));
#851=FILL_AREA_STYLE_COLOUR('Steel - Satin',#853);
#852=FILL_AREA_STYLE_COLOUR('Copper - Polished',#854);
#853=COLOUR_RGB('Steel - Satin',0.627450980392157,0.627450980392157,0.627450980392157);
#854=COLOUR_RGB('Copper - Polished',0.929411764705882,0.807843137254902,
0.764705882352941);
ENDSEC;
END-ISO-10303-21;
